<svg id="Capa_1" data-name="Capa 1" xmlns="http://www.w3.org/2000/svg" viewBox="0 0 260.41 255.12"><defs><style>.cls-1{fill:#1a5276;}</style></defs><path class="cls-1" d="M130.3,16.3c8.58-6.88,17.57-12.1,28-14.33,38.55-8.24,84.53,9.1,98,58.25,10,36.6.88,69.34-20.34,99.57-17,24.24-38.66,44-61.54,62.39-13,10.44-26.26,20.46-39.35,30.75-2.78,2.2-5.43,3.2-8.52.79C99.92,233,72.57,213,48.93,188.67,31.3,170.5,15.63,150.85,7.16,126.61-4.52,93.2-2.7,60.73,18.49,31.58,36.73,6.49,63.18-1.78,93.3.44,107.16,1.46,119.3,7,130.3,16.3Zm80.33,110.28c1.3-2.29,2.47-3.75,3-5.4,1.71-5.32,5.2-7.08,10.66-6.69,5.63.41,11.32-.12,17,.06,3.51.11,5.25-.76,6-4.67C251,92,250.16,74.42,243.89,57.33,230,19.51,195.64,6.56,163,11.71c-10.58,1.67-19.69,7-27.45,14.43-2.94,2.82-6.33,3.62-9.34.75C111.87,13.28,95,8.88,75.63,11.19,61,12.94,47.56,17.61,36.8,27.66,11,51.8,6.57,82,14.56,114.74c5,20.49,16.67,37.59,30.16,53.44,24.06,28.26,53.55,50.33,82.87,72.59,2.45,1.86,4.12,1.13,6.12-.49,16.87-13.57,34.11-26.69,50.57-40.74,20.21-17.27,38.44-36.45,51.46-60,2.35-4.24,4.23-8.75,6.42-13.32-15.46-3-17.63-2-24.09,10.67-.61,1.18-1,2.62-1.85,3.51-1.75,1.78-3.92,4.64-5.7,4.5-2.15-.18-4.87-2.63-6-4.8-3.86-7.72-7.1-15.75-10.63-23.64-1.31-2.91-2.75-5.75-4.42-9.24-3.18,5.25-5.5,9.94-8.66,14a11.73,11.73,0,0,1-7.19,4,110.47,110.47,0,0,1-17,.11c-4.21-.21-6.77.72-8.9,5-4.06,8.17-13.16,11.61-22.1,9.52-8.53-2-15.06-9.54-15.57-18-.58-9.52,4.47-17.67,13-20.94,8.13-3.13,19-1.26,22.71,6.21,4,8,9.83,7.87,16.66,7.51,2-.11,4.11.39,6-.13s4.37-1.54,5.46-3.12c3.58-5.2,6.41-10.92,10-16.09,1.63-2.32,4.27-4.88,6.83-5.38,3.76-.73,4.81,3.2,6.1,6.1C201.31,106,205.83,115.92,210.63,126.58Zm-80.11,3.36a10,10,0,1,0-10.12-10.06A10.15,10.15,0,0,0,130.52,129.94Z"/><path class="cls-1" d="M125.1,214.23c0-17.95,0-34.44,0-50.93,0-1.49-.44-3.49.34-4.37,1.49-1.7,3.67-3.73,5.61-3.79,1.5,0,3.22,2.62,4.54,4.32.49.64.15,1.94.15,2.94,0,20.49.09,41-.08,61.48,0,2-1.13,4.91-2.65,5.75s-4.84.51-6.35-.65c-29-22.17-58.11-44.22-80.81-73.3-12.44-15.93-22.46-33.23-25.11-53.59-2.72-20.84-.2-41,12.58-58.57,11.11-15.3,26.85-22,45.28-23.93,26.37-2.73,43,11.25,56,31.78a7.59,7.59,0,0,1,1.11,3.74c.1,8.16.06,16.33,0,24.49,0,3.29-1.47,5.58-4.95,5.63s-5.6-1.94-5.64-5.57c-.08-5.5-.33-11,0-16.49.33-4.66-1.19-8.25-4-11.83-6-7.65-12.09-15.25-21.72-18.49-22.18-7.46-57,.78-66,35.68-6.65,25.87-.39,49,14,70.57s33,38.74,52.63,55.07C108,200.74,116.11,207,125.1,214.23Z"/></svg>