<svg id="Capa_1" data-name="Capa 1" xmlns="http://www.w3.org/2000/svg" viewBox="0 0 290 303.27"><defs><style>.cls-1{fill:#1a5276;}</style></defs><path class="cls-1" d="M256.46,251.19c9.57,9.46,19.25,18.93,28.83,28.52,4.83,4.83,5.95,10.67,3.34,16-4.1,8.33-14.55,10.12-21.49,3.42-8.63-8.33-17-16.91-25.49-25.41-1.21-1.22-2.26-2.61-3.55-4.11l-9.82,5.49c10.29,4.09,17.84,10.45,22.43,19.9a8.34,8.34,0,0,1,.42,6.15c-1.35,3.16-5.81,2.82-7.46-.7-7.64-16.27-22.25-19.34-37.87-19.83-9-.28-17.94-.4-26.56-3.48-3.08-1.1-6-2.57-4.61-6.32s4.35-3.13,7.54-2.1c33.58,10.81,67.42-8.47,75.3-42.83,8.66-37.76-25.39-74.21-63.87-69-27.31,3.68-51.26,27.34-50.4,59,.43,15.81,6.69,29.33,18.2,40.3.69.65,1.41,1.26,2.11,1.9,2.13,2,2.84,4.31.81,6.65s-4.59,2.07-6.64,0c-3.64-3.7-7-7.64-10.64-11.37-.87-.9-2.33-2.11-3.27-1.92-9.49,1.85-17.66-1.75-25.76-5.84-.81-.41-1.63-.79-3.29-1.58,0,4.12.06,7.65,0,11.18-.2,10.8-7.23,18.88-17.82,20.59-13.37,2.15-26.75,4.26-40.1,6.55A30.11,30.11,0,0,0,34,299c-1.49,2.91-3.21,5.47-6.88,3.53s-2.49-4.92-1-7.73c6.94-13.26,18.28-19.88,32.78-21.95,11.85-1.7,23.66-3.69,35.48-5.57,7.56-1.2,11-6,11.87-13.58,1.2-10.58-1.24-18.61-10.94-24.47C90.06,226,86,220.82,81,216.16c-6.59,5.55-14.53,9.41-23.53,9.7-6.2.19-12.48-.85-18.66-1.77-2.77-.42-5.13-2.29-4.11-5.66s3.74-3.55,6.9-2.74c13.85,3.54,25.15,1.14,34.12-7.16-2.15-4.44-4.21-9-6.6-13.37-.53-1-2.17-1.55-3.41-1.84-19.13-4.52-30.52-20.16-28.83-39.71a5.42,5.42,0,0,1,.28-2.33c4-6.35,1.63-13.06,1.37-19.7-1.58-40,13.57-71.19,49-91.31,14.11-8,28.77-8.4,43.52-1.43.69.33,1.41.59,2.83,1.18,0-7.62,0-14.78-.06-21.93A3.47,3.47,0,0,0,132.33,16c-13-9.84-32-9.3-44.16,1.63a24,24,0,0,1-15.62,6.55C58.83,24.87,48.48,33.6,44.48,47a20.83,20.83,0,0,1-8,11.28C26.16,66,22.14,76.48,24.33,89.07c1.21,7-.18,12.47-5.21,17.65a35.64,35.64,0,0,0-1.07,48.93c5.42,6.11,6.93,12.2,3.85,19.89-3.83,9.55-2.47,18.9,3,27.57,1.74,2.79,3.24,5.58-.13,7.78-3.67,2.4-5.8-.42-7.54-3.24-6.83-11-8-22.8-3.76-34.92,1.55-4.43,1.15-7.57-2-11.13a44.73,44.73,0,0,1,1.15-61c2.87-3,3.66-5.78,2.94-10.09-2.61-15.73,2.46-28.79,14.91-39a17.87,17.87,0,0,0,5.46-7.76C41.53,26.63,55.6,15.86,73.61,15a12,12,0,0,0,6.71-2.68C97-1.88,114.91-3.89,134,6.74a8.11,8.11,0,0,0,8.81,0c19-10.63,37.13-8.57,53.71,5.65A11.93,11.93,0,0,0,203.26,15c18.24.84,32,11.5,37.7,29.17a13.88,13.88,0,0,0,4.32,6.42C258.56,61,264.1,74.39,261.22,91c-.66,3.85,0,6.61,2.77,9.34,7,6.87,10.72,15.45,12.45,25,.56,3.09.12,5.89-3.57,6.51s-5-2-5.43-5a35.47,35.47,0,0,0-10.64-21.11c-4.38-4.36-5.72-9.52-4.47-15.59,2.63-12.79-1.25-23.43-11.53-31.4a22.91,22.91,0,0,1-8.61-12.49C228.58,33.31,217,24.52,203,24a19.79,19.79,0,0,1-13.16-5.44C176.68,6.73,159,5.74,144.64,15.9A3.82,3.82,0,0,0,143,18.39c-.13,7.05-.08,14.11-.08,20.87,6.87-1.75,13.28-4,19.87-4.89,10.18-1.31,19.67,1.7,28.45,6.86,27.47,16.14,43,40.21,46.42,71.72,1,9.29-.29,18.82-.4,28.24a25.75,25.75,0,0,0,.89,5.88c.46,2,1.35,3.88,1.7,5.87,1.45,8.16,1.4,8.17,8.21,13.85A38.45,38.45,0,0,0,263.88,150c.42-.84.79-1.71,1.15-2.59,1.14-2.76,2.85-4.77,6.11-3.41,3.53,1.47,3.09,4.25,1.92,7.15a45.88,45.88,0,0,1-13.52,18.53c-1.69,1.4-3.46,2.71-5.31,4.15C271.1,198.91,272,224.54,256.46,251.19ZM48,136.38c3.1-.74,5.65-1,7.9-2A5.22,5.22,0,0,0,58.67,131c2.08-17,10.08-31,21.86-43,2.21-2.26,4.74-3.7,7.35-1.09s1.25,5.08-1,7.38c-15.24,15.61-22.83,33.83-18.48,55.87,2.68,13.58,4.17,27.65,8.92,40.5,9.18,24.82,29.4,39.44,52.47,50.37,3,1.41,6.64,1.38,9.69,2-2.13-10.13-4.15-19.7-6-28.47-4.86-.8-10-1.37-14.94-2.56-3-.72-5.17-3-3.74-6.4,1.29-3.07,3.84-2.84,6.81-2a33.1,33.1,0,0,0,9.73,1,5.19,5.19,0,0,0,3.91-2.62,117.5,117.5,0,0,0,3-11.56c-4.16-.93-8.3-1.4-12-2.9-1.54-.62-2.19-3.44-3.25-5.26,1.87-1,3.67-2.59,5.63-2.8s4.28,1.34,6.41,1.29c3-.07,7.11.17,8.87-1.59,6-6.06,11.22-12.94,16-18.62-1.38-2.32-4.35-5-3.91-7,1.08-4.74,5.09-2.65,8.53-2.34a89.51,89.51,0,0,0,15.26-.32c2.78-.22,5.47-1.6,8.25-1.9,6.83-.74,13.68-1.16,20.79-1.73.17-1.31.37-2.69.51-4.08,3.58-36.91-31-67.76-65.25-71-13.91-1.32-26.88,2.14-39.1,8.71-2.72,1.47-5.59,2.1-7.36-1.19s.41-5.3,3.23-6.6c4.28-2,8.47-4.29,12.94-5.68,6.42-2,13.05-3.33,20-5.06,0-2.9.18-6-.09-9.16a5.11,5.11,0,0,0-2-3.31c-9.48-6.58-20-8.72-31-5.32C85.3,49.22,73.45,59.28,64,72.16,50.09,91.24,45.31,112.71,48,136.38Zm182.05.25c-.63-10-.29-19.51-2-28.69-4.86-26.39-19-46.58-42.66-59.75-11.37-6.33-23-6.49-35-1.62-5.64,2.3-8.44,5.53-7.65,12,.4,3.29,1.08,4.63,4.47,5,31.38,3.32,66.63,30.15,71.11,67.56a4.75,4.75,0,0,0,2.48,3.22C223.23,135.33,225.91,135.68,230,136.63ZM58.17,143.34c-6.4.41-11.09,4.3-12.39,10.24-2.75,12.51,6.51,26.91,19.49,29.91ZM258,278c5.35,5.18,10.14,10.19,15.39,14.65,1.27,1.07,4.54,1,6.06.13,1-.57,1.28-4.5.34-5.57-4.7-5.41-9.91-10.37-15-15.49Zm-6.59-19-6,5.17,6.23,6.64,6.14-5.13Zm-33.73-115.5c.6,2.4.46,5.66,1.8,6.46,3.36,2,7.38,2.9,11.38,4.34C229.11,147,225.29,143.73,217.72,143.41Z"/><path class="cls-1" d="M201,262.91c-26.6.3-48.7-21.59-49-48.55-.32-26.45,21.83-49,48.46-49.27,26.42-.29,49.05,21.94,49.35,48.47C250.14,240.42,228.2,262.61,201,262.91Zm-8.16-88c-15.82,4-26.28,13.43-30.49,28.79-3.34,12.19-1.27,23.85,6.66,34.17,12.52-8.32,12.52-8.32,12.89-22.55,0-.31-.13-.74,0-.93,1.36-1.65,2.76-3.26,4.15-4.89,1.47,1.54,3.89,2.9,4.24,4.66.74,3.82.39,7.84.53,11.78a12,12,0,0,1-5.32,11c-3.42,2.43-6.68,5.09-10.09,7.71,13.32,11,36,12.45,45.32,3.06-2.75-3.22-5.47-6.48-8.27-9.68-2.19-2.5-3.63-5.26-.53-7.75,2.82-2.26,5.24-.53,7.26,1.88,3,3.58,6.07,7.07,9.12,10.61,9.93-9.5,14.45-23.5,11.47-35-4.54-.82-9.67-3.25-13.68-2s-6.93,6.09-10.32,9.37c-.11.11-.2.33-.32.34-2.23.25-4.46.47-6.69.71,0-2.13-.86-4.72.06-6.28,2-3.35,4.86-6.17,7.35-9.22a11.24,11.24,0,0,1,11.34-4.23l9.33,1.65c-4.56-13.36-21.3-24.67-34.21-23.2,0,.84-.06,1.76,0,2.67.51,6.92,1,13.83,1.58,20.74.23,3.05-.75,5.58-4,5.84s-4.58-2.21-5-5.16c-.18-1.47-.3-2.95-.5-5-3.23,1.81-5.8,3.81-8.71,4.67-1.63.47-4.77-.4-5.48-1.66s.13-4.24,1.3-5.62c1.43-1.71,3.89-2.57,5.93-3.76C194.76,183.57,194.77,183.58,192.88,175Z"/><path class="cls-1" d="M124,134a21.84,21.84,0,0,1-3.28-.76c-9.47-4.35-19-3.07-28.61-.49-1.36.37-2.93,1.18-4.08.8-1.69-.55-4-1.77-4.36-3.12s1-4.38,2.29-4.83c12.58-4.43,25.37-6.5,38-.41,1.57.76,2.74,3.5,3,5.46C127,131.72,124.8,133.07,124,134Z"/><path class="cls-1" d="M170.05,129.7c-4.35,1.08-8.92,2.09-13.4,3.39-2.83.81-5.48,1.22-6.8-2s.5-5,3.32-6.22c12.67-5.63,25.25-3.69,37.66.69,1.29.45,2.82,4.2,2.23,5.15a6.83,6.83,0,0,1-5.51,2.66C181.83,132.59,176.21,131.05,170.05,129.7Z"/><path class="cls-1" d="M104.56,161.76c-4.5-1-8.91-1.58-12.93-3.14-1.55-.61-3.27-3.57-3.09-5.26.3-2.82,2.85-3.87,5.76-2.85a30.53,30.53,0,0,0,20.74,0c2.92-1,5.47.05,5.77,2.86.18,1.7-1.55,4.69-3.11,5.27C113.52,160.21,109,160.79,104.56,161.76Z"/></svg>