<svg id="Capa_1" data-name="Capa 1" xmlns="http://www.w3.org/2000/svg" viewBox="0 0 298.47 319.97"><defs><style>.cls-1{fill:#1a5276;}</style></defs><path class="cls-1" d="M211.06,157.33v5.8q0,61.74,0,123.48C211.05,297,208,300,197.67,300H33.7c-10.11,0-13.32-3.26-13.32-13.54V66.53c0-10.44,3.24-13.62,13.76-13.64q10.76,0,21.5-.09a5.31,5.31,0,0,0,1.24-.41V42.68c-1.69-.08-3.44-.25-5.2-.25q-16.76,0-33.5,0c-8.71,0-8.73,0-8.73,8.5q0,55.24,0,110.48c0,1.5.5,3.33-.18,4.42-1.08,1.74-2.95,4.11-4.49,4.11s-3.26-2.45-4.48-4.12c-.56-.77-.13-2.27-.13-3.43q0-57,0-114C.16,37.74,5,33,15.76,32.94c13.65,0,27.29,0,40.85,0,2-9.8,4.79-12,14.75-12,2,0,4-.16,6,0,7.2.7,12.45,0,16.13-8.36C97.67,3.1,107.23-.69,117.69.1c10.64.81,18.59,6.23,22.6,16.28,1.5,3.76,3.45,5,7.3,4.64s7.66-.08,11.49-.07c9.29,0,12.22,2.44,13.8,12h5.25c13.16,0,26.33-.07,39.49,0,8.36.07,13.69,5.48,13.77,13.82.09,9.16.45,18.36-.12,27.48-.38,6.09,4.87,6.45,7.79,9,.69.62,3.77-.82,5.33-1.91,13.66-9.49,29-10.08,40.45-1.4,12.32,9.34,16.92,26.92,11.2,43a56,56,0,0,1-14.61,22.38c-12.18,11.36-24.59,22.47-36.88,33.71-2.82,2.58-5.54,2.72-8.37.1-1.21-1.12-2.45-2.19-4.77-4.26V181q0,61.49,0,123c0,11.42-4.61,16-16,16H15.9C4.79,320,.16,315.33.16,304.2q0-56.73,0-113.47c0-1.34-.44-3,.18-3.93,1.06-1.59,2.78-3.73,4.28-3.78s3.54,1.89,4.53,3.47c.76,1.22.29,3.24.29,4.9q0,55.74,0,111.48c0,7.32.56,7.86,8,7.86H213.93c7.73,0,8.12-.4,8.12-8.25,0-41.83-.31-83.66.24-125.47C222.41,167.85,219.59,161.83,211.06,157.33ZM30.31,290.41H201.13a16.4,16.4,0,0,0,.34-2.3q0-68.73-.08-137.48c0-1.85-1.42-3.84-2.55-5.53-4.3-6.47-9.77-12.38-13-19.35-8.64-18.88-1.91-39.68,13.5-48.21a4.31,4.31,0,0,0,2-2.93c.23-3.92.09-7.87.09-12.28-9.63,0-18.59,0-27.56.08a4.06,4.06,0,0,0-2.68,1.76c-2.62,3.85-6.22,5-10.75,5-15-.16-30-.12-45,0-3.55,0-6.82-.61-6.8-4.68s3.38-4.69,6.87-4.67c14,.06,28,0,42,0h5.3V30.5c-7.55,0-14.71-.1-21.86,0-4.59.09-7.29-1-8-6.42A17.42,17.42,0,0,0,115.53,9.23c-8.14.15-15.89,6.19-16.84,14.35-.69,5.86-3.57,7.1-8.62,7-7.62-.19-15.24-.05-23.07-.05V59.8c7.68,0,15,0,22.28,0,3.42,0,6.83.36,6.9,4.58S93,69.17,89.5,69.11c-6-.11-12-.17-18,0-5.39.17-10.38-.19-13.3-5.69a2.17,2.17,0,0,0-1.58-1c-8.74-.07-17.47,0-26.31,0ZM240.12,170.63c13-12.14,25.67-23.42,37.71-35.31,6.49-6.42,10.1-14.7,11.1-24,1.92-17.85-12.22-31.63-28.63-27-5.52,1.55-10.6,5.37-15.28,8.94-3.64,2.77-6,2.93-9.48-.1a46.56,46.56,0,0,0-11.1-7.43C209.78,79,195,87.09,192.15,103c-2,11.29,1.06,21.65,8.6,29.61C213.17,145.7,226.69,157.76,240.12,170.63ZM222.05,74c0-8.61-.13-17.22,0-25.81.09-4.39-1.85-5.84-6-5.79-11.63.14-23.26.05-34.89.05H172.7V52.89c9.18,0,18.1,0,27,0,7.24,0,11,3.72,11.3,11,.12,3.25,0,6.52,0,10.11Z"/><path class="cls-1" d="M103.83,123.45c-2.8,5.8-5.24,11-7.85,16.2-2.88,5.73-7,6.37-9.82.74-5.06-9.91-12.58-13-23-11.33a25.9,25.9,0,0,1-9.93-.15c-1.84-.44-3.19-2.94-4.77-4.51,1.52-1.49,3-4.19,4.56-4.26,9.14-.41,18.32-.33,27.47-.07,1.5,0,3.22,1.54,4.37,2.79a80.57,80.57,0,0,1,5.3,7.14c3.22-6.6,5.93-12.75,9.2-18.58,1.23-2.17,3.77-3.6,5.72-5.37,1.71,2,4.07,3.8,5,6.15,3.31,8.15,6.13,16.49,9.14,24.76a13.08,13.08,0,0,0,1,1.54c2.14-4.71,4.32-8.93,6-13.35,1.43-3.83,3.68-5.39,7.84-5.33,13.32.2,26.65.12,40,.05,3.51,0,6.76.51,6.74,4.72s-3.36,4.61-6.83,4.59c-11.82-.09-23.65,0-35.47-.09-2.7,0-4.16.72-5.22,3.37-2.58,6.48-5.32,12.92-8.49,19.12-1,2-3.47,4.34-5.49,4.58-1.4.16-3.89-2.72-4.7-4.72-3.3-8.15-6.14-16.5-9.17-24.76C105,125.79,104.53,125,103.83,123.45Z"/><path class="cls-1" d="M78.09,179.21c7.66,0,15.32,0,23,0,3.53,0,6.76.9,6.67,5s-3.28,4.82-6.83,4.8q-22.74-.09-45.48,0c-3.48,0-6.77-.67-6.89-4.71-.12-4.49,3.47-5,7.06-5C63.1,179.23,70.59,179.21,78.09,179.21Z"/><path class="cls-1" d="M153.25,179.21c7.47,0,14.94,0,22.42,0,3.59,0,7.27.5,7.34,4.77s-3.42,5-7.12,5q-22.66-.1-45.34,0c-3.53,0-6.72-.83-6.84-4.78s3.11-5,6.62-5C138,179.23,145.61,179.21,153.25,179.21Z"/><path class="cls-1" d="M78.24,209.08c7.66,0,15.32.07,23,0,3.4,0,6.38.89,6.54,4.55.18,4-3,5.12-6.5,5.12-15.48,0-31,0-46.45,0-3.27,0-6.3-1-6.28-4.82s2.84-4.83,6.25-4.81C62.59,209.11,70.42,209.08,78.24,209.08Z"/><path class="cls-1" d="M153.77,209.08c7.67,0,15.33,0,23,0,3.46,0,6.27,1.2,6.27,4.83s-3,4.81-6.35,4.81q-23.25,0-46.49,0c-3.29,0-6.4-.92-6.49-4.66-.11-4.05,3-5,6.57-5C138.11,209.13,145.94,209.08,153.77,209.08Z"/><path class="cls-1" d="M78.28,239c7.82,0,15.63.08,23.45,0,3.29,0,5.87,1.07,6,4.46.17,3.84-2.69,4.86-6.09,4.85q-23.44,0-46.88,0c-3.28,0-6.35-.68-6.27-4.65s2.94-4.68,6.33-4.64C62.66,239,70.47,239,78.28,239Z"/><path class="cls-1" d="M153.7,239c7.66,0,15.31.08,23,0,3.44,0,6.32,1,6.39,4.64s-3,4.68-6.31,4.67q-23.46,0-46.92,0c-3.4,0-6.29-1-6.12-4.85.14-3.39,2.76-4.5,6-4.46C137.73,239.05,145.72,239,153.7,239Z"/><path class="cls-1" d="M245.53,128.93c-1.37,4.06,1.82,10.79-5.05,10.91-7.26.12-4.14-6.83-5.58-11.24-2.09-.11-4.57.3-6.55-.51-1.8-.75-3.06-2.82-4.57-4.31,1.59-1.59,2.93-3.74,4.85-4.59s4.17-.16,6.17-.16c1.64-4.39-1.6-11.44,5.38-11.53,7.22-.1,4,6.93,5.29,10.94,3.66,2,11.3-2.23,11,5.54C256.3,130.84,249.35,127.06,245.53,128.93Z"/></svg>