<svg id="Capa_1" data-name="Capa 1" xmlns="http://www.w3.org/2000/svg" viewBox="0 0 230 277.19"><defs><style>.cls-1{fill:#1a5276;}</style></defs><path class="cls-1" d="M79.87,269.1V227.4H13.94c-1.3,0-2.83.4-3.84-.15-1.58-.87-4.08-2.6-3.91-3.57.28-1.66,2.15-3.28,3.72-4.38.88-.62,2.52-.19,3.82-.19h38V187c-8.5,0-16.95.19-25.4-.08A63.31,63.31,0,0,1,14,185.12c-2.89-.68-5.09-2.75-3.78-6.08s3.85-2.57,6.57-1.63A22.78,22.78,0,0,0,24,178.73c17.75.12,35.5,0,53.25.14,6.7.06,11.27-2.55,13.9-8.81,1.5-3.58,3.78-6.85,5.09-10.49,1.84-5.14,5-7.09,10.46-6.62,5,.44,6.2-1.23,5.51-6.45-3.92,0-7.94-.2-11.91.11-1.36.11-2.83,1.3-3.91,2.35-4.44,4.32-8.47,9.13-13.24,13a17.55,17.55,0,0,1-9.57,4c-10.8.5-21.65.31-32.46.07a7.47,7.47,0,0,1-5.23-2.7c-.66-.9.4-3.37,1.16-4.91a42.5,42.5,0,0,1,3.8-5.35L20,140.57C15.68,149,7.83,155.18,7.52,165.48c0,1.25-2.61,3.44-3.88,3.35S-.14,166.31,0,165.16c.55-4.47.9-9.49,3.18-13.15,10.5-16.89,21.58-33.42,32.56-50,4.13-6.24,10.39-8.37,17.57-8.38,9.93,0,19.86,0,30,0,.56-3.56.34-5.9-2.66-8.47s-4.39-7.49-7.48-10.24-7.65-3.29-10.85-5.76c-5.07-3.92-6.33-9.66-5.6-16,.7-6,1.46-11.95,1.6-17.93C58.74,19,68.11,6.17,83.6,1.32A19.05,19.05,0,0,1,89.07.19c10.52,0,21.14-.7,31.52.55,16.07,1.94,28,16.22,28.88,32.51.39,7,1,14,1.79,21C152.2,63,147,70.84,137.59,73.7a7,7,0,0,0-4.76,4.21,19.49,19.49,0,0,1-5.42,7.1c-3.09,2.3-3.71,4.77-2.57,8.61,8.63,0,17.39-.12,26.15.06a31.84,31.84,0,0,1,9.33,1.44c7.48,2.53,10.85,8.72,12.43,15.9.3,1.36-1.27,4.16-2.54,4.58s-4.54-1-4.77-2.1c-2.46-11.29-10.53-12.33-19.9-11.64-4,.29-8,0-11.91,0-7.46,17.07-16.88,23.62-32.55,22.83-11.87-.59-22.13-9.26-26.47-22.6-8.49,0-17.11-.28-25.7.19-2.18.12-4.88,2.19-6.24,4.14-6.18,8.85-12,18-18.08,27.31l21.16,12.8c2.09-2.75,3.82-5.61,6.13-7.88,1.42-1.4,4.14-3,5.52-2.5s2.63,3.47,2.77,5.44c.38,5.27.13,10.6.13,16.28,5,0,9.6.19,14.16-.11,1.36-.09,2.82-1.33,3.9-2.38,4.15-4,8.26-8.08,12.19-12.3a13.54,13.54,0,0,1,11.11-4.7c3.46.16,6.93,0,10.39,0,6.9,0,8.61,1.68,8.91,8.61,0,.55.12,1.1.23,1.93h20.88c0-3.09-.08-6.07,0-9,.09-2.69,1-5,4.18-4.94s4,2.3,4,5.06V149h27.14c-1.61-4.84-3.13-9.4-4.66-14-.36-1.09-.76-2.17-1.14-3.26-.9-2.59-.3-4.68,2.41-5.53s4.38.46,5.27,3.06c1.82,5.32,3.72,10.6,5.59,15.89.23.64.51,1.26,1,2.49,3.53-3.16,6.72-6,9.89-8.85q6.9-6.23,13.78-12.51c5.56-5,9.48-5.67,14.16-2.23,5.78,4.24,7.84,10.72,5,16.75-2.15,4.55-4.87,8.84-7,13.39a37.51,37.51,0,0,0-3,8.9c-1.41,7.63-6.39,13.4-13.82,14.84-2.42.47-4.1.91-5,3.55-.57,1.6-2.43,2.73-4.08,4.47,2.11,6.51,4.46,13.42,6.58,20.4,2.76,9.11-2,18.05-10.81,20.45-8.61,2.36-17.09-2.62-19.71-11.65q-3-10.59-5.93-21.22a7.09,7.09,0,0,0-4-4.83c-2.8-1.53-4.57-4.93-6.79-7.52l.79-1-5.63.44v4.24c0,9.67.1,19.35,0,29a55.68,55.68,0,0,0,3.14,20.19c7.27,20.22-7.92,42.22-29.46,42.46-37.52.41-75,.13-112.57.15-3,0-5.41-.92-5.36-4.2s2.71-3.84,5.58-3.84q31.4.07,62.78,0Zm8.49-.12c12.35,0,24.2.67,35.94-.16,16.1-1.15,26.65-16.15,21.5-31-4.44-12.88-10.6-25.17-16.21-37.63-.43-.95-2.53-1.59-3.87-1.62-6.78-.16-13.55-.07-20.33-.07h-15c2.06,7.33,3.91,14,5.78,20.58,1,3.68-.59,6.17-3.7,7.78a17.85,17.85,0,0,1-4.16,1ZM125,190.35c-4.09-12.52-1.67-15.78,11.38-16.44,5-.25,10.05-1.12,15.08-1.34,3.32-.14,5.65-.88,7.85-3.83,1.61-2.16,4.88-3.62,7.67-4.24,6-1.34,12.23-1.89,18.35-2.88,5.6-.92,10.25.94,13,5.68,2.24,3.88,5.21,3.45,7.43,1.56s3.68-5.17,5-8c1.23-2.68,1.53-5.79,2.79-8.45,2.33-5,5.41-9.57,7.44-14.62.69-1.71-.28-4.77-1.53-6.41-1.93-2.5-3.51.22-4.85,1.42-6.47,5.76-13,11.44-19.2,17.5-5.41,5.3-11.64,7.45-19.13,7.36-17.17-.2-34.35-.07-51.53-.06-3.85,0-7.69-.42-11.09,2.37-1.16,1-3.33,1.2-4.94,1-3.39-.43-4.73,1.28-6.1,4-4,7.88-6.42,16.94-15.91,20.83l1.77,4.58ZM86.88,30.92c-3.79,2-5.78,4.58-5.78,8.46,0,10.09-.12,20.19,0,30.28A11.64,11.64,0,0,0,92.91,81.5c7.35.17,14.71.15,22.06,0,5.75-.11,10.61-3.4,11-9,.7-9.37.2-18.83.2-28.58-5.49.73-10.91,1.3-16.28,2.2a18.37,18.37,0,0,1-19.2-8.6C89.44,35.5,88.28,33.36,86.88,30.92ZM141.3,42.13c0-3.17.24-6.06,0-8.9-1.49-14.91-12.35-25-27.37-25.31-6.49-.16-13-.12-19.48,0-18.66.3-31,15.77-27.42,34.34l4.55.66c2-5.33,2.92-10.88,5.91-14.83,6.11-8,13.42-7,18.25,1.78.48.88,1,1.76,1.46,2.65,2.23,4.07,5.6,6.14,10.29,5.62,5.16-.57,10.3-1.23,15.44-1.89,7.93-1,9.4-.24,12.5,6.89Zm-49.49,48c-.75,10.87-.75,10.87-8,12.19,1.6,7.81,10.4,14.28,19.66,14.44,9.57.16,18.64-6.23,20.54-14.46-6.74-1.16-6.74-1.16-8.41-12.17ZM60.48,219H87.66c-2.86-10.33-5.62-20.41-8.52-30.44a2.89,2.89,0,0,0-2.22-1.46c-5.42-.12-10.85-.07-16.44-.07Zm112.45-30.08c2.23,8,4.29,15.48,6.37,22.93.15.55.33,1.1.53,1.64,1.68,4.51,5.56,6.61,9.88,5.37,3.64-1.05,6.34-4.93,5.24-8.74-2.25-7.8-5-15.46-7.57-23.38Zm19.85-11.28c-.66-7.39-2.44-8.82-8.78-7.73-4.66.8-9.33,1.6-14,2.36-5.77.94-7.1,3.59-4.53,9.48Zm-51.85,27.69.81-.15v-23.5L131,182.83C134.49,190.68,137.71,198,140.93,205.28ZM73.17,65.47c0-3.59.42-7.21-.2-10.63-.27-1.5-2.52-3.2-4.19-3.66-.94-.25-3.26,1.58-3.69,2.9C63.35,59.38,67,64.49,73.17,65.47Zm61.57.06c6.1-1.17,9.59-5.88,8.06-11.09C142.38,53,140.06,51,139,51.21c-1.6.31-3.8,2.18-4.06,3.69C134.32,58.33,134.74,61.93,134.74,65.53Z"/></svg>