<svg id="Capa_1" data-name="Capa 1" xmlns="http://www.w3.org/2000/svg" viewBox="0 0 301.22 285"><defs><style>.cls-1{fill:#fff;opacity:0.5;}</style></defs><path class="cls-1" d="M228.13,275.06h9.57V123.76h54.54v150.7c1,.5,1.32.75,1.61.75,3.7.05,7.62.43,7.36,5.26-.25,4.5-4.12,4.42-7.59,4.41H8c-1,0-2.29.36-2.95-.12a56.74,56.74,0,0,1-5-4.54,49.47,49.47,0,0,1,4.85-4.76c.76-.57,2.22-.21,4.09-.32V123.68H63.5V275h9.4V37.86H228.13ZM161.3,88c3.44-.28,8.3.71,10.63-1.27,2.16-1.83,1.77-6.83,2.22-10.47,1.46-11.85-8.29-6.39-12.61-8.07-3.6-4.31,3.34-12.89-6.51-13.53-4.08-.26-9.7-1.12-11.95,1.06-2.56,2.47-2.13,8-3,12C136.21,70.65,128,64,127.3,73.53c-.31,4.08-1.13,9.68,1,12,2.43,2.56,8,2.15,12.64,3.14,0,2.58,0,5.39,0,8.2.07,3.66,2.19,4.9,5.59,4.64,4.08-.32,9.57.9,11.89-1.27C160.94,97.9,160.44,92.39,161.3,88Zm-22.78,102c0,4.33.1,8.66,0,13-.1,3.54,1.45,5.31,5,5.32,4.83,0,9.65,0,14.48,0,3.18,0,4.93-1.46,4.91-4.87-.05-8.81-.08-17.63,0-26.45,0-3.35-1.48-5-4.73-5-5,0-10,0-15,0-3.28,0-4.77,1.73-4.67,5C138.61,181.28,138.52,185.61,138.52,189.93Zm-21.94.31c0-4.33-.12-8.65,0-13,.13-3.87-1.72-5.44-5.4-5.41-4.49,0-9,.08-13.46,0-3.7-.08-5.6,1.47-5.59,5.28,0,8.64,0,17.28,0,25.92,0,3.44,1.61,5.25,5.17,5.21,4.65-.05,9.31,0,14,0,3.77,0,5.42-1.78,5.29-5.55C116.48,198.55,116.58,194.39,116.58,190.24Zm92.61,0h0c0-4.49,0-9,0-13.47,0-3.22-1.59-4.92-4.9-4.91-4.82,0-9.64,0-14.46,0-3.47,0-5.1,1.64-5.05,5.24q.15,13,0,25.92c0,3.59,1.66,5.2,5.12,5.21,4.65,0,9.31-.06,14,0,3.85.06,5.39-1.92,5.36-5.55C209.16,198.55,209.19,194.4,209.19,190.25ZM116.58,139c0-4.32-.1-8.64,0-12.95.12-3.77-1.53-5.57-5.28-5.55-4.65,0-9.3,0-14,0-3.51,0-5.19,1.72-5.19,5.18q0,12.94,0,25.89c0,3.42,1.33,5.24,5.06,5.1,4.64-.17,9.3-.19,13.94,0,4.21.18,5.61-1.79,5.44-5.73S116.58,143,116.58,139Zm21.94-.29c0,4.31.09,8.63,0,12.95-.1,3.62,1.52,5.1,5.1,5,4.82-.13,9.64-.1,14.45,0,3.37.07,4.84-1.42,4.82-4.78q-.1-13.2,0-26.41c0-3.35-1.65-4.9-4.84-4.93-4.82-.06-9.64,0-14.46,0-3.47,0-5.15,1.67-5.06,5.24C138.6,130.08,138.52,134.4,138.52,138.72Zm70.64-.06h0c0-4.34,0-8.67,0-13,0-3.49-1.76-5.18-5.27-5.14-4.67,0-9.34,0-14,0-3.47,0-5.17,1.61-5.14,5.21.09,8.67.07,17.34,0,26,0,3.3,1.3,5,4.73,4.91,5-.07,10-.1,15,0,3.22.08,4.6-1.51,4.64-4.5C209.2,147.66,209.16,143.16,209.16,138.66Zm-46.31,102.8c0-4.32-.08-8.64,0-13,.09-3.49-1.25-5.29-5-5.2q-7.23.18-14.46,0c-3.68-.09-5,1.68-5,5.18.1,8.65.08,17.29,0,25.93,0,3.6,1.7,5.12,5.19,5.08,4.66-.06,9.31-.07,14,0,3.86.07,5.33-1.86,5.22-5.56C162.75,249.78,162.85,245.62,162.85,241.46Zm-46.27.43c0-4.66,0-9.31,0-14,0-3.05-1.4-4.62-4.53-4.6-5.15,0-10.3.07-15.45,0-3-.05-4.32,1.57-4.35,4.26q-.12,13.69,0,27.41c0,3,1.69,4.52,4.76,4.5,5,0,10,0,14.95,0,3,0,4.61-1.55,4.61-4.62C116.58,250.52,116.57,246.2,116.58,241.89Zm68.21-.92c0,4.49,0,9,0,13.46,0,3.24,1.36,5,4.7,5,5,0,10,0,15,0,3.09,0,4.67-1.62,4.69-4.57q.1-13.71,0-27.41c0-2.72-1.46-4.23-4.42-4.18-5,.09-10,.1-15,0-3.67-.07-5,1.73-5,5.21C184.86,232.66,184.79,236.82,184.79,241ZM46.38,248.53h0c0-3,.1-6,0-9-.14-3.49-2.1-6-5.54-5.81-4.81.25-10.58-2.52-14,3.45a4.09,4.09,0,0,0-.26,2c0,6.16,0,12.32,0,18.48,0,3.46,1.92,5.48,5.14,5.55,12.62.27,15.4,1.55,14.74-12.64C46.35,249.86,46.38,249.19,46.38,248.53Zm228.49-.14c.21-14.63,1.21-15.1-13.52-14.8-4,.09-6.25,2.17-6.32,6.18q-.15,8.74,0,17.49c.06,3.47,1.91,6.08,5.43,5.86,4.81-.31,10.59,2.61,14.07-3.29a6.41,6.41,0,0,0,.33-2.94C274.89,254.06,274.87,251.23,274.87,248.39ZM26.5,201.55c-.15,15.68-1.1,15.06,13.66,15,3.89,0,6-2,6.13-5.66a165.13,165.13,0,0,0-.1-17.94c-.15-1.89-1.88-4.61-3.55-5.27-10.14-4-16.14.22-16.14,10.9Zm248.37.26c.05-15,1.69-14.86-14-14.62-3.89.07-5.79,2.25-5.86,6q-.15,8.73,0,17.45c.06,3.14,1.54,6,4.9,5.72,4.95-.4,10.87,2.85,14.59-3.11.48-.75.31-1.94.33-2.93C274.89,207.46,274.87,204.64,274.87,201.81Zm0-46c.17-15.91,1.23-15.58-13.8-15.39-3.83,0-5.92,2.13-6,5.85-.15,6-.16,12,0,18,.09,3.48,2.07,5.54,5.7,5.59,14.18.18,14.45.8,14.11-12.51C274.86,156.82,274.87,156.32,274.87,155.82ZM26.5,154.94c0,15.18-1.74,15.14,13.71,14.9h.5c3.64-.16,5.46-2.23,5.61-5.7.16-3.65.06-7.32.06-11,0-12.74-.41-13.08-13.18-12.78-4.46.1-6.89,1.87-6.72,6.58C26.58,149.61,26.5,152.28,26.5,154.94Z"/><path class="cls-1" d="M151.19,0h84.54c7.2,0,8,.8,8,8.12,0,4.67-.07,9.34,0,14,.08,4-2,5.77-5.76,6-1.16.06-2.33,0-3.5,0q-83.77,0-167.56,0c-8.43,0-9.21-.77-9.21-9,0-3.83,0-7.66,0-11.5C57.71,1,58.61,0,65.16,0q32.76,0,65.53,0Z"/><path class="cls-1" d="M63.29,86.79v26.84c-1.51.13-2.81.34-4.1.34q-24.51,0-49,0c-6.52,0-7.54-1.1-7.56-7.51,0-5,.05-10,0-15,0-3.5,1.57-5.36,5.06-5.35q27.26,0,54.5.13C62.44,86.26,62.73,86.52,63.29,86.79Z"/><path class="cls-1" d="M238.08,113.86V86.43c1.54-.13,2.83-.34,4.12-.34q24.75,0,49.51,0c6.17,0,7,.89,7.05,6.88,0,5.17-.05,10.33,0,15.5.05,3.22-1.39,5.32-4.59,5.34C275.56,113.92,256.94,113.86,238.08,113.86Z"/></svg>