<svg id="Capa_1" data-name="Capa 1" xmlns="http://www.w3.org/2000/svg" viewBox="0 0 1249.25 494"><defs><style>.cls-1{opacity:0.51;}.cls-2{fill:#fff;}.cls-3{fill:#35aadf;}.cls-4{fill:#0e62a4;}.cls-5{fill:#37aadf;}.cls-6{fill:#1e61ab;}.cls-7{fill:#ed383f;}.cls-8{fill:#1d61ab;}.cls-9{fill:#ed373e;}.cls-10{fill:#2063ad;}.cls-11{fill:#2063ac;}.cls-12{fill:#1f61ac;}.cls-13{fill:#ed3940;}.cls-14{fill:#2364ad;}.cls-15{fill:#2666ae;}.cls-16{fill:#2465ad;}.cls-17{fill:#ed3a41;}.cls-18{fill:#ed393f;}.cls-19{fill:#2969b0;}.cls-20{fill:#2b6cb1;}.cls-21{fill:#ed353c;}.cls-22{fill:#1b5faa;}.cls-23{fill:#fac3c5;}</style></defs><g class="cls-1"><rect class="cls-2" width="1249.25" height="494" rx="28.41"/></g><path class="cls-3" d="M17.88,403.19c1.47-2.84,2.47-6.08,4.5-8.43,10.27-12,20.78-23.73,31.29-35.49,2.36-2.64,5.1-4.94,7.61-7.45a332.76,332.76,0,0,1,66.32-51.27A395.11,395.11,0,0,1,186.35,272c23.33-9,47.55-14.69,72.18-18.73a447,447,0,0,1,93.15-5.19c36.7,1.68,72.31,8.66,106.47,22.65a412,412,0,0,1,56.2,27.67,200.3,200.3,0,0,1,35.41,27.17,319.59,319.59,0,0,0,102.66,66c30,12.06,61.14,18.92,93.58,19.13,24.79.16,48.58-4.92,71.55-14.11,4.74-1.9,9.6-3.52,14.45-5.14a41.14,41.14,0,0,1,5.46-1c-.92,4.83-4.38,6.28-7.44,7.7-9.48,4.4-19,8.83-28.67,12.67-31.12,12.3-63.68,17.74-96.9,20.27a338.27,338.27,0,0,1-56.67-.34A232.18,232.18,0,0,1,592,418.14a339.24,339.24,0,0,1-75.6-37.81c-10.38-6.87-20.8-13.72-30.73-21.21-20.7-15.6-44.19-25.67-68-35A360.19,360.19,0,0,0,347,304.62a373.23,373.23,0,0,0-98.4-3.95A387,387,0,0,0,88.85,353c-16.27,9.68-32.19,19.88-46.55,32.28-5.21,4.5-10,9.51-15.15,14.08a73.17,73.17,0,0,1-7.49,5.18Z"/><path class="cls-4" d="M124.85,208.57H88.65c-1.22-4.38-1.83-120.23-.58-128.94h110V27.46H390.56V79.75H501.49V208.21H465.91c-.32-30.67-.64-61.22-1-92.56H355.13c-.35-17.61-.69-34.45-1-51.88H235.61c-.15,16.76-.3,33.74-.46,51.39H124.85Z"/><path class="cls-5" d="M286.34,319.8c5.86-3.2,10.85-2.54,15.6-2.07,46.25,4.62,91.49,13.61,133.86,33.56,16.06,7.57,31.76,16,47.24,24.69,21.51,12.09,42.43,25.2,64,37.16,35,19.43,72.4,31.37,112.63,34.23,28,2,55.5-.3,83-5,10.07-1.74,20.22-3,30.35-4.39a53.52,53.52,0,0,1,7.16-.05c1.34,5.94,1,7.23-3,8.8-19.63,7.74-39,16.29-59.46,21.67-26.3,6.89-53,8.77-80,6.94-43.4-2.94-82.84-17.64-119.67-39.9-14.24-8.61-28-18.14-41.45-27.9-18.22-13.16-36.54-26.15-56.21-37-29.64-16.38-60.21-30.75-92.82-40.23-11.07-3.22-22.48-5.25-33.71-7.91C291.65,321.81,289.53,320.89,286.34,319.8Z"/><path class="cls-6" d="M979.68,233.24H956.49V154.56c7,0,13.78-.19,20.58.15,1.37.07,2.64,2.18,4,3.42,13.78-7.16,26.28-8.65,41,4.33a36.45,36.45,0,0,1,26.1-9.57c12.49.27,22.2,7.76,25.19,19.86a32,32,0,0,1,1.15,7.24c.09,17.56,0,35.12,0,53.09h-23.11c-.14-1.71-.4-3.4-.4-5.08,0-13.8,0-27.59,0-41.39a32.15,32.15,0,0,0-.32-6,8.59,8.59,0,0,0-8.21-7.45c-5.42-.39-10.61.46-15.6,4v56h-22.78c-.15-1.67-.44-3.36-.44-5.05,0-13.79,0-27.59,0-41.38,0-12.35-7-16.91-18.31-12.1-3.82,1.63-5.84,4-5.74,8.6.29,14.23.1,28.48.1,42.72Z"/><path class="cls-7" d="M822.92,278.88c6.84-1.39,9.72-6.58,11.59-12.48,1-3.15,2.6-4.45,6.45-3.26v14.4h15.66c.15,2.42.25,3.92.39,6.23H841.47c0,11.9-.33,23,.11,34.11.3,7.45,5.92,9.78,12.06,5.6,1.21-.82,2.54-1.45,3.82-2.17,1.4-11.38,4.5-14.81,15.72-17.44,1.94-.46,3.9-.9,5.8-1.49,7.59-2.36,10.25-8.23,7.08-15.55-2.27-5.25-8-5.83-11.51-1.11-1.18,1.61-2,3.48-3.33,5a6.36,6.36,0,0,1-9.48.45,6.28,6.28,0,0,1,.23-9.43,13,13,0,0,1,4.55-2.7,36,36,0,0,1,25.42.69c6,2.45,9.15,6.59,9,13.32-.22,7.56,0,15.13,0,22.69,0,1.34,0,2.68.13,4,.56,5.33,2.2,6,6.72,2.71.51-.37,1.07-.67,2.14-1.33l3.63,4.62c3.32.34,5.34-1.58,5.41-4.93.21-10.43.27-20.87.09-31.3-.08-4.31-3.45-5.8-7-5.78-1-3,.09-3.95,2.26-4.23,5.27-.66,10.54-1.38,16.07-2.12l2.15,4.43a28.79,28.79,0,0,0,3-1.18,26.33,26.33,0,0,1,20-2.2c7.57,2.18,11.08,6.55,11.2,14.5.12,8.23,0,16.46,0,24.69,0,2.92-.13,6,3.1,7.48,4,1.86,8.24,2.38,12.1-.11a6.23,6.23,0,0,0,2.31-4.47c.23-10.22.24-20.44.15-30.66,0-3.26-1.85-5.26-5.23-5.95-.88-.18-1.51-1.62-2.25-2.48.8-.61,1.53-1.63,2.4-1.77,5.69-.89,11.42-1.59,17.65-2.42.2,2,.5,3.72.51,5.41,0,11.35.1,22.7,0,34,0,4.61.68,8.51,6.07,9.59,2.38.47,2.67,1.92,1.65,4.16H946c-.87-1.93-1.13-3.62,1.48-3.9,5.79-.62,7.14-4.43,7.11-9.4,0-7.78.15-15.58-.09-23.36-.22-7.32-2.94-10.26-9.18-10.77-6.81-.56-12.11,3-12.63,9.87-.69,9.07-.39,18.21-.32,27.32,0,2.95,1.76,4.89,4.75,5.69,1.91.51,4.14,1,2.79,4.81-3.55,0-7.47.23-11.35-.05-6.11-.45-12.37,1.39-18.36-1.18-.45-.19-1.25.3-1.83.6-7.18,3.71-13.71,2.77-19.72-3a23.46,23.46,0,0,1-15.38,5.14c-5.7-.21-10.4-2.07-13.94-6.63-6.77,7.6-15.07,7.6-23.88,5.39-2.09-.52-4.21-.95-6.32-1.43l0-2.47q-.3-21.34-.61-42.74l-6.82-.91C822.19,281.69,822.55,280.28,822.92,278.88Zm64.82,25.87c-6.55,3.15-11.58,5.46-14.65,10.38A7.06,7.06,0,0,0,875,325c2.91,2,6.69,1.26,9.22-2.07a9.69,9.69,0,0,0,2-4.08C886.91,314.62,887.2,310.31,887.74,304.75Z"/><path class="cls-8" d="M854.58,193.82c.1-24.26,16.36-39.31,38.85-40.66a58.36,58.36,0,0,1,19.08,1.9c18.7,5.27,29.2,21,28.14,40.93-.39,7.41-2,14.49-5.93,20.92-4.77,7.75-11.72,12.67-20.14,15.6a50,50,0,0,1-33.37.17C864,226.78,854.5,212.72,854.58,193.82Zm61.84,1.38c-.31-3.18-.33-5.2-.73-7.14-1.81-8.73-8.13-14.43-16.4-14.95-9.22-.57-16.15,3.9-19,12.43a25.87,25.87,0,0,0,.23,17.61c2.84,7.58,8.72,11.67,16.78,11.78,8.22.11,14.22-3.63,17.11-11.18C915.59,200.7,915.94,197.34,916.42,195.2Z"/><path class="cls-8" d="M686.15,233c-10.31,3.41-16.87,1.68-25.81-6.5-2.56,1.68-5.05,3.5-7.71,5a27.09,27.09,0,0,1-23.78,2c-7.91-3-12.44-9.11-13.65-17.49-1.3-9,1.21-16.78,8.66-22.45,7.74-5.87,16.8-7.84,26.27-8.36,2.4-.13,4.82,0,7.21,0,1.87-5.57-.72-9.41-4.49-11.74-7.81-4.82-14.92-.91-22.08,3.35l-11.29-12.5a37,37,0,0,1,16-9.56,45,45,0,0,1,22.42-.94c13.66,2.76,22.94,14.11,23.52,28.56.36,9.11.07,18.24.08,27.36,0,3.35-.17,6.71,3.42,8.77a3.75,3.75,0,0,1,1.21,2.79C686.23,225.29,686.15,229.26,686.15,233Zm-28.31-32.09c-6.73-1.41-12.73-.4-16.25,2.58-2.33,2-3.82,4.35-2.92,7.55a7.38,7.38,0,0,0,6.54,5.76c4.23.53,7.7-1.32,11-3.66,2.82-2,1.56-4.8,1.78-7.3A37.37,37.37,0,0,0,657.84,200.93Z"/><path class="cls-6" d="M1160.1,233.52c-10.5,2.47-18.83.52-25.75-7.31-5.63,5-11.83,8.56-19.51,9.08-11.34.78-21.29-5.44-25.13-16-3.32-9.1.56-19.84,9.5-26.31,7.5-5.42,16.11-7.26,25.13-7.73,2.19-.11,4.4,0,6.5,0,1.63-8.52-2.14-13.51-10-13.75-5.18-.16-8.08.77-15.84,5.12l-11.25-11.7c4.19-5.24,10-8.38,16.36-10.28,9.92-2.95,19.93-2.66,29.34,1.78,9.83,4.65,15.33,12.74,15.63,23.75.28,10,.11,20,.07,30,0,3.21.18,6.16,3.31,8.19a4.66,4.66,0,0,1,1.53,3.29C1160.22,225.44,1160.1,229.21,1160.1,233.52Zm-28.38-32.9a19,19,0,0,0-16.84,3.73c-3.58,2.77-3.47,7.41,0,10.23,3.67,3,7.69,2.87,11.82,1.09,3.84-1.65,6-4.28,5.39-8.75C1131.78,205,1131.83,203,1131.72,200.62Z"/><path class="cls-9" d="M754.07,326.47c-7.19,3.38-14.79,4.32-22.68,4.23-15.1-.17-30.2-.05-45.43-.05-.82-2.11-1.17-3.66,1.33-4.29,1.51-.38,3.38-.29,4.47-1.18a23.17,23.17,0,0,0,5-5.73c.75-1.19.64-3,.64-4.57,0-16.89.22-33.8,0-50.69-.13-8-1.41-9-9.37-11.26-1-.3-2.42-1.4-2.57-2.31-.33-2.1,1.43-2.39,3.1-2.38,15.35.09,30.7,0,46,.36,6.13.13,11.77,2.13,16,7,6.63,7.61,6.89,16.35.45,24.09a58.56,58.56,0,0,1-5.48,5.15c3.78,2.28,7.64,3.78,10.33,6.47s4.29,6.61,6.37,10C763.38,311,762.13,319.82,754.07,326.47ZM714.16,289c0,8.24,0,15.1,0,22a49.6,49.6,0,0,0,.17,5.32c.57,5.18,2.57,8.49,6.61,8.82,4.54.38,9.47.42,13.72-.95,9.32-3,12.84-13.28,9.08-23.87-1.87-5.27-5.36-8.81-10.88-9.61C727,289.8,721.06,289.57,714.16,289Zm.23-3.63c5.62-.88,10.67-1.25,15.44-2.59a11.82,11.82,0,0,0,6-4.87,15.9,15.9,0,0,0-12.13-24.51c-3-.25-6,0-9.27,0Z"/><path class="cls-10" d="M813.77,102.46h22.89V110c0,32.45.11,64.91-.09,97.36,0,6.12,1.35,10.5,8.06,11.65v14c-16.59,6.08-31.27-2.78-31.45-19.58-.38-36-.14-72-.11-108A12.14,12.14,0,0,1,813.77,102.46Z"/><path class="cls-11" d="M596.63,102.19v8.07q0,49,0,98c0,7.21.52,7.85,7.8,10.79v14.5c-7.64,1.95-14.83,1.54-21.58-1.94-4.78-2.46-7.5-6.89-8.77-12A36.82,36.82,0,0,1,573,211q-.1-52.32,0-104.64c0-1.08.13-2.16.25-4C580.85,101.84,588.27,102.18,596.63,102.19Z"/><path class="cls-12" d="M756.5,163.43,742,177.26a43.06,43.06,0,0,0-4.5-3.1A20.7,20.7,0,0,0,732,172c-3.82-.71-6.5.87-7.44,3.95-.86,2.81.2,5.28,3.6,7,3.77,1.88,7.86,3.13,11.57,5.1,4.07,2.16,8.31,4.35,11.7,7.39,7.87,7.1,8.3,20.05,1.48,28.26-9.51,11.45-25.51,15-40.59,8.85-5.28-2.17-10.62-4.48-14.49-9.88L712,209.45c1.94,1.55,3.58,3,5.37,4.26a13.82,13.82,0,0,0,11.43,2.16,6.41,6.41,0,0,0,5.12-5.5c.47-2.81-1.36-4.59-3.68-5.72-2.59-1.26-5.28-2.31-7.94-3.42-2.46-1-5-1.82-7.39-3-12.2-6.34-14.54-12.92-14.22-22.5.32-9.88,8.89-18.73,16.8-21.16a37.72,37.72,0,0,1,29.12,2.52C749.85,158.73,752.8,161,756.5,163.43Z"/><path class="cls-12" d="M1172.47,223.38l13.56-14,5.44,4a13.78,13.78,0,0,0,10,2.75,6.6,6.6,0,0,0,6.1-5.3c.77-3.13-1.07-5.15-3.65-6.34-4.82-2.24-9.73-4.32-14.66-6.33-9.18-3.75-14.14-10.4-14.15-20.43,0-10.43,5.3-18.88,14.77-22.36,14.62-5.37,27.85-2.54,40.4,8.12L1217.05,177c-3.7-1.79-6.74-3.63-10-4.76-3.62-1.24-6.68.27-7.81,3.14s-.19,5.31,3,7.26a65.51,65.51,0,0,0,7.76,3.79c2.23,1,4.59,1.66,6.81,2.67,10.79,4.9,15.06,11.48,14.55,22.21-.48,9.91-6.93,19-16.7,21.91C1199,237.81,1184.81,235.25,1172.47,223.38Z"/><path class="cls-13" d="M1049.61,318.19c.05-1.36.54-2.87.09-4-7.84-20.48,11.4-39.49,32.27-36.41a30,30,0,0,1,18.49,9.76c12.29,13.65,7.32,34.09-9.68,41.54-14.06,6.15-29.82,1.95-37.86-9.21-.71-1-1.11-3.35-3.36-1.8Zm12.05-14.27c.12,7.91,2.06,14.93,8.4,20.21,5.06,4.21,11.67,4.21,16.11-.61a27.14,27.14,0,0,0-1-38.31c-4.53-4.43-10.77-4.28-15.61-.18C1063.69,290,1061.79,296.62,1061.66,303.92Z"/><path class="cls-14" d="M827.13,93c-17.54.81-28.57-14.18-28.64-27.08s10.75-27.75,28.32-27.51c16.6.22,28.2,11.12,28.29,27.16S843.7,92.89,827.13,93ZM845.2,65.78c0-11.65-7.14-19.32-18.11-19.36S808.81,54,808.78,65.58s7.15,19.29,18.11,19.32S845.17,77.4,845.2,65.78Z"/><path class="cls-14" d="M957,38.43c16.85,0,27.76,10.81,27.75,27.38,0,16.39-11.16,27.2-28,27.15S929,82.18,929,65.6,940.11,38.39,957,38.43ZM938.38,65.6c0,11.58,7.15,19.18,18.26,19.3s19.19-8.22,19-19.46c-.21-13.48-10-19.12-18.84-18.93C945.42,46.76,938.17,54,938.38,65.6Z"/><path class="cls-15" d="M722.62,49.89l-4.25-4c9.54-11.59,29.07-9.55,35.2,3.59a18.15,18.15,0,0,1,1.19,7.12c.15,7.1,0,14.21.06,21.32,0,3.11-.12,6,3,8.25,1.21.86,1.07,3.65,1.61,5.8-6,1.6-10.05.16-13.44-4.12-5,3.21-10.18,5.54-16.2,5.17-7.1-.44-12.12-4.08-13.89-10.39s.49-12.41,6-16.36c5.09-3.62,11-4.46,17-5.11a54.51,54.51,0,0,1,5.61,0c.87-5.09,1.33-9.91-3.09-13C735.13,43.74,728.86,46.57,722.62,49.89Zm22.52,18.26c-6.59-1.36-11.84.18-16.78,2.81-3.25,1.73-4.43,4.94-3.6,8.49s2.93,5.5,6.47,5.62a28,28,0,0,0,7.88-.51c4.54-1.17,5.93-3.35,6-8.12C745.18,73.81,745.14,71.17,745.14,68.15Z"/><path class="cls-15" d="M661,39.42c3.76.27,7.5-1.67,9.67,2.57,3.13-1,6.19-2.4,9.39-3,13.39-2.51,24.06,3.56,25.74,19.69,1.11,10.75.21,21.7.21,33h-9.5V84.65c0-8,.06-16,0-24-.06-5.69-1.8-10.68-7.54-12.94a16.86,16.86,0,0,0-17,2.39c-1.38,1.06-2,3.83-2,5.83-.21,9.54-.1,19.1-.1,28.65v7.1H661Z"/><path class="cls-16" d="M616.56,49.94l-4.4-3.73c.6-1.17.75-1.9,1.2-2.27,7.37-6.11,15.78-7,24.46-3.95,6.79,2.38,10,7.9,10.17,15,.16,7.33,0,14.67.06,22,0,3.5-.55,7,3.42,9.39,1.06.62.84,3.4,1.25,5.38-5.87,2.07-9.62-.35-12.94-3.9-5,3.3-10.13,5.25-15.89,5.07-7.11-.21-12.2-3.94-14-10.23-1.82-6.48.29-12.42,5.87-16.41,4.88-3.48,10.51-4.66,16.32-5.17,2-.17,4,0,6.53,0,.87-5,1.22-9.88-3.09-12.85C629.27,43.93,622.87,46.11,616.56,49.94Zm22.66,18c-6.71-.76-12.32-.28-17.3,3.18-3.22,2.22-4.34,5.44-3.35,8.61,1,3.36,3.51,5.31,7.39,5.51a24,24,0,0,0,5.92-.41c5.52-1.12,7.28-3.39,7.34-9.08C639.24,73.35,639.22,71,639.22,67.94Z"/><path class="cls-17" d="M1049.61,318.19l0-.16c-2.72,5.38-5.57,10.55-12,12.46a32.28,32.28,0,0,1-22.16-1.25c-10.76-4.47-16.26-17-13.55-29.62,4.7-22,27.46-25.91,41.27-19.36a12.09,12.09,0,0,1,4.06,3.34,6.21,6.21,0,0,1-.72,8.92,6.93,6.93,0,0,1-9-1.27,18.62,18.62,0,0,1-2.26-4.05c-2.65-5.78-7-7-12-2.94a25.08,25.08,0,0,0-5.22,6c-5.43,8.59-4,22,2.52,29.91,6,7.28,17.69,9.39,23.58-1.72a21.6,21.6,0,0,1,1.3-1.87Z"/><path class="cls-18" d="M764,301.28c0-2.44.14-4.88.09-7.31-.18-7.81-.55-8.3-8.61-11.38,1.13-1.19,1.87-2.7,2.87-2.9,5-1,10-1.59,15.07-2.35.94,1.76,1.72,3.24,2.56,4.8,7.65-3.62,15-8.11,23-1.11L802.4,280v3.75c-1,.65-2.23,1.09-2.85,2-3.06,4.36-5.88,5-9.8,1.94-7.07-5.51-9.19-5.08-11.68,3.61-1.37,4.8-1.43,10-1.76,15-.24,3.75.12,7.53.06,11.3-.07,4.3,1.58,7.14,5.9,8.45,2.34.7,2.26,1,2.65,4.34h-29v-3.66c6.79-1,8-1.77,8.39-7.8C764.66,313.06,764.13,307.16,764,301.28Z"/><path class="cls-19" d="M603.39,294.24V276.76h7.42c.16,1.79.46,3.48.46,5.17,0,11.76,0,23.52,0,35.28,0,3.22-.76,6.64,2.46,9.14.53.41.08,2.08.08,3.35-4.45,1.93-7.72.26-10.69-3.39-4.76,3.12-9.79,5.13-15.58,3.88-3.77-.82-7.13-2.24-9.74-5.26-6-6.91-6.57-19-1.25-26.78C581.73,290.62,589.86,289.34,603.39,294.24ZM603,310.42c-.34-4.76-1.46-9.76-6.55-12.45-4-2.12-8.22-1.6-12,.77-4.7,2.93-5.52,7.68-5.4,12.74.11,4.9,1.51,9.11,6.22,11.58C594.18,327.74,602.86,321.82,603,310.42Z"/><path class="cls-15" d="M569.28,85.52,574,80.46c4,3,8.11,5.34,13.29,4.73,2.83-.33,5.15-1.2,6.75-3.62,2.26-3.4,1.87-7-1.44-9.38a41,41,0,0,0-7.14-3.46c-2.43-1.07-5-1.78-7.37-3-5.83-3.11-8.55-8.39-7.64-14.24,1-6.81,5.29-11.53,11.9-12.64,7.53-1.26,14.49,0,20.52,6l-4.69,5.27c-1.65-.89-3.05-2-4.64-2.42a32.08,32.08,0,0,0-8.41-1.08c-2.94.11-4.7,2.33-5.5,5.08a5.89,5.89,0,0,0,2.69,6.93,32.77,32.77,0,0,0,5.33,2.67c2.85,1.24,5.81,2.23,8.6,3.59,5.17,2.53,8.47,6.5,8.24,12.55a15.3,15.3,0,0,1-8.87,13.84C589,94.61,574.24,93.4,569.28,85.52Z"/><path class="cls-10" d="M768.91,46.83,762.57,46V39.72l6-.72c.23-3.79.44-7.24.67-11h9c.23,3.7.44,7.16.69,11.07l13.55.63v6.4l-13.76.63c0,10.29-.3,20.22.12,30.11.23,5.43,3.94,8.2,9.38,8.28,1.3,0,2.61-.17,4.35-.3.1,1.2.25,2.24.26,3.28s-.14,2.16-.21,3.08c-11.91,5-23-1.63-23.59-14-.36-7.53-.1-15.08-.11-22.63C768.9,52.16,768.91,49.76,768.91,46.83Z"/><path class="cls-20" d="M654.13,312.71H623.85c1.27,12.37,12.25,15.3,25.18,7.14l3.5,3a22.61,22.61,0,0,1-2.3,2.64A21.28,21.28,0,0,1,626,327.84c-7.16-4.19-10.81-12.89-9.21-21.9,1.72-9.65,9.53-16.33,19-16.27,9.09.05,15.93,6.06,17.78,15.79A65.4,65.4,0,0,1,654.13,312.71Zm-30.61-5.06h23.53c-1.31-8.63-4.78-12.17-11.27-12.25C628.92,295.32,625,299,623.52,307.65Z"/><path class="cls-21" d="M802.4,283.7V280l17.24-2.66c.18,2.41.5,4.83.52,7.24.06,10.18,0,20.36.07,30.54.09,9.17.36,9.44,8.95,11.95l0,2.47c-.5.36-1,1-1.5,1-9.26.06-18.52,0-27.95,0-.65-2.06-1.07-3.85,1.55-4.1,5.85-.54,7.06-4.4,7-9.29,0-8.63,0-17.25-.1-25.88C808.17,287.35,806.72,284.41,802.4,283.7Z"/><path class="cls-14" d="M875.06,43.79c8.12-5.11,9.52-5.49,16.48-4.57.15,2,.31,4.16.5,6.78-2.33.19-4.46.24-6.55.55-7.71,1.18-11.13,5.17-11.14,12.89,0,10.62,0,21.24,0,32.29h-9.22v-52h8.59C874.14,41,874.53,42.18,875.06,43.79Z"/><path class="cls-14" d="M669.18,330c-7.32.41-9.62-1.18-9.67-7.14-.14-14.84,0-29.68,0-44.52,0-.39.33-.78.68-1.55h5.92c.14,1.79.4,3.5.4,5.2,0,11.74,0,23.49,0,35.23,0,3.25-.61,6.65,2.52,9.17C669.63,326.82,669.18,328.44,669.18,330Z"/><path class="cls-22" d="M913.1,39.6V91.67L906,92c-1.5-4.76-1.93-42.42-.63-52.17,1.17-.14,2.43-.35,3.7-.41C910.13,39.39,911.24,39.51,913.1,39.6Z"/><path class="cls-17" d="M876.92,272.62l12.88-19.18h16.71c-1.68,3.35-4.61,4.95-7,7-3.87,3.32-8.08,6.24-11.84,9.67C884.82,272.7,881.83,273.87,876.92,272.62Z"/><path class="cls-17" d="M814.06,261.57a6.55,6.55,0,0,1-6.95-6.41,6.93,6.93,0,0,1,6.69-6.84,7.11,7.11,0,0,1,7,6.59A6.64,6.64,0,0,1,814.06,261.57Z"/><path class="cls-13" d="M990.87,261.54c-4.1,0-6.9-2.55-7-6.42a6.68,6.68,0,0,1,6.77-6.76c4.25,0,7.57,3.06,7.42,6.91S995.09,261.49,990.87,261.54Z"/><path class="cls-15" d="M909,29.78a6,6,0,0,1-5.65-6.1,5.65,5.65,0,0,1,6-5.65A5.72,5.72,0,0,1,915,24,6.07,6.07,0,0,1,909,29.78Z"/><path class="cls-23" d="M764,301.28c.13,5.88.66,11.78.28,17.63-.39,6-1.6,6.76-8.39,7.8l-1.82-.24c8.06-6.65,9.31-15.52,8.2-25.16Z"/></svg>