<svg id="Capa_1" data-name="Capa 1" xmlns="http://www.w3.org/2000/svg" viewBox="0 0 1215.76 459.94"><defs><style>.cls-1{fill:#35aadf;}.cls-1,.cls-10,.cls-11,.cls-12,.cls-13,.cls-14,.cls-15,.cls-16,.cls-17,.cls-18,.cls-19,.cls-2,.cls-20,.cls-21,.cls-3,.cls-4,.cls-5,.cls-6,.cls-7,.cls-8,.cls-9{stroke:#fff;stroke-miterlimit:10;stroke-width:2px;}.cls-2{fill:#0e62a4;}.cls-3{fill:#37aadf;}.cls-4{fill:#1e61ab;}.cls-5{fill:#ed383f;}.cls-6{fill:#1d61ab;}.cls-7{fill:#ed373e;}.cls-8{fill:#2063ad;}.cls-9{fill:#2063ac;}.cls-10{fill:#1f61ac;}.cls-11{fill:#ed3940;}.cls-12{fill:#2364ad;}.cls-13{fill:#2666ae;}.cls-14{fill:#2465ad;}.cls-15{fill:#ed3a41;}.cls-16{fill:#ed393f;}.cls-17{fill:#2969b0;}.cls-18{fill:#2b6cb1;}.cls-19{fill:#ed353c;}.cls-20{fill:#1b5faa;}.cls-21{fill:#fac3c5;}</style></defs><path class="cls-1" d="M1.27,386.15c1.48-2.83,2.47-6.07,4.5-8.43C16,365.76,26.55,354,37.06,342.24c2.36-2.64,5.1-4.95,7.61-7.45A333,333,0,0,1,111,283.52,395.11,395.11,0,0,1,169.74,255c23.33-9,47.55-14.69,72.18-18.74a447.68,447.68,0,0,1,93.15-5.18c36.7,1.68,72.31,8.66,106.47,22.65a410.84,410.84,0,0,1,56.2,27.67,199.83,199.83,0,0,1,35.41,27.17,319.7,319.7,0,0,0,102.66,66c30,12.06,61.14,18.92,93.58,19.13,24.79.16,48.58-4.92,71.55-14.11,4.74-1.9,9.6-3.53,14.45-5.14a41,41,0,0,1,5.47-1c-.93,4.83-4.39,6.28-7.45,7.7-9.47,4.4-19,8.83-28.67,12.67-31.12,12.3-63.68,17.74-96.9,20.27a339.34,339.34,0,0,1-56.67-.34,232.66,232.66,0,0,1-55.82-12.6,339.66,339.66,0,0,1-75.6-37.81c-10.38-6.87-20.8-13.73-30.73-21.21-20.7-15.6-44.19-25.67-68-35a361.58,361.58,0,0,0-70.62-19.52,373.65,373.65,0,0,0-98.4-3.94A387,387,0,0,0,72.24,336C56,345.66,40.06,355.86,25.69,368.26c-5.21,4.5-10,9.51-15.14,14.07a72.82,72.82,0,0,1-7.5,5.18Z"/><path class="cls-2" d="M108.24,191.53H72c-1.22-4.38-1.83-120.22-.57-128.93h110V10.43H374V62.72H484.88V191.17H449.3c-.32-30.67-.63-61.22-1-92.55H338.52c-.35-17.61-.68-34.45-1-51.88H219c-.16,16.75-.31,33.74-.47,51.39H108.24Z"/><path class="cls-3" d="M269.73,302.77c5.86-3.2,10.85-2.54,15.6-2.07,46.26,4.62,91.49,13.6,133.86,33.56,16.06,7.56,31.76,16,47.24,24.69,21.51,12.09,42.44,25.2,64,37.16,35,19.43,72.4,31.37,112.64,34.23,28,2,55.49-.31,83-5,10.07-1.73,20.22-3,30.35-4.38a53.66,53.66,0,0,1,7.17-.05c1.33,5.94,1,7.23-3,8.8-19.63,7.74-39,16.29-59.47,21.67-26.3,6.89-52.95,8.77-80,6.94-43.4-2.94-82.84-17.65-119.66-39.91-14.24-8.6-28-18.13-41.46-27.89-18.21-13.16-36.53-26.15-56.21-37-29.63-16.38-60.21-30.75-92.82-40.24-11.06-3.22-22.48-5.24-33.71-7.9C275,304.78,272.93,303.86,269.73,302.77Z"/><path class="cls-4" d="M963.08,216.21h-23.2V137.52c7,0,13.78-.19,20.58.16,1.37.07,2.64,2.18,4,3.42,13.78-7.17,26.28-8.65,41,4.32a36.5,36.5,0,0,1,26.1-9.57c12.49.28,22.2,7.77,25.19,19.87a31.41,31.41,0,0,1,1.15,7.23c.1,17.56,0,35.12,0,53.1h-23.1c-.15-1.72-.4-3.4-.41-5.08,0-13.8,0-27.59,0-41.39a33,33,0,0,0-.33-6,8.58,8.58,0,0,0-8.21-7.45c-5.42-.39-10.61.46-15.6,4v56H987.5c-.15-1.67-.44-3.36-.44-5.05,0-13.79,0-27.59,0-41.38,0-12.36-7-16.91-18.31-12.1-3.81,1.62-5.84,4-5.74,8.6.3,14.23.11,28.47.11,42.71Z"/><path class="cls-5" d="M806.31,261.85c6.84-1.39,9.72-6.58,11.6-12.48,1-3.15,2.59-4.46,6.44-3.27v14.4H840c.15,2.43.25,3.92.39,6.23H824.86c0,11.91-.33,23,.11,34.12.3,7.45,5.92,9.78,12.06,5.6,1.21-.82,2.55-1.45,3.82-2.17,1.4-11.38,4.5-14.82,15.72-17.44,1.94-.46,3.9-.9,5.81-1.49,7.59-2.36,10.24-8.23,7.08-15.55-2.28-5.26-8.06-5.84-11.52-1.12-1.18,1.61-2,3.49-3.33,5a6.34,6.34,0,0,1-9.47.45,6.27,6.27,0,0,1,.22-9.43,13,13,0,0,1,4.55-2.7,36,36,0,0,1,25.43.69c6,2.44,9.14,6.59,8.95,13.32-.22,7.56,0,15.12,0,22.69a38.09,38.09,0,0,0,.12,4c.56,5.33,2.2,6,6.72,2.71.51-.37,1.07-.67,2.14-1.33l3.63,4.62c3.32.34,5.34-1.58,5.41-4.93.21-10.43.28-20.87.09-31.3-.08-4.32-3.45-5.8-7-5.78-1-3,.09-3.95,2.26-4.23,5.28-.66,10.54-1.38,16.07-2.12.73,1.5,1.39,2.85,2.15,4.43a28.79,28.79,0,0,0,3-1.18,26.33,26.33,0,0,1,20-2.2c7.57,2.18,11.08,6.55,11.2,14.49.12,8.24,0,16.47,0,24.7,0,2.92-.13,6,3.1,7.48,4,1.86,8.24,2.37,12.1-.11a6.23,6.23,0,0,0,2.31-4.48c.23-10.21.24-20.43.15-30.65,0-3.27-1.85-5.26-5.23-5.95-.88-.18-1.5-1.62-2.24-2.48.79-.61,1.52-1.63,2.39-1.77,5.69-.89,11.42-1.59,17.65-2.43.2,2,.5,3.73.51,5.42,0,11.35.1,22.69,0,34,0,4.61.68,8.51,6.07,9.58,2.39.48,2.68,1.93,1.65,4.17H929.42c-.87-1.93-1.13-3.62,1.48-3.9,5.79-.63,7.14-4.43,7.11-9.4,0-7.79.15-15.58-.09-23.36-.22-7.32-2.94-10.27-9.18-10.78-6.81-.56-12.11,3-12.63,9.88-.68,9.06-.39,18.21-.31,27.32,0,2.94,1.76,4.89,4.74,5.69,1.91.51,4.14,1,2.8,4.81-3.55,0-7.48.23-11.36-.06-6.11-.44-12.37,1.4-18.36-1.17-.44-.19-1.25.3-1.83.6-7.18,3.7-13.71,2.77-19.72-3a23.52,23.52,0,0,1-15.38,5.14c-5.7-.21-10.4-2.07-13.94-6.64-6.77,7.61-15.07,7.6-23.88,5.4-2.09-.52-4.21-.95-6.32-1.43l0-2.47q-.3-21.35-.61-42.75l-6.82-.9C805.58,264.65,805.94,263.25,806.31,261.85Zm64.82,25.87c-6.55,3.15-11.58,5.46-14.65,10.38a7,7,0,0,0,1.94,9.9c2.91,2,6.69,1.26,9.22-2.06a9.55,9.55,0,0,0,2-4.09C870.3,297.59,870.59,293.27,871.13,287.72Z"/><path class="cls-6" d="M838,176.78c.1-24.25,16.36-39.3,38.85-40.66A58.63,58.63,0,0,1,895.9,138c18.7,5.27,29.2,21,28.14,40.93-.39,7.41-2,14.48-5.93,20.92-4.77,7.75-11.71,12.67-20.13,15.59a50.11,50.11,0,0,1-33.38.18C847.34,209.74,837.89,195.69,838,176.78Zm61.84,1.39c-.31-3.18-.33-5.2-.73-7.14-1.81-8.74-8.12-14.43-16.4-14.95-9.21-.57-16.14,3.9-19,12.43a25.81,25.81,0,0,0,.22,17.61c2.84,7.58,8.73,11.67,16.78,11.77,8.22.11,14.22-3.63,17.11-11.18C899,183.67,899.33,180.31,899.81,178.17Z"/><path class="cls-6" d="M669.55,216c-10.32,3.42-16.87,1.69-25.81-6.5-2.56,1.69-5.06,3.51-7.72,5a27.05,27.05,0,0,1-23.78,2c-7.91-3-12.44-9.11-13.64-17.49-1.3-9,1.2-16.79,8.65-22.45,7.74-5.88,16.8-7.84,26.27-8.36,2.4-.13,4.82,0,7.22,0,1.86-5.57-.73-9.41-4.5-11.74-7.8-4.82-14.92-.91-22.07,3.35l-11.3-12.5a37,37,0,0,1,16-9.56,44.82,44.82,0,0,1,22.41-.94c13.67,2.75,23,14.11,23.52,28.56.36,9.11.07,18.24.08,27.36,0,3.35-.17,6.71,3.43,8.76a3.82,3.82,0,0,1,1.2,2.8C669.62,208.26,669.55,212.22,669.55,216ZM641.24,183.9c-6.74-1.41-12.74-.4-16.26,2.58-2.33,2-3.82,4.35-2.92,7.55a7.39,7.39,0,0,0,6.54,5.76c4.23.53,7.7-1.32,11-3.66,2.82-2,1.57-4.8,1.79-7.3A41.16,41.16,0,0,0,641.24,183.9Z"/><path class="cls-4" d="M1143.49,216.49c-10.5,2.47-18.83.52-25.75-7.32-5.63,5-11.83,8.56-19.5,9.09-11.35.78-21.29-5.44-25.14-16-3.32-9.1.56-19.84,9.5-26.31,7.5-5.42,16.11-7.26,25.13-7.73,2.2-.12,4.4,0,6.5,0,1.63-8.52-2.14-13.51-10-13.75-5.18-.16-8.09.76-15.85,5.12l-11.25-11.7c4.19-5.25,10-8.38,16.36-10.28,9.92-2.95,19.94-2.66,29.34,1.78,9.83,4.65,15.33,12.73,15.63,23.75.28,10,.11,20,.07,30,0,3.21.18,6.16,3.31,8.19a4.58,4.58,0,0,1,1.53,3.29C1143.61,208.41,1143.49,212.18,1143.49,216.49Zm-28.38-32.9a19,19,0,0,0-16.84,3.73c-3.58,2.76-3.47,7.41,0,10.23,3.66,3,7.69,2.87,11.82,1.09,3.83-1.65,6-4.28,5.38-8.75C1115.17,188,1115.23,186,1115.11,183.59Z"/><path class="cls-7" d="M737.47,309.44c-7.2,3.38-14.8,4.32-22.69,4.23-15.1-.17-30.2-.05-45.43-.05-.82-2.11-1.17-3.66,1.33-4.29,1.51-.38,3.38-.29,4.47-1.18a23.37,23.37,0,0,0,5-5.73c.74-1.2.63-3,.63-4.57,0-16.9.22-33.8-.05-50.69-.13-8-1.41-9-9.37-11.26-1-.3-2.42-1.41-2.56-2.31-.34-2.1,1.43-2.39,3.1-2.38,15.34.09,30.69,0,46,.36,6.12.13,11.76,2.13,16,7,6.63,7.61,6.89,16.35.46,24.09a61.16,61.16,0,0,1-5.48,5.15c3.77,2.28,7.63,3.78,10.32,6.46s4.29,6.62,6.37,10C746.77,293.92,745.52,302.78,737.47,309.44ZM697.55,272c0,8.24,0,15.1,0,22a49.69,49.69,0,0,0,.18,5.32c.56,5.17,2.56,8.49,6.6,8.82,4.54.37,9.47.42,13.72-1,9.32-3,12.84-13.27,9.08-23.86-1.87-5.27-5.36-8.81-10.87-9.61C710.41,272.77,704.46,272.54,697.55,272Zm.24-3.64c5.61-.87,10.66-1.24,15.44-2.58a11.84,11.84,0,0,0,5.95-4.87,15.9,15.9,0,0,0-12.13-24.51c-3-.25-6,0-9.26,0Z"/><path class="cls-8" d="M797.16,85.42h22.9v7.5c0,32.46.1,64.91-.1,97.37,0,6.12,1.35,10.5,8.06,11.65v14c-16.59,6.08-31.27-2.78-31.45-19.58-.38-36-.13-72-.1-108A11.87,11.87,0,0,1,797.16,85.42Z"/><path class="cls-9" d="M580,85.16v8.07q0,49,0,98c0,7.21.52,7.84,7.8,10.79v14.5c-7.64,1.95-14.83,1.54-21.58-1.94-4.78-2.46-7.5-6.9-8.76-12a36.3,36.3,0,0,1-1.08-8.56q-.1-52.32,0-104.64c0-1.08.13-2.16.24-4C564.24,84.81,571.67,85.15,580,85.16Z"/><path class="cls-10" d="M739.9,146.4l-14.49,13.83a43.06,43.06,0,0,0-4.5-3.1,20.57,20.57,0,0,0-5.53-2.16c-3.81-.71-6.5.87-7.44,3.95-.86,2.81.21,5.27,3.6,7,3.77,1.88,7.86,3.12,11.57,5.1,4.07,2.16,8.31,4.34,11.7,7.39,7.87,7.1,8.3,20.05,1.48,28.26-9.51,11.45-25.51,15-40.58,8.85-5.29-2.17-10.63-4.49-14.5-9.88l14.15-13.19c1.94,1.55,3.58,3,5.37,4.26a13.83,13.83,0,0,0,11.43,2.16,6.4,6.4,0,0,0,5.12-5.5c.47-2.82-1.36-4.59-3.68-5.72-2.59-1.26-5.28-2.31-7.94-3.42-2.46-1-5-1.82-7.38-3-12.21-6.34-14.55-12.93-14.23-22.5.32-9.88,8.89-18.73,16.8-21.16A37.71,37.71,0,0,1,730,140C733.24,141.7,736.2,144,739.9,146.4Z"/><path class="cls-10" d="M1155.87,206.35l13.55-14c1.95,1.44,3.69,2.74,5.44,4a13.84,13.84,0,0,0,10,2.75,6.6,6.6,0,0,0,6.1-5.3c.77-3.13-1.07-5.15-3.64-6.35-4.83-2.23-9.74-4.31-14.66-6.33-9.19-3.74-14.14-10.39-14.16-20.43,0-10.42,5.3-18.87,14.77-22.35,14.63-5.37,27.85-2.54,40.41,8.12L1200.44,160c-3.69-1.79-6.73-3.64-10-4.76-3.61-1.24-6.68.27-7.81,3.14s-.18,5.31,3,7.26a66.21,66.21,0,0,0,7.76,3.78c2.23,1,4.6,1.67,6.81,2.68,10.79,4.9,15.06,11.48,14.55,22.21-.48,9.91-6.93,19-16.7,21.91C1182.43,220.78,1168.2,218.22,1155.87,206.35Z"/><path class="cls-11" d="M1033,301.15c0-1.35.54-2.87.1-4-7.85-20.49,11.39-39.49,32.27-36.42a30.06,30.06,0,0,1,18.48,9.77c12.3,13.65,7.32,34.09-9.68,41.53-14.06,6.16-29.82,2-37.86-9.2-.71-1-1.11-3.35-3.36-1.8Zm12-14.26c.12,7.91,2.07,14.93,8.41,20.21,5.06,4.21,11.66,4.21,16.1-.61a27.14,27.14,0,0,0-1-38.31c-4.54-4.44-10.78-4.28-15.62-.18C1047.08,273,1045.18,279.59,1045.05,286.89Z"/><path class="cls-12" d="M810.52,75.93C793,76.74,782,61.75,781.88,48.85S792.63,21.1,810.2,21.34c16.61.22,28.21,11.11,28.29,27.16S827.09,75.85,810.52,75.93ZM828.6,48.75c0-11.66-7.15-19.33-18.12-19.37S792.2,37,792.17,48.55s7.15,19.29,18.11,19.32S828.56,60.36,828.6,48.75Z"/><path class="cls-12" d="M940.36,21.4c16.85,0,27.77,10.81,27.75,27.38,0,16.39-11.15,27.2-28,27.15s-27.72-10.79-27.7-27.36S923.5,21.36,940.36,21.4ZM921.77,48.57c0,11.58,7.15,19.18,18.26,19.3s19.19-8.22,19-19.47c-.21-13.47-10-19.11-18.83-18.92C928.81,29.73,921.56,37,921.77,48.57Z"/><path class="cls-13" d="M706,32.86l-4.24-4c9.53-11.6,29.07-9.55,35.19,3.58a18,18,0,0,1,1.19,7.12c.15,7.11.06,14.22.06,21.33,0,3.11-.12,6,3,8.25,1.22.86,1.07,3.64,1.61,5.79-6,1.61-10,.16-13.44-4.11-5,3.21-10.18,5.54-16.19,5.17-7.11-.45-12.13-4.08-13.9-10.39s.49-12.41,6-16.36c5.09-3.63,11-4.47,17-5.12,1.73-.18,3.49,0,5.61,0,.87-5.09,1.33-9.91-3.09-12.95C718.53,26.71,712.25,29.53,706,32.86Zm22.52,18.26c-6.58-1.36-11.83.18-16.78,2.81-3.25,1.73-4.43,4.94-3.6,8.49.8,3.4,2.94,5.5,6.47,5.62a28,28,0,0,0,7.88-.51c4.54-1.17,5.94-3.35,6-8.13C728.57,56.77,728.53,54.14,728.53,51.12Z"/><path class="cls-13" d="M644.35,22.39c3.76.26,7.5-1.67,9.67,2.56,3.13-1,6.19-2.39,9.39-3,13.39-2.51,24.06,3.56,25.74,19.69,1.11,10.74.21,21.7.21,33h-9.49V67.62c0-8,0-16,0-24-.06-5.69-1.8-10.69-7.54-12.94a16.82,16.82,0,0,0-17,2.39c-1.38,1.05-2,3.82-2,5.82-.21,9.55-.09,19.11-.1,28.66v7.09h-8.81Z"/><path class="cls-14" d="M600,32.91l-4.39-3.73c.6-1.17.75-1.9,1.19-2.27,7.37-6.12,15.78-7,24.47-3.95,6.78,2.38,10,7.9,10.16,15,.16,7.34,0,14.68.07,22,0,3.49-.56,7,3.41,9.38,1.06.63.84,3.41,1.25,5.39-5.87,2.06-9.61-.35-12.94-3.9-5,3.29-10.12,5.24-15.89,5.07-7.11-.21-12.2-3.94-14-10.24-1.82-6.47.29-12.41,5.87-16.4,4.88-3.48,10.51-4.66,16.33-5.17,2-.17,4,0,6.52,0,.88-5,1.23-9.88-3.08-12.85C612.66,26.9,606.26,29.08,600,32.91Zm22.67,18c-6.72-.75-12.33-.27-17.31,3.18-3.22,2.23-4.34,5.45-3.35,8.62,1,3.35,3.51,5.31,7.39,5.51a24.94,24.94,0,0,0,5.92-.41c5.52-1.12,7.28-3.39,7.34-9.08C622.64,56.32,622.62,53.93,622.62,50.9Z"/><path class="cls-15" d="M1033,301.15l0-.15c-2.72,5.38-5.56,10.55-12,12.46a32.28,32.28,0,0,1-22.16-1.25c-10.76-4.47-16.26-17-13.55-29.62,4.71-22,27.47-25.91,41.27-19.36a12.08,12.08,0,0,1,4.06,3.33,6.21,6.21,0,0,1-.72,8.93,6.93,6.93,0,0,1-9-1.27,19,19,0,0,1-2.26-4.05c-2.65-5.78-7-7-12-2.94a24.88,24.88,0,0,0-5.22,6c-5.43,8.59-4,22,2.52,29.91,6,7.28,17.7,9.38,23.58-1.72a21.6,21.6,0,0,1,1.3-1.87Z"/><path class="cls-16" d="M747.39,284.25c0-2.44.14-4.88.09-7.31-.17-7.81-.54-8.3-8.61-11.38,1.13-1.19,1.87-2.7,2.87-2.9,5-1,10-1.6,15.07-2.35.94,1.76,1.73,3.23,2.56,4.8,7.65-3.62,15-8.11,23-1.11l3.39-1.08v3.75c-1,.65-2.23,1.09-2.85,2-3.06,4.36-5.88,5-9.8,1.93-7.07-5.5-9.19-5.08-11.68,3.62-1.37,4.8-1.43,10-1.76,15.05-.24,3.75.12,7.53.06,11.3-.07,4.3,1.58,7.14,5.9,8.44,2.34.71,2.26,1,2.65,4.34h-29v-3.66c6.79-1,8-1.76,8.39-7.79C748.06,296,747.52,290.13,747.39,284.25Z"/><path class="cls-17" d="M586.78,277.21V259.73h7.42c.17,1.79.46,3.48.46,5.17,0,11.76,0,23.52,0,35.28,0,3.22-.76,6.64,2.46,9.14.53.41.08,2.08.08,3.35-4.45,1.93-7.72.26-10.69-3.39-4.76,3.12-9.79,5.12-15.57,3.88-3.78-.82-7.14-2.24-9.75-5.26-6-6.91-6.57-19-1.25-26.78C565.12,273.59,573.26,272.3,586.78,277.21Zm-.38,16.17c-.34-4.76-1.45-9.75-6.55-12.44-4-2.12-8.22-1.6-12,.76-4.7,2.93-5.51,7.69-5.4,12.75.12,4.9,1.51,9.11,6.22,11.58C577.57,310.71,586.25,304.78,586.4,293.38Z"/><path class="cls-13" d="M552.67,68.49l4.73-5.07c4,3,8.12,5.34,13.29,4.74,2.83-.33,5.15-1.2,6.75-3.62,2.26-3.4,1.88-7.06-1.44-9.38a41,41,0,0,0-7.14-3.47c-2.43-1.06-5-1.77-7.37-3-5.82-3.11-8.55-8.39-7.64-14.23,1-6.81,5.29-11.54,11.9-12.64,7.53-1.26,14.49,0,20.52,6L581.58,33c-1.65-.89-3.05-2-4.63-2.42a31.74,31.74,0,0,0-8.42-1.08c-2.94.11-4.7,2.32-5.5,5.08a5.9,5.9,0,0,0,2.69,6.93,34,34,0,0,0,5.33,2.67c2.85,1.24,5.81,2.22,8.6,3.59,5.17,2.53,8.47,6.5,8.24,12.55A15.28,15.28,0,0,1,579,74.2C572.4,77.57,557.63,76.36,552.67,68.49Z"/><path class="cls-8" d="M752.3,29.79,746,29V22.69l6-.72c.23-3.79.44-7.24.67-11h9c.23,3.7.45,7.15.69,11.07l13.55.63v6.4l-13.75.63c0,10.29-.3,20.21.11,30.11.23,5.43,3.94,8.2,9.38,8.28,1.3,0,2.61-.18,4.35-.3.1,1.2.26,2.24.26,3.28s-.14,2.16-.21,3.07c-11.9,5-23-1.62-23.59-14-.35-7.53-.1-15.09-.11-22.63Z"/><path class="cls-18" d="M637.52,295.68H607.24c1.27,12.37,12.26,15.3,25.18,7.14l3.5,3a22.8,22.8,0,0,1-2.3,2.65,21.28,21.28,0,0,1-24.23,2.34c-7.15-4.19-10.81-12.89-9.21-21.9,1.72-9.65,9.53-16.33,19-16.27,9.09.05,15.93,6.06,17.79,15.79A68.2,68.2,0,0,1,637.52,295.68Zm-30.6-5.06h23.52c-1.31-8.63-4.78-12.17-11.27-12.25C612.31,278.29,608.37,282,606.92,290.62Z"/><path class="cls-19" d="M785.79,266.67v-3.75L803,260.26c.18,2.41.5,4.82.52,7.24.07,10.18,0,20.36.07,30.54.09,9.17.37,9.44,9,11.95l0,2.47c-.5.36-1,1-1.49,1-9.27.06-18.53,0-28,0-.65-2.06-1.07-3.85,1.55-4.1,5.85-.55,7.06-4.4,7-9.29,0-8.63,0-17.25-.1-25.88C791.56,270.32,790.11,267.38,785.79,266.67Z"/><path class="cls-12" d="M858.45,26.76c8.12-5.11,9.52-5.5,16.49-4.57.14,2,.3,4.16.49,6.78-2.33.19-4.46.23-6.55.55-7.71,1.18-11.13,5.17-11.14,12.88,0,10.63,0,21.25,0,32.3h-9.23v-52h8.59C857.53,24,857.92,25.15,858.45,26.76Z"/><path class="cls-12" d="M652.57,313c-7.31.4-9.62-1.18-9.67-7.15-.14-14.83,0-29.68.06-44.52,0-.38.32-.77.67-1.54h5.92c.14,1.79.4,3.5.4,5.2,0,11.74,0,23.48,0,35.23,0,3.25-.61,6.64,2.52,9.16C653,309.78,652.57,311.41,652.57,313Z"/><path class="cls-20" d="M896.49,22.57V74.63l-7.14.35c-1.5-4.77-1.93-42.42-.62-52.18,1.16-.13,2.42-.34,3.69-.4C893.53,22.35,894.64,22.48,896.49,22.57Z"/><path class="cls-15" d="M860.31,255.59l12.88-19.19H889.9c-1.68,3.36-4.61,4.95-7,7-3.87,3.32-8.08,6.24-11.84,9.67C868.21,255.67,865.22,256.84,860.31,255.59Z"/><path class="cls-15" d="M797.45,244.53a6.54,6.54,0,0,1-7-6.4,6.93,6.93,0,0,1,6.69-6.85,7.12,7.12,0,0,1,7,6.6A6.63,6.63,0,0,1,797.45,244.53Z"/><path class="cls-11" d="M974.26,244.5c-4.1.05-6.9-2.54-7-6.42a6.68,6.68,0,0,1,6.77-6.75c4.25,0,7.57,3.06,7.42,6.9S978.48,244.46,974.26,244.5Z"/><path class="cls-13" d="M892.38,12.75a6,6,0,0,1-5.64-6.1,5.63,5.63,0,0,1,6-5.65,5.72,5.72,0,0,1,5.68,6A6.09,6.09,0,0,1,892.38,12.75Z"/><path class="cls-21" d="M747.39,284.25c.13,5.88.67,11.78.28,17.63-.39,6-1.6,6.76-8.39,7.79l-1.81-.23c8-6.66,9.3-15.52,8.19-25.16Z"/></svg>