<svg id="Capa_1" data-name="Capa 1" xmlns="http://www.w3.org/2000/svg" viewBox="0 0 115 40.26"><defs><style>.cls-1{fill:#fff;fill-rule:evenodd;}</style></defs><path class="cls-1" d="M9,37.06c2.9,1.07,7.32-3.34,8.74-5.2L22,26.56C25.08,22.68,31.76,14.29,35.14,11a20.82,20.82,0,0,1,2.58-2.2,5,5,0,0,0,2.34-2.43c1-2,2.49-4.51,3.18-6.37-4,.09-13.53,8.86-15.77,11.73L15.11,26.9c-2.18,2.91-5.9,8.11-9.59,8.58Z"/><path class="cls-1" d="M0,8.77c1.32,1.64,1,5.11,1,7.73s.41,5.48.47,8.13a26.84,26.84,0,0,0,.92,7.51c1,3.12,1.8,3.25,5.11,2.46a12,12,0,0,1-.92-3.37C6.21,27.82,6.12,23,6,19.46c-.18-7.82.51-7.16-2.93-9.75A3.58,3.58,0,0,0,0,8.77Z"/><path class="cls-1" d="M12.05,38.2c1.86,1.35,3,.72,4.86-.32a12.22,12.22,0,0,0,3.53-3.15L28,25.52c1.48-1.8,4.83-6.09,6.21-7.19a5.08,5.08,0,0,0,1.55-1.68,38.2,38.2,0,0,0,1.92-4.85c-2.14.69-4.85,4.85-6.56,6.49A14.6,14.6,0,0,0,29.59,20l-1.46,1.79L19.3,32.46c-1.16,1.19-1.76,2.46-3.06,3.43C13.28,38.13,13.41,37.35,12.05,38.2Z"/><path class="cls-1" d="M15.46,39.74c3.05.82,3.09.95,6.87-1.76,2.43-1.77,6.09-7.16,9-10.35,1.51-1.7,1.07-.13,1.74-3.06A33.2,33.2,0,0,0,34,20.88c-1,.66-3.47,3.75-4.41,4.83l-6.44,7.72c-.66.89-1.39,1.64-2,2.56C19.18,38.89,15.87,39.46,15.46,39.74Z"/><path class="cls-1" d="M9,33.24c2.33-1.16,1.45-2.9,1.29-3.78-1-6.18-.15-9.56-.44-12.87-.09-1.13-.09-.88-1.13-2-.51-.5-.38-.47-1-.75C8.11,19.08,7.54,29,9,33.24Z"/><path class="cls-1" d="M11.51,17.73c.1,2.05-.16,4.19-.06,6.34S11.73,28,12,30a8,8,0,0,0,2-2.33C15,25.86,13.82,18.86,11.51,17.73Z"/><path class="cls-1" d="M43.4,10.38v3h-.22A3.93,3.93,0,0,0,42.77,12a2.56,2.56,0,0,0-.85-.82,2.64,2.64,0,0,0-1.14-.29,1.54,1.54,0,0,0-1.1.41,1.23,1.23,0,0,0-.41.92,1.08,1.08,0,0,0,.25.69,7.2,7.2,0,0,0,1.89,1.29,12,12,0,0,1,1.64,1,2.42,2.42,0,0,1,.67.82A2.26,2.26,0,0,1,44,17a2.16,2.16,0,0,1-.76,1.67,2.77,2.77,0,0,1-2,.73,5.53,5.53,0,0,1-.7-.07,4.41,4.41,0,0,1-.82-.22,2.73,2.73,0,0,0-.79-.22.35.35,0,0,0-.25.1.73.73,0,0,0-.12.41h-.23v-3h.23A3.59,3.59,0,0,0,39,17.79a2.31,2.31,0,0,0,.85.79,2.87,2.87,0,0,0,1.26.28,1.75,1.75,0,0,0,1.26-.41,1.35,1.35,0,0,0,.44-1,1.71,1.71,0,0,0-.15-.63,2.58,2.58,0,0,0-.54-.6c-.19-.12-.63-.41-1.36-.82a10.7,10.7,0,0,1-1.57-1,2.85,2.85,0,0,1-.73-.78A2.24,2.24,0,0,1,39,11a2.57,2.57,0,0,1,1.83-.66,3.32,3.32,0,0,1,1.45.34,1.52,1.52,0,0,0,.51.16.28.28,0,0,0,.25-.12,1,1,0,0,0,.19-.38Zm5,7.95a6.69,6.69,0,0,1-1.13.78,1.42,1.42,0,0,1-.73.16,1.22,1.22,0,0,1-1-.41,1.56,1.56,0,0,1-.22-1.8,2.78,2.78,0,0,1,.92-.82,11.86,11.86,0,0,1,2.14-.91v-.25a1.86,1.86,0,0,0-.28-1.17,1,1,0,0,0-.79-.35.92.92,0,0,0-.63.22.63.63,0,0,0-.25.51v.38a.58.58,0,0,1-.13.44.67.67,0,0,1-.41.16.55.55,0,0,1-.38-.16.8.8,0,0,1-.15-.47,1.22,1.22,0,0,1,.56-1,2.3,2.3,0,0,1,1.58-.48,2.91,2.91,0,0,1,1.26.26,1.08,1.08,0,0,1,.54.63,2.94,2.94,0,0,1,.12,1.1v2a5.57,5.57,0,0,0,0,1,.85.85,0,0,0,.09.22.22.22,0,0,0,.19.06h.16a6.8,6.8,0,0,0,.53-.47v.38c-.5.63-.94.94-1.38.94a.56.56,0,0,1-.48-.22,1.1,1.1,0,0,1-.18-.73Zm0-.41V15.71c-.66.25-1.07.44-1.26.53a2.83,2.83,0,0,0-.72.57,1.3,1.3,0,0,0-.19.66,1,1,0,0,0,.25.76.82.82,0,0,0,.63.32,2.41,2.41,0,0,0,1.24-.63Zm4.17-3.51a2.73,2.73,0,0,1,1.92-1.23,1.43,1.43,0,0,1,.82.26,1.57,1.57,0,0,1,.54.75A3.84,3.84,0,0,1,56,15.36v2.49a1.94,1.94,0,0,0,.1.76.4.4,0,0,0,.22.22,1.13,1.13,0,0,0,.57.09v.26H54v-.26h.12a.94.94,0,0,0,.57-.12.62.62,0,0,0,.22-.35v-3a2.5,2.5,0,0,0-.22-1.14.72.72,0,0,0-.69-.38,2,2,0,0,0-1.48.85v3.06a3,3,0,0,0,.06.73.75.75,0,0,0,.25.28,2.25,2.25,0,0,0,.63.06v.26H50.59v-.26h.13a.71.71,0,0,0,.6-.22,1.79,1.79,0,0,0,.16-.85V15.71a7.61,7.61,0,0,0-.07-1.26.38.38,0,0,0-.12-.32A.46.46,0,0,0,51,14a1.43,1.43,0,0,0-.41.09l-.09-.22,1.73-.73h.29Zm8.07,3.92a6.69,6.69,0,0,1-1.13.78,1.44,1.44,0,0,1-.73.16,1.19,1.19,0,0,1-1-.41,1.56,1.56,0,0,1-.22-1.8,2.69,2.69,0,0,1,.92-.82,13,13,0,0,1,2.14-.91v-.25a1.86,1.86,0,0,0-.28-1.17,1,1,0,0,0-.79-.35,1,1,0,0,0-.63.22.72.72,0,0,0-.25.51v.38a.64.64,0,0,1-.13.44.7.7,0,0,1-.41.16.55.55,0,0,1-.38-.16.81.81,0,0,1-.16-.47,1.23,1.23,0,0,1,.57-1,2.3,2.3,0,0,1,1.58-.48,2.91,2.91,0,0,1,1.26.26,1.08,1.08,0,0,1,.54.63,2.94,2.94,0,0,1,.12,1.1v2a8.34,8.34,0,0,0,0,1,1.47,1.47,0,0,0,.1.22.59.59,0,0,0,.35.06,4,4,0,0,0,.53-.47v.38a1.91,1.91,0,0,1-1.39.94.55.55,0,0,1-.47-.22,1,1,0,0,1-.19-.73Zm0-.41V15.71c-.66.25-1.07.44-1.26.53a2.88,2.88,0,0,0-.73.57,1.4,1.4,0,0,0-.19.66,1,1,0,0,0,.26.76.82.82,0,0,0,.63.32,2.58,2.58,0,0,0,1.24-.63Zm4.16-6.47v1.89h1.36v.44H64.75v3.79a1.43,1.43,0,0,0,.16.76.52.52,0,0,0,.41.18.6.6,0,0,0,.41-.12,1.3,1.3,0,0,0,.32-.38h.22a2.12,2.12,0,0,1-.6.95,1.55,1.55,0,0,1-.85.31,1,1,0,0,1-.57-.19.88.88,0,0,1-.41-.44,2.57,2.57,0,0,1-.13-.95V13.78h-.94v-.19a2.3,2.3,0,0,0,.72-.47,3,3,0,0,0,.67-.79c.09-.16.22-.44.41-.88Zm4.77,1.73a2.6,2.6,0,0,1,2.11,1,3.15,3.15,0,0,1,.69,2A3.61,3.61,0,0,1,72,17.73a2.7,2.7,0,0,1-1,1.19,2.58,2.58,0,0,1-1.46.41,2.43,2.43,0,0,1-2.08-1,3.29,3.29,0,0,1-.66-2,3.75,3.75,0,0,1,.38-1.58,2.81,2.81,0,0,1,1.07-1.17,2.6,2.6,0,0,1,1.27-.4Zm-.19.41a1.36,1.36,0,0,0-.7.23,1.15,1.15,0,0,0-.53.69,3.38,3.38,0,0,0-.22,1.26,4.83,4.83,0,0,0,.5,2.21,1.55,1.55,0,0,0,1.33.91,1.31,1.31,0,0,0,1-.5,2.82,2.82,0,0,0,.41-1.77,3.77,3.77,0,0,0-.67-2.39,1.38,1.38,0,0,0-1.17-.64Zm5.52-.41v1.33c.47-.88,1-1.33,1.48-1.33a.77.77,0,0,1,.57.23.6.6,0,0,1,.22.47.56.56,0,0,1-.5.6h0a.79.79,0,0,1-.5-.22A1.06,1.06,0,0,0,75.7,14c-.1,0-.16.06-.25.12a4.65,4.65,0,0,0-.6.85v2.78a1.64,1.64,0,0,0,.12.76,1.28,1.28,0,0,0,.29.28,1.54,1.54,0,0,0,.6.09v.26h-3v-.26a1.26,1.26,0,0,0,.66-.12.62.62,0,0,0,.23-.32v-4a.78.78,0,0,0-.16-.28A.52.52,0,0,0,73.3,14a1.33,1.33,0,0,0-.44.09l-.06-.22,1.77-.73Zm4.1-3a.53.53,0,0,1,.44.19.64.64,0,0,1,0,.91.6.6,0,0,1-.88,0,.55.55,0,0,1-.22-.47.6.6,0,0,1,.19-.44.61.61,0,0,1,.47-.21Zm.5,3v4.67a1.64,1.64,0,0,0,.1.73c.06.12.12.22.22.25a1.39,1.39,0,0,0,.57.09v.26H77.53v-.26a1.85,1.85,0,0,0,.57-.06.75.75,0,0,0,.25-.28,3,3,0,0,0,.06-.73V15.61a6.34,6.34,0,0,0-.06-1.23.27.27,0,0,0-.13-.25A.32.32,0,0,0,78,14a1.64,1.64,0,0,0-.44.09l-.1-.22,1.77-.73Zm4.48,0a2.59,2.59,0,0,1,2.11,1,3.1,3.1,0,0,1,.67,2,3.75,3.75,0,0,1-.38,1.58,2.53,2.53,0,0,1-1,1.19,2.67,2.67,0,0,1-1.48.41,2.49,2.49,0,0,1-2.08-1,3.4,3.4,0,0,1-.64-2,3.75,3.75,0,0,1,.38-1.58,3.06,3.06,0,0,1,1-1.17,2.76,2.76,0,0,1,1.37-.43Zm-.22.41a1.06,1.06,0,0,0-.66.23,1.24,1.24,0,0,0-.54.69,2.87,2.87,0,0,0-.22,1.26A4.52,4.52,0,0,0,82.8,18a1.52,1.52,0,0,0,1.32.91,1.27,1.27,0,0,0,1-.5,2.82,2.82,0,0,0,.41-1.77,3.82,3.82,0,0,0-.66-2.39,1.45,1.45,0,0,0-1.16-.66Z"/><path class="cls-1" d="M46.05,29.33a4.69,4.69,0,0,1,2.21,1,3.13,3.13,0,0,1,1,2.34,3.49,3.49,0,0,1-.66,2,3.87,3.87,0,0,1-1.83,1.41,10,10,0,0,1-3.57.45H36.56v-.38h.5a1.39,1.39,0,0,0,1.26-.57A3.07,3.07,0,0,0,38.58,34V24.89a2.67,2.67,0,0,0-.32-1.64,1.44,1.44,0,0,0-1.2-.48h-.5v-.38h6.08a12.69,12.69,0,0,1,2.75.26A4.52,4.52,0,0,1,47.79,24a3.4,3.4,0,0,1,.82,2.21,3,3,0,0,1-.67,1.89A3.64,3.64,0,0,1,46.05,29.33Zm-5.46-.6a5.31,5.31,0,0,0,.89.13h1.07a6.19,6.19,0,0,0,2.3-.31,2.59,2.59,0,0,0,1.17-1,3,3,0,0,0,.41-1.49,2.77,2.77,0,0,0-1-2.11,4.53,4.53,0,0,0-3-.85,6.86,6.86,0,0,0-1.86.22Zm0,6.82a10.22,10.22,0,0,0,2.4.28A4.28,4.28,0,0,0,45.86,35a2.74,2.74,0,0,0,1-2.11A3.16,3.16,0,0,0,45,30.09a6.26,6.26,0,0,0-2.53-.44h-1.1l-.73.09ZM53.9,26.72v2.14c.82-1.42,1.61-2.14,2.46-2.14a1.42,1.42,0,0,1,1,.34,1.13,1.13,0,0,1,.38.82,1,1,0,0,1-.28.7.86.86,0,0,1-.64.28,1.39,1.39,0,0,1-.82-.38,1.57,1.57,0,0,0-.66-.35.78.78,0,0,0-.41.19,5.61,5.61,0,0,0-1,1.42v4.58a2.76,2.76,0,0,0,.23,1.2,1.18,1.18,0,0,0,.47.47,2.15,2.15,0,0,0,1,.19v.38H50.69v-.38A2,2,0,0,0,51.76,36a.91.91,0,0,0,.38-.54,5.6,5.6,0,0,0,.06-1V30.72a11.13,11.13,0,0,0-.09-2,.74.74,0,0,0-.26-.47.6.6,0,0,0-.44-.16,2.51,2.51,0,0,0-.72.16l-.1-.38,2.87-1.16Zm6.75-5a1.08,1.08,0,0,1,0,2.15,1.1,1.1,0,0,1-1-1.08A1.12,1.12,0,0,1,59.9,22a1.16,1.16,0,0,1,.75-.3Zm.89,5v7.69a3.31,3.31,0,0,0,.12,1.17A.68.68,0,0,0,62,36a1.65,1.65,0,0,0,1,.16v.38H58.35v-.38a2.06,2.06,0,0,0,.92-.13,1.06,1.06,0,0,0,.37-.44,3.26,3.26,0,0,0,.16-1.2V30.72a13.33,13.33,0,0,0-.09-2c-.07-.22-.13-.38-.25-.44a.62.62,0,0,0-.41-.16,2.58,2.58,0,0,0-.73.16l-.13-.38,2.87-1.16Zm5.39-2.87V27h2.24v.69H66.93v6.19a2.06,2.06,0,0,0,.28,1.26.83.83,0,0,0,.7.31,1.3,1.3,0,0,0,.66-.19,1.5,1.5,0,0,0,.51-.66h.37a3.27,3.27,0,0,1-1,1.58,2.55,2.55,0,0,1-1.38.5,2.18,2.18,0,0,1-1-.25,1.51,1.51,0,0,1-.66-.79,3.54,3.54,0,0,1-.22-1.51V27.69H63.71v-.31a4,4,0,0,0,1.17-.79A5.31,5.31,0,0,0,66,25.3a12.7,12.7,0,0,0,.67-1.45Zm8.55,11.32a17,17,0,0,1-1.83,1.32,2.62,2.62,0,0,1-1.2.26,2.23,2.23,0,0,1-1.64-.67,2.45,2.45,0,0,1-.63-1.79,2,2,0,0,1,.32-1.2A4.09,4.09,0,0,1,72,31.73a23.09,23.09,0,0,1,3.5-1.51v-.38a3.06,3.06,0,0,0-.44-2,1.7,1.7,0,0,0-1.33-.53,1.41,1.41,0,0,0-1,.37,1.09,1.09,0,0,0-.38.79v.63a1,1,0,0,1-.22.73.81.81,0,0,1-.66.25.75.75,0,0,1-.63-.25,1.14,1.14,0,0,1-.25-.76,2.15,2.15,0,0,1,.91-1.64,4,4,0,0,1,2.5-.71,4.29,4.29,0,0,1,2.08.44,1.79,1.79,0,0,1,.91,1A5.47,5.47,0,0,1,77.21,30v3.21a11.61,11.61,0,0,0,.07,1.67.76.76,0,0,0,.15.41.39.39,0,0,0,.29.13.56.56,0,0,0,.31-.09,6.54,6.54,0,0,0,.82-.76v.6c-.75,1-1.51,1.58-2.24,1.58a1.1,1.1,0,0,1-.82-.35A2.3,2.3,0,0,1,75.48,35.17Zm0-.66V30.85a19,19,0,0,0-2,.91,3,3,0,0,0-1.17.95,1.74,1.74,0,0,0-.35,1.1,1.67,1.67,0,0,0,.4,1.19,1.28,1.28,0,0,0,1,.51A3.75,3.75,0,0,0,75.48,34.51Zm1.13-12.43-3.09,3.59h-.34l1.1-3.59Zm5.74,6.65c1.14-1.35,2.21-2,3.22-2a2.41,2.41,0,0,1,1.33.37,2.78,2.78,0,0,1,.91,1.3A5.86,5.86,0,0,1,88,30.31v4.1a2.7,2.7,0,0,0,.16,1.23.76.76,0,0,0,.35.38,1.79,1.79,0,0,0,.94.16v.38h-4.7v-.38H85a1.72,1.72,0,0,0,.92-.19,1.09,1.09,0,0,0,.38-.6,5.57,5.57,0,0,0,0-1V30.47a4,4,0,0,0-.3-1.89,1.16,1.16,0,0,0-1.14-.6,3.39,3.39,0,0,0-2.46,1.35v5.08a4.06,4.06,0,0,0,.13,1.2.92.92,0,0,0,.41.44,2.42,2.42,0,0,0,1,.13v.38H79.17v-.38h.22a1.08,1.08,0,0,0,1-.38,2.39,2.39,0,0,0,.25-1.39V30.85a14.46,14.46,0,0,0-.06-2.08.93.93,0,0,0-.26-.51.62.62,0,0,0-.41-.16,2.31,2.31,0,0,0-.69.16L79,27.88l2.87-1.16h.44Zm10.35-7a1.21,1.21,0,0,1,.76.32,1.17,1.17,0,0,1,0,1.51,1.06,1.06,0,0,1-1.5,0l0,0a1.06,1.06,0,0,1,0-1.51,1.15,1.15,0,0,1,.76-.35Zm.85,5v7.69a2.89,2.89,0,0,0,.16,1.17.65.65,0,0,0,.38.44,1.59,1.59,0,0,0,.91.16v.38H90.37v-.38a2,2,0,0,0,.94-.13,1,1,0,0,0,.38-.44,3.49,3.49,0,0,0,.13-1.2v-3.7a19.1,19.1,0,0,0-.07-2c-.06-.22-.12-.38-.25-.44a.62.62,0,0,0-.41-.16,2.51,2.51,0,0,0-.72.16l-.13-.38,2.87-1.16Zm10.79,6.21a5.24,5.24,0,0,1-1.51,2.9,3.74,3.74,0,0,1-2.5,1,3.62,3.62,0,0,1-2.84-1.36,5.33,5.33,0,0,1-1.23-3.69,5,5,0,0,1,1.36-3.66,4.24,4.24,0,0,1,3.22-1.41,3.53,3.53,0,0,1,2.3.75,2.05,2.05,0,0,1,.92,1.55.88.88,0,0,1-.26.63,1.2,1.2,0,0,1-1.64-.16,1.42,1.42,0,0,1-.25-.82,1.27,1.27,0,0,0-.41-1,1.49,1.49,0,0,0-1-.31,2,2,0,0,0-1.67.76A4.09,4.09,0,0,0,98,30.88a5.76,5.76,0,0,0,.82,3,2.6,2.6,0,0,0,2.27,1.32,3,3,0,0,0,1.86-.69,4.6,4.6,0,0,0,1.1-1.77Zm6-6.21a4.17,4.17,0,0,1,3.47,1.64A5,5,0,0,1,115,31.6a6.14,6.14,0,0,1-.63,2.59,4.34,4.34,0,0,1-4.1,2.66,4.09,4.09,0,0,1-3.44-1.7,5.33,5.33,0,0,1-1.07-3.28,5.85,5.85,0,0,1,.66-2.62,4.44,4.44,0,0,1,1.7-1.89,4.55,4.55,0,0,1,2.27-.64Zm-.34.69a2,2,0,0,0-2,1.48,5,5,0,0,0-.35,2.12,7.23,7.23,0,0,0,.82,3.59,2.49,2.49,0,0,0,2.18,1.48,2,2,0,0,0,1.67-.82A4.74,4.74,0,0,0,113,32.4a6.53,6.53,0,0,0-1.1-4,2.17,2.17,0,0,0-1.84-1Z"/></svg>