<svg id="Capa_1" data-name="Capa 1" xmlns="http://www.w3.org/2000/svg" viewBox="0 0 283.8 320.18"><defs><style>.cls-1{fill:#fff;}</style></defs><path class="cls-1" d="M214.79,200.56c0,8-.17,15,.16,22,.06,1.3,1.94,3.09,3.37,3.67,11.18,4.52,17.54,15.42,15.6,27.2-1.73,10.48-11.09,19-21.6,19.69-12.35.79-22.15-6-25.59-17.82s3.21-24.65,15.26-28.87c3.09-1.08,3.73-2.47,3.67-5.3-.14-6.49-.19-13,0-19.49.09-2.81-.78-4.3-3.51-5-4.16-1.08-8.26-2.38-12.92-3.74-3.76,9.06-7.63,17.86-11.1,26.81-10.27,26.5-20.39,53.06-30.57,79.59a4.94,4.94,0,0,1-.78,1.82c-1.67,1.58-3.37,4-5.24,4.22-1.42.14-3.86-2.39-4.59-4.23-5.49-13.74-10.59-27.63-16-41.41q-11.6-29.73-23.4-59.38c-1-2.44-2.18-4.78-3.37-7.38-3.19.94-6.06,1.74-8.89,2.63-8.82,2.77-7,.92-7.32,10.07-.1,2.67.53,4.1,3.38,5,10.35,3.41,15.36,11.13,16.27,21.7q1.63,18.91,3,37.84a28.08,28.08,0,0,1-.21,8.45c-1.79,7.31-12.69,12-19.24,8.18A5.73,5.73,0,0,1,79.08,282c.29-1.46,2.33-3.05,3.94-3.65,2.5-.93,6.47-.19,7.66-1.77,1.33-1.78.44-5.37.23-8.15-.92-12.12-1.82-24.24-3-36.34-.81-8.49-6.17-13.11-14.6-13.09-8.13,0-13.62,5.1-14.36,13.52-.81,9.29-1.47,18.59-2.19,27.89-.33,4.32-.55,8.65-1,12.95-.32,3.32.66,5.09,4.35,4.83s8.31-.31,8.25,4.7c-.07,5.51-5,4.69-8.79,4.64-9.38-.1-14.18-5.77-13.33-15.14,1.14-12.61,2.29-25.22,3-37.85.69-12.84,6.59-21.3,19.36-24.82v-9c-8.87,2.62-17.3,5.77-26,7.51-13.36,2.67-20.09,10-20.86,23.75-.44,7.75-2.6,15.39-3.85,23.11-.51,3.11-2.09,5.08-5.24,4.78C9.35,259.53,8.3,257,8.8,254c2-12,3.59-24,6.27-35.87,1.79-7.9,7.49-13.27,15.35-15.75,10.93-3.45,21.9-6.81,32.92-9.94,3.85-1.09,5.73-2.64,6.68-7.05,3.3-15.47,13-25.84,27.66-31.47-3.85-6.28-8-12.28-11.32-18.7-2.41-4.67-3.55-10-5.61-14.86-.61-1.46-2.28-3.29-3.67-3.47-6.35-.86-11.4-3.47-13-9.88-1.94-7.59-2.18-15.11,3.75-21.6a10.58,10.58,0,0,0,2.62-6.36c.27-14.66-.16-29.34.35-44A35.78,35.78,0,0,1,105.81.31q36-.63,72,0C196.92.62,212,15.86,213,35c.16,3,.62,6.13-.08,8.95-.49,2-2.51,4.6-4.23,4.93-3.06.58-4.6-2-4.73-5.08-.06-1.5,0-3,0-4.5-.1-17.67-11.12-29.51-28.65-29.79q-33.5-.54-67,0c-17.35.3-28.45,12.1-28.51,29.41-.06,15.16,0,30.32.08,45.49a4.81,4.81,0,0,0,.39,1.2L87.94,88c0-11.39,0-22.38,0-33.36,0-15.39,7.25-22.45,22.64-22.72,9-.15,17.41.25,25,6.36,4.43,3.6,10,2.59,14.37-.92,10.22-8.15,21.85-6.13,33-4.06,8.19,1.53,12.76,9.88,12.82,19.8.08,11.49,0,23,0,34.92l8.2-2.52c0-5.89,0-11.69,0-17.5,0-3.15.8-5.8,4.54-5.9s4.65,2.53,4.68,5.69c0,2.17,0,4.34,0,6.5-.1,5,.34,9.08,4.21,13.45,9,10.16,2.43,26.43-11,29.16-1.29.26-3.11,1.57-3.36,2.68-2.74,12.32-8.66,23-16.57,32.62a9,9,0,0,0-.81,1.63c10.91,4.07,19.38,11,24.45,21.47,1.64,3.41,3.23,7.09,3.63,10.78.42,4,2.52,5.24,5.78,6.19,11.16,3.27,22.31,6.56,33.4,10.07,9.45,3,14.9,9.72,16.58,19.39q7.13,41,14.09,82.1a14.17,14.17,0,0,1-12,16.21,30.49,30.49,0,0,1-4.49.18q-125.23,0-250.48,0c-9.58,0-15.5-4.29-16.52-12.4-.34-2.71.38-5.6.82-8.37,1.17-7.22,2.47-14.43,3.68-21.64.53-3.2,2-5.52,5.56-5s4.24,3.39,3.72,6.48c-1.2,7.21-2.44,14.42-3.82,21.6-1.56,8.11-.09,10.07,8,10.07H265.53c8.17,0,9.55-1.91,8.14-10-4.36-24.89-8.7-49.79-12.76-74.73-1.35-8.26-5.15-13.67-13.49-15.95C236.72,207.35,226.15,204,214.79,200.56ZM89.25,101.17c-2.06,21.15,6.69,37.62,21.45,51.16,11.6,10.65,25.67,14.78,41.15,11,20.62-5,32.25-19.85,39.94-38.57C195,117,195,109,194.38,101c-7.23-1.65-8.35-3-8.36-9.92,0-13.15,0-26.31,0-39.46,0-5.32-2.55-9.64-7.16-10-8.27-.59-16.69-2.24-24.37,3.77-7.16,5.6-16.06,6.24-23.36,1.05-7-5-14.27-5.52-22.14-5.31-7.68.2-11.25,3.62-11.28,11.29,0,12.49,0,25,0,37.46C97.66,98,96.86,99.09,89.25,101.17Zm77.41,67c-16.57,8-33.39,7.77-49.65.07-1.49,7-2.9,13.66-4.49,21.12l29.34,21.92,29.29-21.95C169.53,181.67,168.15,175.15,166.66,168.15Zm58.14,81.09a14.72,14.72,0,0,0-14.75-14.94,14.94,14.94,0,0,0-14.74,15,15.17,15.17,0,0,0,14.58,14.79A14.92,14.92,0,0,0,224.8,249.24Zm-83,36.42c9.53-13.58,8.45-28.15,3.09-43.34-1.27,0-2.74,0-4.22,0a18.91,18.91,0,0,0-2,.21C133.24,257.68,132.55,272.21,141.84,285.66ZM204,187.34c-1-12.58-14.51-25.14-26.33-25,0,5.09-.27,10.19.09,15.25.24,3.37,1.71,5.8,6.17,4.89,2.25-.46,4.88.48,7.25,1.1C195.41,184.7,199.6,186,204,187.34Zm-97.26-25c-12.88.15-27.19,13.8-26.68,24.93.83-.24,1.6-.49,2.39-.68,5.79-1.4,11.55-3.7,17.37-3.88,4-.12,5.7-1.39,6.06-4.59C106.46,172.87,106.47,167.59,106.72,162.31ZM132.4,216l-24.78-18.48-.66.64,9.94,24.5Zm34.42,6.69c3.43-8.56,6.66-16.63,9.9-24.69l-.79-.42L151.29,216Zm-15,4.19c-9.89-5.34-11.08-5.33-19.95.22C137.63,235.88,146.59,235.78,151.82,226.84ZM79.7,95.36l-6.39-1.09c-1.6,9-.57,14.52,6.1,12.55.09-1,.26-2.18.27-3.31C79.73,100.88,79.7,98.26,79.7,95.36Zm124.28,0c0,3.08,0,5.88,0,8.67a24.82,24.82,0,0,0,.31,2.82c6.6,1.91,7.69-3.61,6-12.6ZM120.11,230.71,127,248.65C129.35,238.38,128.13,235.16,120.11,230.71Zm43.11,1c-8.73,4.94-9.39,6.85-6.28,16.32C159.19,242.23,161.2,237,163.22,231.76Z"/></svg>