<svg id="Capa_1" data-name="Capa 1" xmlns="http://www.w3.org/2000/svg" viewBox="0 0 238.14 320.2"><defs><style>.cls-1{fill:#fff;}</style></defs><path class="cls-1" d="M55.9,186.31c.11,1.41.28,2.55.29,3.7,0,7.31,0,14.62,0,20.59-5,3.59-9.94,5.88-13,9.7-2.8,3.51-4.33,8.54-5,13.11-.83,5.72-.09,11.64-.25,17.47-.11,3.91,1.6,5.52,5.39,5.27,1.49-.09,3.19.43,4.45-.12,1.86-.81,3.41-2.32,5.09-3.54-1.52-1.2-3-2.5-4.6-3.55-.62-.41-1.6-.24-3.48-.46.42-6.26.25-12.58,1.42-18.63,1.24-6.42,7.86-10.69,14.18-10.4,6.69.31,12.8,5.12,13.6,11.82.67,5.54.14,11.22.14,16.81-.32.22-.56.52-.85.57-2.63.52-6.43-.18-6.15,4,.26,4,3.76,3.44,6.57,3.46,8.12,0,8.23-.05,8.23-8,0-4.5,0-9,0-13.49-.13-10-5.23-17.82-14.51-21.18-3.23-1.17-3.91-2.73-3.83-5.76.18-7.15.05-14.3.05-22.16H81.18c0-6.67.15-12.62-.12-18.56-.06-1.29-1.37-2.93-2.56-3.72-18.2-12-29.16-28.86-33-50.23a80,80,0,0,1-.87-13.94c-.09-20.67.39-41.34-.15-62C43.81,13.74,61.93-.52,81.62,0c24.81.68,49.65.14,74.48.18,21.7,0,35.92,14.26,36,36s.12,43.33,0,65c-.18,26.08-11.46,46.41-32.7,61.24-3,2.08-4.18,4.17-4,7.72.28,4.79.07,9.61.07,15.24H179.1c0,10.58.15,20.34-.18,30.09,0,1.24-2.41,2.68-4,3.54A17.29,17.29,0,1,0,199.4,239.6a16.76,16.76,0,0,0-8.87-20.54c-3-1.46-4-3.13-3.93-6.41.25-8.3.09-16.6.09-25.38a59.4,59.4,0,0,1,25.91,12.21c16.57,13.31,25.18,30.72,25.42,52,.24,20.66.07,41.32,0,62,0,6-.74,6.74-6.55,6.74H6.55c-5.79,0-6.53-.78-6.53-6.75q0-30.49,0-61C.08,219.17,22.5,192.43,55.9,186.31ZM51.37,78.07c.68,12.54-.18,24.93,2.31,36.61,5.65,26.5,22.37,44,48.74,50.61C128,171.7,150.11,164.3,168,145c17.66-19.09,18.06-42.6,16.44-66.91Zm37.7,91c0,8.64-.65,16.66.14,24.53,1.4,13.78,13.3,24.17,27.87,25.35,12.45,1,26.61-8.33,29.3-21,2-9.19,1.58-18.87,2.32-29.36C128.12,176.94,108.86,176.89,89.07,169ZM130.25,27.17c-2.15-10-5.5-13.55-12.41-13.28-6.51.25-9.79,4.13-11.26,13.31C96.93,29.09,93.13,32.41,93.14,39s4.1,10.19,13.44,11.67c1.36,9,4.83,13.2,11.14,13.55,6.57.37,10.22-3.58,12.65-13.71,8.58-1,12.73-4.46,13-10.89C143.73,32.59,140.18,29.24,130.25,27.17Z"/><path class="cls-1" d="M182.69,224.41c5-.13,10,4.67,10.18,9.76s-4.56,10-9.77,10.06a9.93,9.93,0,0,1-10-9.66A10.17,10.17,0,0,1,182.69,224.41Z"/><path class="cls-1" d="M117.85,147.39a26.6,26.6,0,0,1-18.5-7.48c-1.24-1.2-1-3.87-1.52-5.86,2,0,4.84-.78,6,.26,7.79,7.21,21.54,7.24,29.19-.11,1-1,3.92-.07,5.94,0-.38,1.88-.13,4.41-1.27,5.53C132.36,144.9,125.75,147.33,117.85,147.39Z"/><path class="cls-1" d="M85.87,87.76c3.81.85,7.66,1.31,11.13,2.69,1.39.55,2,3.16,2.89,4.83-1.62.73-3.22,2-4.88,2.09-5.82.26-11.66.26-17.48,0-1.62-.08-3.18-1.46-4.76-2.24.83-1.58,1.29-4,2.55-4.55C78.63,89.19,82.28,88.65,85.87,87.76Z"/><path class="cls-1" d="M160.49,98a28.79,28.79,0,0,0-19.64-.51c-1,.31-3.52-1.13-3.75-2.12-.3-1.34.5-3.92,1.57-4.44,7.74-3.77,15.72-3.52,23.46,0,1.05.48,1.82,3.09,1.55,4.5C163.48,96.53,161.45,97.27,160.49,98Z"/><path class="cls-1" d="M118.29,20c1.58,1.93,3,3.07,3.56,4.52s.27,3,.17,4.44c-.32,4.46,1.61,6.39,6.15,6.25,3.1-.1,7.69-1.21,7.72,3.7s-4.61,3.82-7.7,3.75c-4.47-.11-6.52,1.64-6.18,6.18.12,1.64.38,3.53-.28,4.9a5.14,5.14,0,0,1-3.61,2.48c-1,.08-2.18-1.49-3.16-2.44-.27-.27-.15-1-.2-1.45-.85-8.57-.88-8.41-9.71-9.79-1.57-.24-2.83-2.44-4.24-3.74a52.54,52.54,0,0,1,4.48-3.59c.59-.38,1.63-.06,2.46-.07,6.1-.07,6.88-.84,7-6.86,0-1.33-.25-2.8.22-3.95C115.51,23,116.74,22,118.29,20Z"/></svg>