<svg id="Capa_1" data-name="Capa 1" xmlns="http://www.w3.org/2000/svg" viewBox="0 0 500 153.54"><defs><style>.cls-1,.cls-4{fill:#154360;}.cls-2,.cls-5{fill:#a93226;}.cls-3{fill:#1b5870;}.cls-4,.cls-5{fill-rule:evenodd;}</style></defs><path class="cls-1" d="M54.86,24.84q-2.79,10.33-5.59,20.67c-2.13,7.86-4.3,15.72-6.36,23.6-.39,1.49-1.28,1.65-2.51,1.7-8.26.28-15-5.22-17-13.36-2.72-11-5.76-21.94-8.89-32.88V49.11c0,4.12.06,8.24,0,12.36a7.34,7.34,0,0,0,3.35,6.6c.52.36.75,1.15,1.11,1.75-.62.32-1.23.92-1.85.93q-7.44.12-14.88,0c-.62,0-1.23-.63-1.84-1a5.88,5.88,0,0,1,1.18-1.72,7.14,7.14,0,0,0,3.26-6.39q-.09-25.29,0-50.59c0-2.75-.85-4.86-3.26-6.35C.92,4.39.7,3.47.31,2.81a6.6,6.6,0,0,1,2.14-.89c7.33-.07,14.65,0,22-.07,1.72,0,2.39.85,2.8,2.37q4.56,17.22,9.23,34.42c.71,2.62,1.49,5.23,2.35,8.25.51-.67.87-1,1-1.31Q44.43,28.15,49,10.69c.62-2.35,1.11-4.75,1.95-7A3,3,0,0,1,53.16,2c7.47-.13,15-.1,22.43,0,.62,0,1.23.61,1.84.94-.34.61-.52,1.45-1,1.8-2.54,1.74-3.33,4.12-3.32,7.09q.11,24.49,0,49c0,3.05.8,5.52,3.39,7.32.51.35.66,1.2,1,1.82-.63.31-1.26.87-1.9.87q-11.44.11-22.89,0c-.64,0-1.28-.58-1.92-.88.35-.61.56-1.42,1.07-1.78a7.61,7.61,0,0,0,3.36-6.83c-.08-12.13,0-24.25,0-36.38Z"/><path class="cls-1" d="M218.69,1.86c5.79,0,11.62-.39,17.37.13a34.16,34.16,0,0,1,11.31,3.16c5.93,2.81,8.56,9.77,7.43,16.77a20.5,20.5,0,0,1-9.1,14.17c-1.63,1.13-1.7,2-.78,3.68,4.36,7.77,8.53,15.65,12.9,23.42A48.53,48.53,0,0,0,261.56,68a3.39,3.39,0,0,1,.74,1.71c0,.29-.73.89-1.12.88-4.79-.07-9.64.22-14.34-.49-5.14-.77-7.73-5-9.94-9.33-2.69-5.21-5.39-10.42-8-15.68a2.39,2.39,0,0,0-3-1.58c-5.36.88-5.38.82-5.37,6.33,0,3.89.05,7.78,0,11.67a6.62,6.62,0,0,0,3,6c.64.43.89,1.42,1.32,2.15-.76.35-1.51,1-2.26,1q-11.1.12-22.2,0a6.88,6.88,0,0,1-2.3-1c.45-.72.73-1.7,1.37-2.11a6.38,6.38,0,0,0,3-5.82q0-25.5,0-51a6.7,6.7,0,0,0-3.14-6c-.59-.39-.85-1.29-1.27-1.95a6.65,6.65,0,0,1,2.28-1c6.1-.08,12.21,0,18.31,0ZM220.54,22h0c0,3.66,0,7.32,0,11,0,1.4.53,2,1.88,1.78a46.47,46.47,0,0,0,6.65-1.52c8.27-2.91,12.37-11.49,9.25-19.3-1-2.41-2.5-4.46-5.43-4.54-3.5-.1-7,0-10.52-.05-1.39,0-1.87.56-1.85,1.91C220.58,14.82,220.54,18.4,220.54,22Z"/><path class="cls-1" d="M330.84,35.66c.12,6.71-.58,13.28-4.09,19.2-5.95,10-14.74,15.6-26.43,16.34-11,.68-20.39-2.84-27.74-11.27-5.43-6.24-7.48-13.6-7.62-21.73-.15-8.41.26-16.65,5.29-23.89C276.67,5.08,285.53.32,296.73,0c12.19-.33,22,4.32,28.92,14.46,3.61,5.26,4.93,11.24,5.18,17.52C330.88,33.22,330.84,34.44,330.84,35.66Zm-19,1.45c0-9.88-1.44-16.52-4.6-22.36C302.72,6.38,294,6,289.19,13.46a30.24,30.24,0,0,0-4.53,11.62,62.26,62.26,0,0,0,.09,21.4c1,5.36,2.84,10.5,7.17,14.23,2.66,2.29,5.63,3.17,9.09,1.63a13.63,13.63,0,0,0,6.31-6.06C311,49.83,311.58,42.7,311.85,37.11Z"/><path class="cls-1" d="M140.53,36.37c0-8.24,0-16.48,0-24.72a7.72,7.72,0,0,0-3.37-6.85c-.56-.4-.73-1.34-1.09-2,.71-.31,1.41-.9,2.11-.9,11.67,0,23.36-.35,35,.13,7.85.32,14.27,4,17.49,11.64,4.2,9.91,1.24,19.4-7.63,25.74-6.16,4.4-13.16,6.59-20.49,8-4.61.87-3.94-.14-4,4.74,0,3.36.06,6.71,0,10.07a6.3,6.3,0,0,0,2.77,5.45c.61.46.86,1.42,1.27,2.15a6.89,6.89,0,0,1-2.33.93q-11,.12-22,0c-.75,0-1.49-.66-2.24-1,.44-.72.72-1.68,1.35-2.13a7.16,7.16,0,0,0,3.13-6.47c-.07-4.12,0-8.24,0-12.36V36.37Zm18-12.7h0V28c0,1.52,0,3.05,0,4.57.1,5.71-1.22,6.33,5.78,4.37a17.4,17.4,0,0,0,11.79-22.43c-1.23-3.61-3.35-5.16-7.11-5.16-2.66,0-5.34.09-8,0-1.86-.08-2.58.54-2.53,2.46C158.62,15.75,158.54,19.71,158.54,23.67Z"/><path class="cls-1" d="M105.61,70.78c-6,0-11.9,0-17.85,0a8.46,8.46,0,0,1-2.54-.94,8.49,8.49,0,0,1,1.38-2.1,7.08,7.08,0,0,0,2.84-5.93q-.06-25.41,0-50.81a6.93,6.93,0,0,0-3-6.07c-.61-.44-.82-1.44-1.22-2.18a7.24,7.24,0,0,1,2.17-.82c12,0,24,0,35.93-.07a2.37,2.37,0,0,1,2.61,2c.86,3.23,1.78,6.46,2.59,9.71a3.84,3.84,0,0,1-.13,2c-.93.12-2.49.32-2.76-.14-2.92-4.93-7.67-3.92-12.08-3.9-6.75,0-5.78-.9-5.85,5.78,0,3.73.08,7.48,0,11.21-.06,2,.53,3,2.71,2.8a35.38,35.38,0,0,1,4.12,0,9.41,9.41,0,0,0,6.36-2.07c.79-.62,2.23-.4,3.37-.56a11,11,0,0,1,0,2.75q-1.53,6-3.31,11.88c-.23.76-1,1.36-1.54,2a9.12,9.12,0,0,1-1.84-1.5c-1.76-2.47-6.34-4-9-2.7a2.14,2.14,0,0,0-.82,1.65c-.06,5.57,0,11.14,0,16.7,0,1.44.7,1.83,2,1.82,3.43,0,6.87,0,10.3,0a7.12,7.12,0,0,0,5.58-3.13,3.82,3.82,0,0,1,2.16-1.28c1.47-.26,2.1.38,1.61,2a86.72,86.72,0,0,0-2.42,9c-.45,2.42-1.65,3-3.93,3-5.79-.13-11.59,0-17.39,0Z"/><path class="cls-1" d="M414.67,70.64c-6,0-12.06,0-18.08,0a7.91,7.91,0,0,1-2.52-1,7.49,7.49,0,0,1,1.41-2.11,6.92,6.92,0,0,0,2.92-5.91q0-25.28,0-50.57a7.38,7.38,0,0,0-3.17-6.49c-.58-.41-.84-1.28-1.25-1.94a6.79,6.79,0,0,1,2.33-1c6.33-.09,12.66-.06,19-.06,5.34,0,10.68.09,16-.06,2.14-.05,3.21.73,3.71,2.75.74,3,1.69,6,2.41,9a6.2,6.2,0,0,1-.35,2.27c-1-.18-2.55,0-2.87-.59-2.07-3.63-5.33-3.9-8.91-3.74-2.36.1-4.73,0-7.09,0-1.25,0-1.81.5-1.8,1.77,0,5.41,0,10.83.08,16.24A2.3,2.3,0,0,0,417.94,31a41.17,41.17,0,0,0,7.53,0c1.35-.16,2.58-1.19,3.89-1.74a10.82,10.82,0,0,1,2.73-.86c1.14-.16,1.74.41,1.38,1.65-1.3,4.54-2.52,9.1-3.92,13.6-.58,1.85-1.92,2-2.89.35-2.09-3.6-5.46-3.47-8.84-3.22-.5,0-1.32,1.06-1.33,1.64-.1,5.64-.05,11.29-.06,16.93,0,1.31.69,1.72,1.88,1.72,3.58,0,7.17,0,10.75-.05,2.32,0,4-1.3,5.39-3a3.94,3.94,0,0,1,2.15-1.31c1.33-.25,2,.44,1.64,1.89-.91,3.38-1.85,6.75-2.7,10.15-.38,1.55-1.27,2-2.8,2C426.72,70.61,420.69,70.64,414.67,70.64Z"/><path class="cls-1" d="M478.88,71.27c-10.25.22-19.1-2.27-26.09-9.42-7.25-7.41-10.44-16.53-10.18-26.82.26-9.71,3.23-18.47,10.17-25.49,8-8.11,17.74-10.87,28.89-8.51,2.15.46,4.27,1.1,6.4,1.67,1.4.37,2.66,1.18,3.89-.71.84-1.29,3.38-.52,3.83,1.06,1.38,4.83,2.66,9.69,4,14.55.35,1.29-.24,1.87-1.53,1.84a4.62,4.62,0,0,0-.91,0c-3.66.59-5.73-.54-7.37-4.32-3.79-8.8-15.61-9.64-22.27-2a22.4,22.4,0,0,0-5.1,12.72c-1.08,10,.45,19.44,6.66,27.52,6.93,9,16,10.91,26.18,5.76,4.53-2.28,4.25-2.35,4.57,2.65.21,3.2-1.3,4.71-3.83,5.91A36.49,36.49,0,0,1,478.88,71.27Z"/><path class="cls-1" d="M370.1,38c0,7.78,0,15.56,0,23.35,0,2.75.79,4.87,3.24,6.34.57.34.75,1.31,1.11,2-.63.32-1.26.91-1.89.92q-11.56.11-23.13,0c-.56,0-1.53-.51-1.57-.88a2.33,2.33,0,0,1,.72-1.92c3-1.85,3.57-4.69,3.56-7.9Q352,36.56,352,13.2c0-1.37-.38-2-1.79-1.94-3.05.05-6.13-.19-9.15.12-1.56.15-3,1.23-4.53,1.89a9.2,9.2,0,0,1-2.22,1c-1.36.21-2-.47-1.66-1.9.73-2.8,1.58-5.57,2.21-8.39.41-1.79,1.4-2.26,3.1-2.25q12.83.09,25.64,0c6.64,0,13.28-.05,19.92-.19,2.1-.05,3.22.64,3.63,2.79.47,2.46,1.28,4.86,1.83,7.31.16.73.1,2.15-.13,2.21-.89.23-2.26.43-2.78-.06-4.44-4.25-9.88-2-14.88-2.44-1.62-.15-1.31,1.38-1.31,2.38q0,12.15,0,24.28Z"/><path class="cls-2" d="M390.56,100.21q52.67,0,105.32,0c1.15,0,2.74-.63,3,1.44s-.32,2.81-2.39,2.88c-.68,0-1.37,0-2.06,0H286.13c-.92,0-2,.27-2.71-.12a3.28,3.28,0,0,1-1.5-2.24c0-.63.84-1.53,1.54-1.91s1.49-.08,2.25-.08Z"/><path class="cls-2" d="M108.72,99.29H213.77c1.69,0,3.7-.27,3.31,2.38a3.28,3.28,0,0,1-1.71,1.88,5.44,5.44,0,0,1-2.26.08H4.38c-.76,0-1.53,0-2.29,0-1.58,0-2.1-.76-2.09-2.28s.63-2.1,2.06-2c.76,0,1.53,0,2.29,0Z"/><path class="cls-3" d="M11.43,142.79c1-2.44,1.74-4.4,2.47-6.38a2.93,2.93,0,0,1,3.76-2.1,2.79,2.79,0,0,1,1.77,1.82c.41,4.78.6,9.57.89,14.36.1,1.65-.38,2.62-2.25,2.62s-2.94-.56-2.88-2.6a33.71,33.71,0,0,0-.2-5.08c-1.31,1.59-1.31,4.81-4.31,3.93-1.27-.38-2.16-2.08-3.1-3.05-.06,1.23-.15,2.93-.21,4.63-.07,1.86-1.24,2.18-2.8,2.16s-2.13-.92-2.06-2.35c.22-4.87.39-9.75.76-14.61a2.78,2.78,0,0,1,1.78-1.82c1.49-.34,3.1-.25,3.8,1.61C9.64,138.05,10.44,140.17,11.43,142.79Z"/><path class="cls-3" d="M372.21,145.14c0,1.89-.06,3.77,0,5.65.07,1.68-.65,2.32-2.29,2.33s-2.41-.66-2.41-2.29c0-4.65-.07-9.29.05-13.93,0-.88.78-2.42,1.28-2.45a4.61,4.61,0,0,1,3.36,1.05,30.93,30.93,0,0,1,3.05,4.79,2.54,2.54,0,0,0,1.38,1.12c0-1.56,0-3.12,0-4.67,0-1.88.94-2.54,2.71-2.54s2.36.94,2.35,2.61c-.05,4.49.06,9-.09,13.47a3.44,3.44,0,0,1-1.4,2.63,2.66,2.66,0,0,1-3.52-1.25c-1.32-2.22-2.66-4.42-4-6.62Z"/><path class="cls-3" d="M39.09,143.52c0-2.21,0-4.41,0-6.62,0-1.79.72-2.76,2.55-2.68,2.26.1,4.62-.07,6.77.5,4.61,1.21,6.61,5.4,5.84,11.39a8.17,8.17,0,0,1-8.1,7c-8.3.18-6.94.36-7.06-6.61C39.07,145.5,39.08,144.51,39.09,143.52Zm5.42.08c0,1,0,2,0,3,.1,1.84.83,2.22,2.5,1.38s2-2.6,1.94-4.3-.22-3.38-2-4.28c-1.61-.81-2.36-.37-2.44,1.5C44.47,141.78,44.51,142.69,44.51,143.6Z"/><path class="cls-3" d="M102.73,141.68v-5.24c0-1.69,1-2.21,2.53-2.22s2.5.56,2.5,2.24c0,4.65.07,9.3-.06,13.95,0,.87-.87,2.43-1.33,2.43-1.2,0-2.85-.33-3.52-1.17-1.6-2-2.73-4.37-4.53-6.56,0,1.89-.06,3.78,0,5.67.06,1.67-.7,2.31-2.32,2.33s-2.41-.65-2.41-2.29c0-4.65-.07-9.3.05-13.94,0-.87.81-2.41,1.3-2.44a4.43,4.43,0,0,1,3.33,1.09,55.94,55.94,0,0,1,4,6.32Z"/><path class="cls-3" d="M268,145.59c0,1.74,0,3.48,0,5.22s-.77,2.31-2.4,2.3-2.35-.62-2.32-2.31c.06-4.65,0-9.31.06-14,0-.83.68-2.34,1.06-2.35,1.15,0,2.77.18,3.39.95,1.61,2,2.77,4.31,4.69,6.42,0-1.45,0-2.91,0-4.37,0-1.66-.11-3.26,2.34-3.3s2.47,1.43,2.45,3.17c0,4.28.06,8.55-.08,12.82,0,.95-.56,2.4-1.27,2.72a2.81,2.81,0,0,1-3.69-1.4c-1.2-2-2.43-4-3.65-6Z"/><path class="cls-3" d="M259.44,143.72c.08,3.64-.75,6.91-4.33,8.64-4.23,2-10.21.64-11.4-5.33a17.54,17.54,0,0,1-.1-6.09c.77-4.77,3.87-7,8.73-6.76,3.76.21,6.76,3.46,7.09,7.71C259.48,142.5,259.44,143.11,259.44,143.72Zm-5.57.09H254a6.12,6.12,0,0,0-.23-2.46c-.53-.93-1.47-2.25-2.25-2.26s-2,1.19-2.37,2.12a11.12,11.12,0,0,0-.22,4c.05,1.62.62,3.25,2.44,3.3,2,0,2.48-1.66,2.55-3.38C253.89,144.72,253.87,144.27,253.87,143.81Z"/><path class="cls-3" d="M434,143.17c.07,4.24-.81,7.49-4.39,9.2-4.49,2.14-10.47.33-11.41-5.6a20.68,20.68,0,0,1,0-5.88c.61-4.37,3.67-6.83,8.08-6.77a7.79,7.79,0,0,1,7.65,7.11C434,142.06,434,142.91,434,143.17Zm-10.87.45a11.77,11.77,0,0,0,.75,3.34,3.17,3.17,0,0,0,2.22,1.52A2.51,2.51,0,0,0,428,147a28.74,28.74,0,0,0,0-6.49c-.07-.58-1.29-1.39-2-1.42a2.79,2.79,0,0,0-2.09,1.31A13.06,13.06,0,0,0,423.11,143.62Z"/><path class="cls-3" d="M393.46,153.14c-5.18,0-8.18-3.44-8.19-9.4s3-9.56,8.06-9.57,8.22,3.6,8.26,9.45S398.52,153.13,393.46,153.14Zm-2.75-9a4.71,4.71,0,0,0,.33,2.09c.5.88,1.43,2,2.22,2.08s1.89-1,2.41-1.86a5.82,5.82,0,0,0,.45-2.86c0-3-1.07-4.74-2.81-4.67S390.75,140.57,390.71,144.15Z"/><path class="cls-3" d="M177.05,153.14a7.39,7.39,0,0,1-7.58-7,31.3,31.3,0,0,1-.05-4.11c.24-4.56,3.2-7.7,7.33-7.84,4.79-.16,8,2.53,8.52,7.32a20.88,20.88,0,0,1,0,4.54C184.73,150.61,181.68,153.19,177.05,153.14Zm3-9.3c0-3.16-.87-4.83-2.58-4.9s-2.83,1.71-2.78,4.93c0,2.88,1,4.68,2.57,4.74C179,148.67,180,146.86,180,143.84Z"/><path class="cls-3" d="M158.58,146.08v4.75c0,1.84-1.11,2.28-2.7,2.27s-2.72-.43-2.73-2.26c0-4.8-.06-9.6.08-14.39,0-.73,1-2,1.57-2a21.58,21.58,0,0,1,6.77.26,5.69,5.69,0,0,1,3.38,8.87,2.9,2.9,0,0,0,0,3.66,39,39,0,0,1,2,3.87c.57,1.22.09,1.83-1.22,2-2.74.38-3.58-.08-4.73-2.71-.61-1.39-1.25-2.77-1.88-4.15C159,146.17,158.93,146.17,158.58,146.08Zm.21-7.25v4.69C161.25,141.45,161.27,140.12,158.79,138.83Z"/><path class="cls-3" d="M452.15,147.53c0,5.13-.49,5.58-5.77,5.61-3.58,0-6.46-1.24-8.05-4.54a10.34,10.34,0,0,1,.9-11.21c2.37-3.26,5.81-3.62,9.45-3,1.52.24,2.56,1,2.11,2.8-.39,1.56-1.12,2.41-2.92,1.92s-3.64-.18-4.67,1.8c-1,1.83-.75,5.24.61,6.44a7,7,0,0,0,2.22.91,13.59,13.59,0,0,0,.68-2c.28-1.57-.66-3.75,2.25-3.83,2.69-.07,3.16.32,3.19,3.09C452.16,146.16,452.15,146.84,452.15,147.53Z"/><path class="cls-3" d="M203.5,143.63c0-2.36,0-4.72,0-7.08a2,2,0,0,1,2.24-2.25c2.36,0,4.72,0,7.08,0,1.76,0,2.18,1,2.17,2.53s-.44,2.38-2.06,2.39a15.47,15.47,0,0,0-2.73.12c-.39.07-.7.6-1,.91a3.41,3.41,0,0,0,1,.68A10,10,0,0,0,212,141c1.66,0,1.69,1.21,1.7,2.41s-.33,2-1.79,2.1c-1,.07-2.86-.75-2.82,1.22s1.91,1.22,3,1.29c2.5.16,3.61,1,3.07,3a3.05,3.05,0,0,1-2,1.91c-2.49.24-5,.09-7.53.09-1.55,0-2.17-.86-2.16-2.32C203.51,148.35,203.5,146,203.5,143.63Z"/><path class="cls-3" d="M288.22,134.25c1.86-.25,2.78.63,3.29,2.38,1.32,4.53,2.85,9,4.14,13.54.22.8-.1,2.5-.51,2.62-1.45.42-3.29,1-4.21-.93-.55-1.16-.87-2.11-2.52-2s-2.68.25-3.3,2-2.42,1.37-3.78,1.07c-1.54-.35-1-1.61-.71-2.62,1.46-4.65,3-9.28,4.38-13.95A2.61,2.61,0,0,1,288.22,134.25Zm.16,8.07-.39-.09a5.57,5.57,0,0,0-.41,1.21,8.81,8.81,0,0,0,.1,1.92c0,.08.54.07.83.11,0-.61.13-1.23.12-1.84A7.56,7.56,0,0,0,288.38,142.32Z"/><path class="cls-3" d="M493.85,153.54c-.82-.79-2-1.44-2.36-2.4-.68-1.7-2-1.3-3-1.17-.8.1-2,.64-2.19,1.25-.76,2.32-2.48,2-4.09,1.68-.43-.08-1-1.33-.9-1.85,1.45-5,3-10,4.6-15,.47-1.5,1.64-1.83,3.06-1.81s2.61.16,3.09,1.72c1.57,5.08,3.21,10.14,4.68,15.25C497.32,153.31,495.51,153,493.85,153.54Zm-4.79-10.87h-.73a19.16,19.16,0,0,0-.05,2.62,7.58,7.58,0,0,0,1.7.24C489.59,144.32,489.33,143.5,489.06,142.67Z"/><path class="cls-3" d="M120.63,149.85c-2.14.15-4.35-.68-5.33,2.3-.19.6-2.51.51-3.85.74-.14-.88-.61-1.85-.38-2.62,1.4-4.74,3-9.42,4.43-14.14.52-1.65,1.68-1.94,3.18-1.93s2.58.26,3.08,2c1.35,4.67,2.9,9.28,4.34,13.93.32,1,1.13,2.4-.61,2.79-1.49.33-3.26.77-4.25-1.11A13.06,13.06,0,0,1,120.63,149.85Zm-1.2-4.45-.79-3.77C117.34,145.14,117.37,145.3,119.43,145.4Z"/><path class="cls-3" d="M336.24,143.66c0-2.28.05-4.57,0-6.85-.05-1.7.58-2.57,2.37-2.53,2.29.06,4.57,0,6.86,0,1.66,0,2.26.9,2.26,2.47s-.58,2.47-2.26,2.46a22.55,22.55,0,0,0-3,.12c-.33.05-.61.52-.92.8.31.26.58.67.94.77a5,5,0,0,0,1.59.06c1.63-.09,2.33.64,2.35,2.29s-.75,2.36-2.37,2.21c-.23,0-.51-.09-.68,0-.65.41-1.27.88-1.91,1.33a13.45,13.45,0,0,0,2,1.19,4.22,4.22,0,0,0,1.59,0c1.75-.08,2.71.6,2.72,2.5s-.85,2.57-2.66,2.51c-2.28-.08-4.57,0-6.85,0-1.42,0-2.1-.64-2.08-2.08,0-2.43,0-4.87,0-7.31Z"/><path class="cls-3" d="M24.29,143.43c0-2.21.05-4.42,0-6.63-.05-1.71.61-2.56,2.4-2.52q3.3.09,6.62,0c1.83,0,2.42,1,2.44,2.56s-.67,2.44-2.34,2.39a13.12,13.12,0,0,0-2.51.07c-.43.07-.81.5-1.21.77.44.3.87.61,1.32.88.11.07.3,0,.45,0,1.73-.15,3,.19,3,2.34s-1.34,2.28-2.93,2.16c-.3,0-.7-.09-.89.06-.42.32-1,.78-1,1.19a1.57,1.57,0,0,0,.95,1.2,11.19,11.19,0,0,0,2.72.13c1.65,0,2.58.65,2.6,2.42s-.87,2.61-2.67,2.58c-2.13,0-4.27-.06-6.4,0-1.83.06-2.65-.67-2.59-2.56C24.35,148.16,24.29,145.79,24.29,143.43Z"/><path class="cls-3" d="M141.65,134.17c5.16,0,7.91,2,8.26,5.94.32,3.71-1.59,6.47-5.36,6.94-2.21.27-2.63,1.22-2.49,3.09.12,1.68-.2,3-2.41,3-1.92,0-2.8-.7-2.76-2.69.07-4.27,0-8.54,0-12.81,0-3.14.26-3.39,3.36-3.46Zm.3,4.31c.3,1.63.53,2.89.76,4.16.52-.32,1.37-.54,1.51-1C144.66,140.26,144.43,139,142,138.48Z"/><path class="cls-3" d="M223.25,153.21a20.5,20.5,0,0,1-2.94-.33c-2.28-.56-2.65-1.43-2-3.64.41-1.35,1.14-1.56,2.41-1.26a12.91,12.91,0,0,0,3.34.29c.36,0,.84-.63,1-1.07.07-.23-.4-.76-.75-1a19.53,19.53,0,0,0-2.27-1,5.45,5.45,0,0,1-3.52-6.61,5.61,5.61,0,0,1,5.46-4.36,26.61,26.61,0,0,1,4.07.34c1.79.24,2.22,1.27,1.73,2.94s-1.39,2-2.9,1.28a2.62,2.62,0,0,0-1.56-.18,5.56,5.56,0,0,0-1.46.81,4.91,4.91,0,0,0,1,1.33,16.24,16.24,0,0,0,2.08.93c3.36,1.68,4.38,3.62,3.7,7-.52,2.56-3.17,4.42-6.41,4.5h-.91Z"/><path class="cls-3" d="M75.94,153.21c-3.82,0-6.8-1.53-8.21-5.06-1.6-4-1.33-8,1.62-11.37,2.54-2.9,6-3,9.48-2.29,1.25.26,2.17.9,1.64,2.39-.45,1.25-.69,2.76-2.73,2.22-1.78-.48-4-.51-4.54,1.42a11.39,11.39,0,0,0,0,6.34c.6,1.85,2.81,1.84,4.59,1.33,2-.56,2.37.75,2.8,2.09.5,1.57-.4,2.31-1.74,2.61A26.16,26.16,0,0,1,75.94,153.21Z"/><path class="cls-3" d="M464.82,143.77c0-6.66,4.21-10.44,10.71-9.52,1.28.18,3,.24,2.8,2.27-.17,2.19-1,2.55-3.32,2.54a6.27,6.27,0,0,0-4,1.39c-1.28,1.18-1.24,5.41,0,6.46a5.5,5.5,0,0,0,4,1.28c2.4-.53,3.1.64,3.42,2.44.39,2.19-1.46,2.24-2.81,2.42C469,153.93,464.83,150.37,464.82,143.77Z"/><path class="cls-3" d="M359.26,153.08c-3.62.2-6.55-1.16-8-4.5-1.76-4-1.64-8.09,1.24-11.63,2.39-2.95,5.75-3.19,9.21-2.56,1.34.25,2.51.77,2,2.61-.42,1.63-1.07,2.61-3,2.05-1.63-.46-3.29-.29-4.24,1.35a5.62,5.62,0,0,0,0,6.27c.75,1,2.7,1.58,4.1,1.57,2.51,0,3.14.17,3.38,2.35s-1.41,2.21-2.8,2.47A10.15,10.15,0,0,1,359.26,153.08Z"/><path class="cls-3" d="M189.12,143.53c0-2.28,0-4.57,0-6.85,0-1.62.63-2.4,2.28-2.39q3.42,0,6.85,0c1.69,0,2.23.88,2.23,2.45s-.42,2.53-2.17,2.48a8.58,8.58,0,0,0-2.27.08,5.26,5.26,0,0,0-1.51,1,13.09,13.09,0,0,0,1.41.8,2.08,2.08,0,0,0,.9,0c1.66-.11,2.32.67,2.31,2.31s-.28,2.84-2.19,2.67c-2.2-.19-2.85.87-2.63,2.84.06.53,0,1.07,0,1.6.13,1.85-.7,2.61-2.56,2.59s-2.73-.59-2.67-2.52C189.17,148.25,189.12,145.89,189.12,143.53Z"/><path class="cls-3" d="M323.8,146c0-1.6-.06-3.2,0-4.8.06-1.36-.48-2-1.84-1.93-1.82.08-2.67-.79-2.61-2.62s1.26-2.36,2.92-2.34c2.89,0,5.79,0,8.68,0,1.49,0,2.25.62,2.26,2.19s-.16,2.83-2.12,2.73c-1.78-.08-2.17.88-2.14,2.42.06,3,0,5.94,0,8.91,0,1.83-.74,2.6-2.61,2.57s-2.68-.7-2.58-2.59C323.87,149,323.8,147.49,323.8,146Z"/><path class="cls-3" d="M405,143.6c0-2.29,0-4.58,0-6.86,0-1.9,1-2.54,2.73-2.54s2.77.58,2.75,2.5c0,2.74,0,5.49,0,8.23,0,3,0,3,3,3.09,1.56,0,2.65.35,2.71,2.25s-.61,2.87-2.63,2.8-4.11,0-6.17,0a2.05,2.05,0,0,1-2.38-2.36C405,148.33,405,146,405,143.6Z"/><path class="cls-3" d="M299.1,143.58c0-2.28.06-4.57,0-6.86-.07-1.93.89-2.52,2.66-2.53s2.64.74,2.59,2.61c-.08,2.59,0,5.18,0,7.77,0,3.14-.48,3.61,3.29,3.46,2-.08,2.54,1,2.49,2.69,0,1.54-.65,2.41-2.35,2.35a59,59,0,0,0-5.95,0c-2.14.12-2.83-.84-2.72-2.86C299.19,148,299.1,145.79,299.1,143.58Z"/><path class="cls-3" d="M89.51,143.87c0,2.36,0,4.72,0,7.08,0,2-1.25,2.14-2.76,2.15s-2.48-.47-2.47-2.2c0-4.81,0-9.61,0-14.41,0-1.88,1-2.29,2.64-2.29s2.64.5,2.6,2.35C89.47,139,89.51,141.43,89.51,143.87Z"/><path class="cls-3" d="M461,143.79c0,2.35,0,4.71,0,7.06.05,1.72-.84,2.24-2.39,2.26s-2.75-.24-2.74-2.15c0-4.86,0-9.73,0-14.59,0-1.9,1.2-2.19,2.74-2.16s2.43.58,2.39,2.28C460.94,138.92,461,141.36,461,143.79Z"/><path class="cls-3" d="M234.44,143.42c0-2.35,0-4.71,0-7.06,0-1.77,1.08-2.12,2.54-2.15s2.61.29,2.62,2q0,7.41,0,14.81c0,1.79-1.17,2.05-2.63,2s-2.54-.39-2.52-2.15C234.46,148.44,234.44,145.93,234.44,143.42Z"/><path class="cls-3" d="M63.1,143.63c0,2.43-.05,4.87,0,7.3,0,1.78-.92,2.2-2.45,2.17s-2.58-.29-2.57-2.1c0-4.87,0-9.75,0-14.62,0-1.78,1-2.15,2.5-2.17s2.56.29,2.52,2.11C63.05,138.75,63.09,141.19,63.1,143.63Z"/><path class="cls-3" d="M431.37,130.27c-1.61,3.18-4.39,4.34-6.71,2.9C425.57,130.05,428.19,128.88,431.37,130.27Z"/><path class="cls-4" d="M235.71,117.12c3.53,1.1,8.91-3.44,10.63-5.35l5.19-5.45c3.75-4,11.87-12.61,16-16a24.83,24.83,0,0,1,3.14-2.26c1.46-.84,2-1,2.84-2.5A73.89,73.89,0,0,0,277.37,79c-4.86.1-16.46,9.11-19.19,12.06l-15,15.6c-2.65,3-7.18,8.34-11.67,8.82Z"/><path class="cls-4" d="M224.76,88c1.6,1.69,1.21,5.25,1.21,8s.5,5.63.58,8.36a23.15,23.15,0,0,0,1.12,7.72c1.21,3.21,2.19,3.34,6.21,2.53a11.19,11.19,0,0,1-1.12-3.47c-.45-3.5-.56-8.46-.7-12.1-.22-8,.62-7.36-3.57-10A4.83,4.83,0,0,0,224.76,88Z"/><path class="cls-5" d="M239.42,118.29c2.26,1.39,3.65.74,5.91-.33a14.25,14.25,0,0,0,4.3-3.24l9.2-9.47c1.8-1.85,5.88-6.26,7.56-7.39a5.7,5.7,0,0,0,1.88-1.73,34.65,34.65,0,0,0,2.34-5c-2.61.71-5.9,5-8,6.67a15.62,15.62,0,0,0-1.87,1.76L259,101.42l-10.75,11c-1.41,1.22-2.14,2.53-3.72,3.52C240.92,118.22,241.08,117.42,239.42,118.29Z"/><path class="cls-4" d="M243.57,119.87c3.71.85,3.76,1,8.36-1.81,3-1.82,7.41-7.36,10.95-10.64,1.84-1.75,1.3-.13,2.12-3.14a32.39,32.39,0,0,0,1.13-3.8c-1.22.68-4.22,3.86-5.37,5l-7.83,7.93c-.81.92-1.69,1.69-2.44,2.64C248.1,119,244.07,119.58,243.57,119.87Z"/><path class="cls-5" d="M235.71,113.19c2.83-1.19,1.76-3,1.57-3.89-1.22-6.35-.18-9.83-.54-13.23-.11-1.16-.11-.9-1.37-2.06a2.71,2.71,0,0,0-1.22-.77C234.63,98.63,233.93,108.83,235.71,113.19Z"/><path class="cls-4" d="M238.76,97.24c.12,2.11-.19,4.31-.07,6.52a60.65,60.65,0,0,0,.61,6.06,8.68,8.68,0,0,0,2.43-2.4C243,105.6,241.57,98.4,238.76,97.24Z"/></svg>