<svg id="Capa_1" data-name="Capa 1" xmlns="http://www.w3.org/2000/svg" viewBox="0 0 296.34 319.97"><defs><style>.cls-1{fill:#1a5276;}</style></defs><path class="cls-1" d="M168.46,291.69a67.13,67.13,0,0,1-40.48,0v16.18c0,2.16,0,4.33,0,6.49-.09,3-1.21,5.44-4.5,5.56-3.59.13-4.9-2.39-4.93-5.6-.07-7.33-.18-14.67,0-22,.09-3.34-.83-5.39-3.85-7.23-3.94-2.4-7.4-5.61-11-8.62-2.55-2.15-4-4.84-1.1-7.66s5.37-1.24,7.78,1.07c14.2,13.62,31,18.12,50.17,14.16,23.72-4.91,41.91-28.26,41.59-53.24s-19.34-47.08-43.25-51.9a54,54,0,0,0-64.52,53.8c0,5.71,1.79,11.46,3.19,17.08.82,3.3,1.94,6.56-2.12,8-4.28,1.49-5.8-1.76-6.94-5.17a62.71,62.71,0,0,1,0-41.63c1.1-3.14.71-5-1.7-7.31C75,192.21,63.36,180.53,51.63,168.93c-3.35-3.31-7.19-4.14-11.33-1.71a8.3,8.3,0,0,0-4,10.29c.65,2.1,2.34,4,3.88,5.69q17.16,18.86,34.45,37.59c1,1.1,2.5,2.17,2.75,3.45.34,1.73.35,4.48-.69,5.29-1.31,1-3.9,1-5.76.62-1.23-.26-2.2-1.93-3.21-3-11.85-12.87-23.64-25.8-35.54-38.62a21.58,21.58,0,0,1-6-15.4q.06-32.49,0-65c0-7.56-3.82-13-10.17-14.91-5-1.51-6.79-.22-6.8,5q0,18.24,0,36.5c0,3.53.5,7.72-4.66,7.63-4.72-.08-4.45-4-4.44-7.42,0-12,0-24,0-36,0-10.65,1.55-12.79,10.67-15.89C11.92,72.92,12,63,14.21,53.6,21.39,22.51,51.35-.71,82.25,0a60.57,60.57,0,0,1,55.81,80.69c-1.65,4.71-2.47,9.7-3.6,14.28,1.56.76,1.84.92,2.14,1,8.79,3.25,16.18-.1,23.67-4.46,3.95-2.3,8.73-3.13,13-4.83,3.38-1.32,5.77-.16,6.77,2.93,1.11,3.41-1.22,5.11-4.22,6.16-4.38,1.53-8.75,3.12-13.05,4.88-2.28.94-4.4,2.3-7.07,3.73,17.56,20.18,20.12,41.76,7,64.51,7.29,3.7,15.12,6.65,21.73,11.31s11.9,11,18.69,17.45c4.42-4.63,9.49-10,14.67-15.35,4.31-4.41,8.52-9,13.21-12.94,3.27-2.79,3.08-5.12,1.24-8.52a68.74,68.74,0,0,0-22.78-24.74c-4.43-3-8.79-6-13.2-9-2.8-1.89-4.62-4.27-2.35-7.46s5.17-2.08,7.87-.21c5.47,3.81,11.12,7.37,16.36,11.47,2.76,2.17,5.23,2.9,8.57,1.93,4.46-1.31,9.15-1.9,13.51-3.44A31.3,31.3,0,0,0,260.36,93C259,86.81,254.7,83,249.09,83S239.26,86.71,237.9,93c-2.08,9.6-7.83,12-16.9,8.3-7.31-3-15.08-5-22.77-7-3.17-.82-5.52-1.82-5.12-5.37s3.26-4.65,6.3-3.89c9.59,2.38,19.11,5.06,28.78,7.65,1.51-9.23,6.37-16.95,17.33-18.68,11.49-1.81,19.08,3.78,23.42,13.68,4.51-1.53,8.6-3.36,12.9-4.27,7.76-1.65,14.38,3.79,14.4,11.77.09,31,.24,62-.2,93-.07,4.81-2.3,10.09-5,14.24-4.2,6.56-9.6,12.35-14.51,18.45-2,2.52-4.39,4.54-7.56,1.87s-1.82-5.28.27-7.86c4.41-5.43,9.26-10.59,13-16.45,2.47-3.87,4.63-8.74,4.7-13.2.41-29,.22-58,.2-87,0-5.45-1.93-6.73-7.2-4.92-6.25,2.15-9.75,7.26-9.77,14.67-.05,21.17-.12,42.33,0,63.5a24.57,24.57,0,0,1-6.94,18.05c-11.22,11.87-22.15,24-33.19,36-.68.73-1.39,1.44-2,2.19-2.35,2.71-5.07,5.07-8.39,1.9-3.12-3-.94-5.69,1.36-8.16,6.46-7,12.86-14,19.29-21,5.64-6.14,11.33-12.22,16.9-18.42,4.29-4.77,4.44-10,.59-13.75s-9.09-3.39-13.69,1.14c-11.77,11.56-23.4,23.26-35.23,34.76-2,2-2.08,3.65-1.25,6.11,9.84,29.32-.58,58.59-26.51,75.34a7.81,7.81,0,0,0-3.05,5.38c-.35,7.32-.14,14.66-.14,22,0,3.41-.53,6.79-4.79,6.76s-4.72-3.44-4.71-6.83C168.47,306.25,168.46,299.44,168.46,291.69Zm-74.67-92.8c15.49-20.36,29.32-28.77,50.52-29.92,6.37-.35,9.78-2.81,12.05-8.15.71-1.68,1.68-3.26,2.35-4.95,6.39-16.09,1.15-35.87-12.42-47.11a11.7,11.7,0,0,0-13-1.85,11.11,11.11,0,0,0-6.91,10.7c0,4.86.87,9.69,7,10.85,1.11.2,2.58.7,3.05,1.53.95,1.69,2.25,4.08,1.68,5.48s-3.18,2.34-5,2.7c-1.26.24-2.82-.81-4.18-1.41-9.83-4.31-20-7.79-30.76-7.73-11.11.07-22.21,1.14-33.3,1.84-3.07.2-5.94,0-6.64-3.63-.77-4,2-5.65,5.21-5.82,13.26-.67,26.54-1.28,39.81-1.42,4.51,0,9,1.36,14.1,2.19-1.07-8.91,1.26-16.18,8.06-21.77.72-.6.45-2.4.62-3.65.72-5.53.67-11.31,2.33-16.54,3.19-10,4.87-19.88,2.75-30.39-4.84-24-29.18-42.58-53.47-40.47-34.63,3-60.92,35.8-56.26,70.36.33,2.41,1.26,5.59,3,6.82,8.36,5.81,11.62,13.68,11.5,23.56-.18,14.16,0,28.33,0,42.5v6c11.25-4.61,19-.52,26.1,7.14C72.2,176.84,82.9,187.59,93.79,198.89Zm147.61-41.3h18.85V126.9c-8.23,9.22-18.25,12.73-29.31,14.57Z"/><path class="cls-1" d="M132.82,216.09c0-5.16.08-9.63,0-14.1-.09-4.3,1.66-6.54,6.18-6.46q9.22.15,18.47,0c4.51-.07,6.28,2.16,6.19,6.46-.1,4.47,0,8.94,0,14.1,2.85,0,5.27,0,7.69,0,14.63-.32,13,.76,13,13.18,0,3.49,0,7,0,10.48,0,6.47-1,7.37-7.62,7.4h-13c0,5.06-.08,9.67,0,14.28s-2.06,6.65-6.68,6.53q-8.75-.22-17.48,0c-4.62.12-6.78-1.87-6.68-6.53s0-9.22,0-14.28c-5.12,0-9.58-.11-14,0s-6.82-1.62-6.67-6.43c.19-6.15.15-12.31,0-18.47-.09-4.25,2-6.12,6-6.16C122.78,216.05,127.42,216.09,132.82,216.09ZM175,226.44a6.21,6.21,0,0,0-1.36-.49c-3.49,0-7-.1-10.47-.11-8,0-9-1-9-8.77V205.22H142.26v8.64c0,12,0,12-11.76,12h-8.93v11.91c5.06,0,9.84.05,14.63,0,4.15-.07,6.13,1.84,6.07,6-.07,4.77,0,9.54,0,14.39h11.92c0-4.77,0-9.23,0-13.68.06-5.52,1.2-6.65,6.84-6.71,4.59-.05,9.2,0,14,0Z"/><path class="cls-1" d="M9.24,173.94c-2.88,13.69,3.28,23.85,11.87,33.84,14.31,16.65,27.48,34.28,41.62,51.09C73.23,271.34,77.21,285.1,73.92,301c-.94,4.56-1.6,9.17-2.36,13.76-.52,3.11-1.82,5.65-5.43,5.1-3.93-.59-4.28-3.67-3.81-6.9.7-4.77,1.24-9.58,2.27-14.28,2.65-12,0-22.62-7.8-32.18C40.67,246.81,24.88,226.82,8.65,207.2,2.72,200-.5,192.43.06,183c.44-7.31.15-14.65.07-22,0-3.26,1-5.84,4.53-5.87s4.69,2.46,4.6,5.78C9.16,165.28,9.24,169.61,9.24,173.94Z"/><path class="cls-1" d="M221.12,291.23c.45-10.51,2.52-19.07,8.06-26.28,8-10.43,16.4-20.56,24.63-30.82,2.1-2.61,5.09-3.62,7.2-1.07,1.16,1.4,1.08,5.3-.07,6.89-5.38,7.4-10.83,14.86-17.17,21.41C231.53,274,228.49,288.45,232.72,305c.78,3,1.58,6.29,1.3,9.33-.18,2-2.34,3.73-3.61,5.58-1.75-1.37-4.71-2.48-5.07-4.15C223.49,307.21,222.31,298.47,221.12,291.23Z"/><path class="cls-1" d="M68.49,61.94a34.49,34.49,0,0,1,4.09.91c3,1,4.7,3.44,3.24,6.1-.87,1.58-4,3-5.87,2.75-6.08-.77-9.16,1.21-9.62,7.27a12,12,0,0,0,6,11.76c2.94,1.82,5.5,3.88,3,7.51s-5.5,2.07-8.32.26c-9.79-6.27-13.18-20-7.21-29.39C56.91,64.26,61.37,61.76,68.49,61.94Z"/><path class="cls-1" d="M102.64,82.22c3.3,1,6.68,1.72,9.86,3,2.81,1.11,4.52,3.71,2.62,6.31-1.08,1.48-4.06,2.15-6.19,2.17-2.72,0-5.44-1.31-8.18-1.43-3.47-.15-6.24-1.31-6.17-4.89s3-4.81,6.4-4.56c.49,0,1,0,1.49,0Z"/></svg>