<svg id="Capa_1" data-name="Capa 1" xmlns="http://www.w3.org/2000/svg" viewBox="0 0 431.21 187.76"><defs><style>.cls-1{opacity:0.5;}.cls-2{fill:#fff;}</style></defs><g id="svg_2" data-name="svg 2" class="cls-1"><path id="svg_36" data-name="svg 36" class="cls-2" d="M.16,6.15C.88,2.59,2.81.69,6.34.15A15.28,15.28,0,0,1,8.87,0h92.8c6.15,0,8.87,2.75,8.87,8.92V179.31c0,5.8-2.61,8.45-8.42,8.45H8.54c-3.44,0-6.45-.81-7.92-4.59,0-1.78-.19-3.32-.19-4.85V8.62C.43,7.79.27,7,.19,6.14M81.69,156c-.53-.66-1.1-1.29-1.58-2L58.78,123.31c-2.55-3.71-5-7.5-7.53-11.36a80.26,80.26,0,0,0,20.49-10.2c15.56-11,19.2-22.33,15.54-39.16-3.1-14.28-11.59-24.88-24-32.28-13.37-8-28.07-10.26-43.39-9.47-2.63.14-5.25.55-8.22.88,3.57,1.58,6.83,2.84,9.93,4.42,12,6.13,21.92,14.53,28.13,26.76,6.94,13.61,4.33,28.41-6.86,38.82-6.18,5.78-13.57,9.47-21.47,12.2-4.23,1.46-8.59,2.59-13,3.89l.94,1.51c10.12,14.7,20.32,29.34,30.27,44.14,6.31,9.39,15.09,13.66,26.16,13.72h34.69A34.44,34.44,0,0,1,81.66,156Z"/></g><g id="svg_3" data-name="svg 3" class="cls-1"><path id="svg_37" data-name="svg 37" class="cls-2" d="M141.18,113v9.71a27,27,0,0,0,3.23.31q11.86-.3,23.73-.69A3.62,3.62,0,0,0,172,119c.51-2.93,1.19-5.84,1.82-8.92h4.49c-.34,6.06-.63,12.08-1.09,18.08a2.34,2.34,0,0,1-1.66,1.55c-3.82.26-7.65.41-11.48.42H118c-.56-2.07-.26-3.55,1.87-4.22,3.32-1,4.12-3.54,4.14-6.75,0-6.1.49-12.2.51-18.31q0-18.9-.13-37.82c0-1.88-.15-3.76-.36-5.63-.26-2.48-.77-3-3.24-3.29-2.11-.26-4.23-.45-6.41-.68V48.62h59.3c1.69,0,2.5.51,2.26,2.41-.63,5.09-1.13,10.19-1.69,15.41h-4.63c0-2.1.08-4.16,0-6.21-.13-3-.5-3.4-3.45-3.86a96.25,96.25,0,0,0-24.1-.55c-1.25,9.47-.77,19-.88,28.78h12.24c2.34,0,4.67,0,7-.14,2.76-.08,3.22-.45,3.64-3.23.28-1.84.41-3.71.62-5.66h4.44V101H164.4c-.16-2.07-.32-4.19-.47-6.3A3.28,3.28,0,0,0,161,91.31,99.72,99.72,0,0,0,141.23,91Z"/></g><g id="svg_4" data-name="svg 4" class="cls-1"><path id="svg_38" data-name="svg 38" class="cls-2" d="M428.57,130.14H394.46v-4.83c2.22-.2,4.35-.3,6.45-.6,2.31-.33,2.86-1.13,2.09-3.28-1.93-5.42-4-10.79-6-16.25H372.93c-1.94,0-4.35-.61-5.69.31s-1.63,3.38-2.26,5.2c-1.13,3.24-2.25,6.48-3.21,9.76-.83,2.86-.21,3.77,2.74,4.23,2,.32,4,.42,6.14.64v4.61H343.9v-4.87h2.43c3.15,0,5.39-1.22,6.64-4.32,2.66-6.6,5.57-13.09,8.24-19.69,7-17.22,13.83-34.47,20.8-51.69.24-.57,1.14-.9,1.79-1.25a2.11,2.11,0,0,1,1,0c2,.06,4.42-.53,5.88.39s1.75,3.32,2.52,5.1c9.62,22.29,19.29,44.56,28.78,66.91,1.35,3.17,3.32,4.57,6.6,4.55.77,0,1.54.07,2.44.12v5h-2.41M383.39,73l-1.84-4.45-11.93,30H394C390.46,90,387,81.63,383.39,73Z"/></g><g id="svg_5" data-name="svg 5" class="cls-1"><path id="svg_39" data-name="svg 39" class="cls-2" d="M337.15,64.77c.76-2.22,1.55-4.28,2.13-6.4.82-3,.06-4-3-4.28-2-.17-4.1-.37-6.26-.57V48.75h27.21v4.79a14.52,14.52,0,0,1-2.93.45c-3.23-.12-4.75,1.87-5.87,4.48-4.37,10.17-8.87,20.28-13.1,30.51-5.65,13.63-11.09,27.34-16.62,41a5.33,5.33,0,0,1-.31.58c-2.58,0-5.18.08-7.77-.07A2.57,2.57,0,0,1,309,129c-4-9.62-7.87-19.3-11.91-28.9-5.52-13.12-11.16-26.2-16.76-39.29-.28-.65-.73-1.24-1-1.9-1.4-4.08-4.48-5.42-8.49-5.26a11.41,11.41,0,0,1-1.17,0,1.93,1.93,0,0,1-.46-.16V48.8H307v4.69c-2.17.21-4.34.36-6.5.66-2.48.34-3.28,1.41-2.45,3.73,1.8,5.06,3.74,10.08,5.75,15.05,4.88,12,9.84,24.08,14.76,36.11.12.28.28.55.69,1.35C325.33,94.94,331.2,79.92,337.15,64.77Z"/></g><g id="svg_6" data-name="svg 6" class="cls-1"><path id="svg_40" data-name="svg 40" class="cls-2" d="M194.46,59.31c-2.26-2.94-5-4.36-8.79-3.61V51.22l18.09-3.91a2.7,2.7,0,0,1,1.58.29A20.78,20.78,0,0,1,212.51,54c6.26,8.74,10.85,18.42,15.73,27.93.83,1.61,1.62,3.24,2.52,5a15.27,15.27,0,0,0,1.16-1.61Q242.18,67.69,252.38,50a2.44,2.44,0,0,1,2.54-1.52c2.45.13,4.91,0,8,0a23.93,23.93,0,0,1-1.62,4c-7.64,12-15.4,23.81-23.11,35.66a18.59,18.59,0,0,0-3.1,11.23c.28,6.88.29,13.76.5,20.64.12,3.71,1,4.45,4.69,4.69,1.75.11,3.49.27,5.35.42V130H208v-4.87l6.38-.43c2.46-.17,3.21-.73,3.28-3.11q.38-11.76.51-23.56a7.69,7.69,0,0,0-1-3.49c-6.25-11.73-12.79-23.29-21.26-33.62C195.46,60.36,195,59.89,194.46,59.31Z"/></g><g id="svg_7" data-name="svg 7" class="cls-1"><path id="svg_41" data-name="svg 41" class="cls-2" d="M130.13,158.31v10.37h-2.37V150.49h3.51c1.67,4.9,3.35,9.83,5.17,15.2.72-2,1.32-3.71,1.89-5.39.82-2.38,1.6-4.78,2.42-7.17,1-2.92,1-2.92,4.27-2.58v18.09h-2.16v-14l-.4-.07c-1.43,4.25-2.82,8.51-4.34,12.73a2.85,2.85,0,0,1-1.6,1.43c-.91.33-1.43-.17-1.75-1.2-1.16-3.77-2.47-7.49-3.73-11.22a2.42,2.42,0,0,0-.91-1.33Z"/></g><g id="svg_8" data-name="svg 8" class="cls-1"><path id="svg_42" data-name="svg 42" class="cls-2" d="M409.51,159.87v8.67c-1.9.7-1.77-.81-2.16-1.92a8.52,8.52,0,0,1-7.94,2.41c-4.22-.94-6.8-4.83-6.61-9.75.27-7.21,6.56-11.41,12.63-8.44a6.19,6.19,0,0,1,3.66,4.93c-1.28.37-2.23.32-2.93-1.18-1-2-3-2.4-5-2.35a5.23,5.23,0,0,0-4.9,3.27,10.15,10.15,0,0,0,0,8.49c1.12,2.51,3.93,3.58,7,2.82,2.48-.62,3.91-2.72,3.81-5.77h-5.41V159h7.16C409.06,159,409.28,159.44,409.51,159.87Z"/></g><g id="svg_9" data-name="svg 9" class="cls-1"><path id="svg_43" data-name="svg 43" class="cls-2" d="M327.53,168.73H325.6c-.12-1.65-.25-3.17-.33-4.7-.12-2.22-.91-3.06-3.09-3.1h-6v7.7h-2.42V150.55c3.3,0,6.65-.13,10,0a4.16,4.16,0,0,1,4.13,3.24c.52,2.24.18,4.28-2,5.77,3.43,2.25.71,6.34,3,9l-1.3.08m-5.68-10.07a8,8,0,0,0,1.55-.09,2.72,2.72,0,0,0,2.09-2.92c0-1.39-.48-2.75-2-2.86-2.42-.18-4.86,0-7.28,0v5.92Z"/></g><g id="svg_10" data-name="svg 10" class="cls-1"><path id="svg_44" data-name="svg 44" class="cls-2" d="M253.53,159v9.47c-1.89.66-3,0-3.91-1.53-2.24-3.78-4.65-7.48-7-11.2-.26-.41-.56-.79-1.14-1.6v14.46h-2.32v-18c1.91-.62,3.06-.05,4.08,1.71,2.4,4.19,5,8.23,7.88,12.78v-14.6l2.4-.11Z"/></g><g id="svg_11" data-name="svg 11" class="cls-1"><path id="svg_45" data-name="svg 45" class="cls-2" d="M347.85,160.31c-3.23.12-6.34.12-9.58.12v6h10.67v2.29H335.63V150.51h13.28c0,.63.08,1.25.13,2.11h-10.8v5.53H348A14.1,14.1,0,0,1,347.85,160.31Z"/></g><g id="svg_12" data-name="svg 12" class="cls-1"><path id="svg_46" data-name="svg 46" class="cls-2" d="M173.52,155.12v-4.57h8.78a4.35,4.35,0,0,1,1.13.28c3.64,1.15,5.58,5.16,5,10.3-.5,4.42-3.14,7.34-7,7.54-2.52.13-5,0-7.89,0V155.12M180,152.6H176v13.86c1.51,0,2.93-.1,4.34,0a4.83,4.83,0,0,0,5.29-4.34,16.33,16.33,0,0,0,.1-4.63c-.46-3.31-2-4.63-5.81-4.89Z"/></g><g id="svg_13" data-name="svg 13" class="cls-1"><path id="svg_47" data-name="svg 47" class="cls-2" d="M166.32,168.24a17,17,0,0,1-3.62.47H153v-18.2h13.05v2.17H155.52v5.41h9.77c0,.82.06,1.44.11,2.3h-9.85v6c3.08,0,6.18.06,9.27,0C166.17,166.36,166.59,166.84,166.32,168.24Z"/></g><g id="svg_14" data-name="svg 14" class="cls-1"><path id="svg_48" data-name="svg 48" class="cls-2" d="M205.74,162.68c0-2.46-.27-4.87.31-7.05,1.4-5.28,8.25-7.54,12.62-4.23,1.29,1,2.06,2.64,3.38,4.41h-3c-1.22-2.8-2.91-3.84-5.72-3.54a5.28,5.28,0,0,0-5,4.81,19.77,19.77,0,0,0,.52,6.64c.62,2.31,2.66,3.17,5,3.19a4.89,4.89,0,0,0,4.82-3.26c.82-1.79.79-1.81,2.76-1.51a7.41,7.41,0,0,1-7,7C210.07,169.52,206.87,167.18,205.74,162.68Z"/></g><g id="svg_15" data-name="svg 15" class="cls-1"><path id="svg_49" data-name="svg 49" class="cls-2" d="M425,163.36c-2,.09-4.18-.42-5.43.45s-1.36,3.09-2,4.82H415c2.22-5.86,4.37-11.61,6.63-17.32.18-.46,1.15-.83,1.76-.83a2,2,0,0,1,1.6.87c2.13,5.69,4.16,11.42,6.22,17.13-2,.75-3,.1-3.36-1.82-.12-.63-.47-1.21-.6-1.84a1.68,1.68,0,0,0-1.79-1.51,1.57,1.57,0,0,0-.43.09m0-2.12c.22-.22.67-.51.63-.64-.73-2.34-1.52-4.66-2.46-7.46l-2.87,8.1Z"/></g><g id="svg_16" data-name="svg 16" class="cls-1"><path id="svg_50" data-name="svg 50" class="cls-2" d="M264,157l2.36-6.34c2.21-.73,3.13.13,3.79,2.1,1.74,5.27,3.72,10.45,5.63,15.75-1.82.66-2.8.28-3.36-1.7-1-3.44-1.09-3.4-4.66-3.41s-3.7,0-4.88,3.46c-.54,1.61-1.32,2.43-3.24,1.65L264,157m2.45-.4c-.52,1.51-1,3-1.55,4.55h5.5c-.9-2.68-1.73-5.17-2.65-7.93-.44,1.19-.8,2.13-1.29,3.38Z"/></g><g id="svg_17" data-name="svg 17" class="cls-1"><path id="svg_51" data-name="svg 51" class="cls-2" d="M380.6,150.41c.58.21,1.24.32,1.36.64,2.15,5.8,4.24,11.62,6.35,17.44-1.89.67-2.83.14-3.39-1.7-1-3.46-1.13-3.43-4.64-3.43-3.7,0-3.69,0-4.93,3.4-.87,2.39-.4,2-3.22,1.88,1.09-2.93,2.14-5.79,3.21-8.65s2.17-5.53,3.12-8.34a1.66,1.66,0,0,1,2-1.28l.18,0m-.93,4.35c-.74,2.09-1.49,4.18-2.3,6.41H383l-2.54-7.5-.41.1a8.36,8.36,0,0,1-.33,1Z"/></g><g id="svg_18" data-name="svg 18" class="cls-1"><path id="svg_52" data-name="svg 52" class="cls-2" d="M359.68,161a2.84,2.84,0,0,0-.85,1.49c-.08,2,0,4,0,6.17l-2.33.12V150.48c3,0,6.07-.22,9.07.06s4.54,2.57,4.26,5.86c-.24,2.8-2.1,4.5-5.06,4.55h-5.06m-.14-2c1.86-.09,3.74-.08,5.59-.29,1.63-.18,2.21-1.45,2.26-2.91s-.65-2.78-2.22-2.92c-2.08-.19-4.19-.05-6.56-.05a35.25,35.25,0,0,0,.9,6.14Z"/></g><g id="svg_19" data-name="svg 19" class="cls-1"><path id="svg_53" data-name="svg 53" class="cls-2" d="M292.91,160.57V150.5c3.16,0,6.27-.23,9.32.07a4.83,4.83,0,0,1,4.35,5.27h0v.22a5,5,0,0,1-5.1,4.89h-.14c-1.81,0-3.62,0-5.44.05-.11,0-.23.09-.49.21v7.42l-2.47.11v-8.17m2.43-2.33c.08.17.16.48.24.48a43.56,43.56,0,0,0,6.85-.35c1.48-.28,1.73-2,1.35-3.22-.27-.89-1.12-2.12-1.88-2.26a45.35,45.35,0,0,0-6.38-.39,4.81,4.81,0,0,0-.17.73v5Z"/></g><g id="svg_20" data-name="svg 20" class="cls-1"><path id="svg_54" data-name="svg 54" class="cls-2" d="M.11,6.31A12,12,0,0,1,.4,8.61v169.7c0,1.54.17,3.07.17,4.73A11.26,11.26,0,0,1,0,180.1V7.1A4.29,4.29,0,0,1,.11,6.31Z"/></g><g id="svg_21" data-name="svg 21" class="cls-1"><path id="svg_55" data-name="svg 55" class="cls-2" d="M231.08,150.67c.1,6,.1,11.91.1,17.93h-2.45V150.52A13.2,13.2,0,0,1,231.08,150.67Z"/></g><g id="svg_22" data-name="svg 22" class="cls-1"><path id="svg_56" data-name="svg 56" class="cls-2" d="M195.81,156.67v-6.16l2.27-.11v18.24l-2.27.1Z"/></g></svg>