<svg id="Capa_1" data-name="Capa 1" xmlns="http://www.w3.org/2000/svg" viewBox="0 0 320.13 319.61"><defs><style>.cls-1{fill:#fff;opacity:0.5;}</style></defs><path class="cls-1" d="M0,94C0,80.46,4.38,69,14.59,59.69c7.15-6.5,13.72-13.61,20.61-20.38q18.15-17.88,36.22-.15C83.46,51,95.3,62.86,107.1,74.85c12.38,12.58,12.27,24.29-.21,36.94C100,118.78,93,125.73,86,132.56c-2.93,2.84-3.37,5.56-1.65,9.34C94,163,108.9,180.26,125,196.51c15.42,15.59,32.5,29,52.38,38.72,4.37,2.13,7.25,1.57,10.49-1.85,6.64-7,13.54-13.79,20.42-20.58,12.51-12.35,24.43-12.32,36.93.09q17.57,17.43,35,35c12.6,12.69,12.58,24.67,0,37.32-6.68,6.75-13.58,13.29-20,20.25-11,11.93-24.7,15.26-40.36,13.84-25.33-2.3-47.85-12.38-69.6-24.54q-84.88-47.55-129.91-134c-8.43-16.11-15-33-18.5-50.93C.83,104.67.59,99.31,0,94Z"/><path class="cls-1" d="M162.07,23.78C163.16,16,164.27,8,165.38,0c73.89,9.09,140.76,68.28,154.75,149.75l-23.78,4.18C279.36,82.07,235.11,38.83,162.07,23.78Z"/><path class="cls-1" d="M158.8,88.25c1.11-8.23,2.19-16.2,3.26-24.15,44.65,4.22,86.65,43.46,92.87,89.74a15.89,15.89,0,0,1-2.25.71c-7,1.19-14.06,2.35-21.69,3.62-3.66-18.13-11.55-33.76-24.68-46.5S177.42,91.27,158.8,88.25Z"/></svg>