<svg id="Capa_1" data-name="Capa 1" xmlns="http://www.w3.org/2000/svg" viewBox="0 0 300 232.45"><defs><style>.cls-1{fill:#1a5276;}</style></defs><path class="cls-1" d="M67,67c1.49-16.35,5.31-22.12,14.92-22a18.63,18.63,0,0,1,10,2.89c2.58,1.79,4.6,5.11,5.68,8.17,1.15,3.25.9,7,1.29,10.71h13c0-2.73-.05-5.21,0-7.67.25-9.15,5.24-14.28,14.3-14.29q56.46-.09,112.91,0c3.16,0,6.43.2,6.41,4.26s-3.16,4.37-6.4,4.36q-55.28,0-110.56,0c-6.86,0-7.61.72-7.61,7.43q0,45.47,0,90.92v4.46H291.3v-4.44q0-45.23,0-90.45c0-6.8-1.12-7.92-7.81-7.93-7.19,0-14.37-.05-21.55,0-3.18,0-5.91-.8-5.92-4.38s2.89-4.27,6-4.25c8.12.06,16.25-.07,24.37.06,8.48.15,13.56,5.33,13.57,13.94Q300,131.36,300,204c0,4.36-1.77,6.27-6.17,6.18-7-.15-14.05.07-21.08-.09-2.55-.06-3.77.73-4.82,3.16-5.28,12.13-14.58,19-27.92,19.2-13.73.19-23.42-6.6-28.9-19.1-1.16-2.64-2.59-3.29-5.23-3.26-9.83.13-19.67,0-29.51.08-3.31,0-6.44-.65-6.37-4.43s3.11-4.4,6.46-4.37c10.58.11,21.16,0,31.62,0,1.18-4.64,2.24-8.82,3.39-13.37H121.24v13.37h28.14c1.88,0,4-.54,5.56.18,1.78.83,3,2.78,4.53,4.24-1.52,1.43-2.91,3.84-4.61,4.09-4.13.61-8.4.22-12.62.22-16.09,0-32.17.06-48.25,0-2.69,0-4,.74-5.2,3.32-5.55,12.46-15.21,19.29-29,19-13.3-.25-22.64-7.07-27.85-19.27-1.06-2.48-2.4-3.14-4.9-3.09-7,.15-14.06,0-21.08.08-4.12.06-6-1.67-6-5.86.06-17.65,0-35.3.13-52.95,0-1.94,1.35-4,2.36-5.77a8.82,8.82,0,0,1,2.62-2.65c17.77-12.83,24.24-32.53,31.5-51.76,1.26-3.35,2.51-6.72,3.94-10,4-9.2,11-14.06,21.15-14.14C63.38,67,65.06,67,67,67Zm31.9,9a7.22,7.22,0,0,0-.37,1.32c0,10.15,0,20.3-.08,30.46,0,13.16-7.49,21.74-20.43,23.67-3.29.49-6.75.74-7.5-3.35s2.47-4.95,5.89-5.39c7.37-.94,12.69-5,13-11.36.52-11.65.15-23.34.15-35.32-10.53,0-20.84-.57-31,.34-3.26.29-6.46,4.24-9.13,7-1.51,1.58-1.91,4.22-2.78,6.39L33.38,123c7.22,0,13.74,0,20.26,0,3.33,0,6.3.86,6.18,4.67-.11,3.51-3.09,4.28-6.16,4.28-7.18,0-14.37-.15-21.54.11a9.5,9.5,0,0,0-5.7,2.24q-8.07,7.49-15.56,15.57c-1.39,1.51-1.78,3.95-2.82,6.43H111.5V76.07ZM121.14,178.8c1,.12,1.46.23,1.92.23q46.58,0,93.15-.06a9.62,9.62,0,0,0,5-1.88c11.4-8,24.88-8.06,36.32-.17,1.13.78,2.36,2,3.56,2,9.93.16,19.86.09,30,.09v-13.3H121.14Zm-112.22.25c9.28,0,18,.15,26.72-.1a13.44,13.44,0,0,0,6.78-2.12c11.53-7.72,25-7.71,36.31.3,1,.71,2.09,1.79,3.15,1.8,9.91.14,19.83.08,29.69.08V165.72H8.92Zm208.66,23a22,22,0,1,0,21.83-22.17A22,22,0,0,0,217.58,202.05ZM38.45,202A22,22,0,1,0,60.3,179.88,22.15,22.15,0,0,0,38.45,202ZM291,187.91H267.55c1.1,4.57,2.13,8.88,3.17,13.24H291ZM32.35,188H9.12v13.05H29.21Zm79.22-.14H88.42c1.16,4.57,2.24,8.86,3.35,13.25h19.8ZM76.13,66.61H89.55c.16-4.71,1.34-9.5-3.42-12a8.36,8.36,0,0,0-6.82.1C74.56,57.31,76.07,62.14,76.13,66.61Z"/><path class="cls-1" d="M187.73,89.24c0-5.75,0-10.73,0-15.7C187.82,68.3,189,67.1,194,67q9.36-.11,18.71,0c5,.06,6.3,1.42,6.38,6.48s0,10,0,15.72c5.17,0,10.09,0,15,0,6,0,7.19,1.24,7.24,7.07s0,11.55,0,17.32-1.2,7-7.22,7c-4.8,0-9.61,0-15,0,0,5.52.06,10.61,0,15.7s-1.61,6.7-6.72,6.77c-6.08.07-12.17.09-18.25,0-5-.08-6.32-1.46-6.39-6.52s0-10.23,0-15.94c-5.54,0-10.63,0-15.72,0-5.32-.07-6.68-1.4-6.75-6.66q-.12-9.12,0-18.25c.08-4.87,1.63-6.4,6.51-6.49C176.88,89.17,182,89.24,187.73,89.24Zm-13.22,22.53h14.14c7.09,0,8,.92,8,8.18,0,4.61,0,9.22,0,13.85h13.46c0-5.27,0-10.24,0-15.2,0-5.57,1.26-6.77,7-6.82,5.06,0,10.12,0,15.08,0V98.28c-5.29,0-10.27,0-15.24,0-5.49,0-6.77-1.36-6.8-7,0-5.07,0-10.13,0-15H196.63c0,5.33.05,10.31,0,15.3-.06,5.36-1.36,6.66-6.62,6.71-5.09,0-10.19,0-15.48,0Z"/><path class="cls-1" d="M100.32,35.87c-1-.69-2.86-1.26-3.35-2.4-.57-1.33-.62-3.76.23-4.67,5.39-5.79,11-11.43,16.82-16.75.94-.85,4-.47,5.23.45,1,.72,1.56,3.94.85,4.71-5.65,6.16-11.63,12-17.56,17.93C102.16,35.52,101.4,35.53,100.32,35.87Z"/><path class="cls-1" d="M49.05,10.42A30.6,30.6,0,0,1,53.2,13.2c4.78,4.65,9.46,9.41,14.18,14.13,2.1,2.09,3.14,4.38.75,6.88s-4.79,1.47-6.87-.59c-5-4.91-10-9.77-14.72-14.9a6.25,6.25,0,0,1-1.16-5C45.69,12.5,47.62,11.64,49.05,10.42Z"/><path class="cls-1" d="M87.15,15.5V25.78c0,2.85-1.09,5-4.19,5.1S78.6,28.94,78.6,26c0-7.16-.25-14.34.19-21.48C78.89,2.93,81.12.45,82.74.1c3-.63,4.36,1.77,4.4,4.65C87.19,8.34,87.15,11.92,87.15,15.5Z"/><path class="cls-1" d="M225.11,201.76a14.4,14.4,0,1,1,14.21,14.48A14.61,14.61,0,0,1,225.11,201.76Zm19.72.22c-.15-3.54-1.88-5.44-5.19-5.5-3.52,0-5.58,2-5.54,5.44,0,3.16,1.9,5.27,5.22,5.32C242.85,207.29,244.65,205.27,244.83,202Z"/><path class="cls-1" d="M74.79,201.76a14.37,14.37,0,1,1-14.33-14.33A14.58,14.58,0,0,1,74.79,201.76Zm-14.46-5.32c-3.42.26-5.25,2.1-5.22,5.37,0,3.49,2,5.52,5.52,5.43,3.3-.09,5.15-2.15,5.16-5.36C65.81,198.37,63.72,196.58,60.33,196.44Z"/></svg>