<?xml version="1.0"?>
<svg xmlns="http://www.w3.org/2000/svg" xmlns:xlink="http://www.w3.org/1999/xlink" version="1.1" id="Capa_1" x="0px" y="0px" viewBox="0 0 58 58" style="enable-background:new 0 0 58 58;" xml:space="preserve" width="512px" height="512px" class=""><g><g>
	<path d="M2.5,58h44V0h-44V58z M16.5,16h4v-4h8v4h4v8h-4v4h-8v-4h-4V16z M30.5,37c0,0.553-0.448,1-1,1h-10c-0.552,0-1-0.447-1-1   s0.448-1,1-1h10C30.052,36,30.5,36.447,30.5,37z M15.5,40h18c0.552,0,1,0.447,1,1s-0.448,1-1,1h-18c-0.552,0-1-0.447-1-1   S14.948,40,15.5,40z M15.5,44h18c0.552,0,1,0.447,1,1s-0.448,1-1,1h-18c-0.552,0-1-0.447-1-1S14.948,44,15.5,44z" data-original="#000000" class="active-path" data-old_color="#a93226" fill="#a93226"/>
	<rect x="47.5" y="12" width="8" height="8" data-original="#000000" class="active-path" data-old_color="#a93226" fill="#a93226"/>
	<rect x="47.5" width="8" height="10" data-original="#000000" class="active-path" data-old_color="#a93226" fill="#a93226"/>
	<rect x="47.5" y="22" width="8" height="8" data-original="#000000" class="active-path" data-old_color="#a93226" fill="#a93226"/>
	<rect x="47.5" y="42" width="8" height="10" data-original="#000000" class="active-path" data-old_color="#a93226" fill="#a93226"/>
	<rect x="47.5" y="32" width="8" height="8" data-original="#000000" class="active-path" data-old_color="#a93226" fill="#a93226"/>
</g></g> </svg>
