<?xml version="1.0"?>
<svg xmlns="http://www.w3.org/2000/svg" xmlns:xlink="http://www.w3.org/1999/xlink" version="1.1" id="Layer_1" x="0px" y="0px" viewBox="0 0 512 512" style="enable-background:new 0 0 512 512;" xml:space="preserve" width="512px" height="512px" class=""><g><g>
	<g>
		<path d="M50.087,289.391C22.468,289.391,0,311.859,0,339.478c0,27.619,22.468,50.087,50.087,50.087    c27.619,0,50.087-22.468,50.087-50.087C100.174,311.859,77.706,289.391,50.087,289.391z" data-original="#000000" class="active-path" data-old_color="#a93226" fill="#a93226"/>
	</g>
</g><g>
	<g>
		<path d="M300.516,22.261c-27.619,0-50.087,22.468-50.087,50.087s22.468,50.087,50.087,50.087s50.087-22.468,50.087-50.087    S328.135,22.261,300.516,22.261z" data-original="#000000" class="active-path" data-old_color="#a93226" fill="#a93226"/>
	</g>
</g><g>
	<g>
		<path d="M478.603,422.957H33.391C14.978,422.957,0,437.935,0,456.348s14.978,33.391,33.391,33.391h445.212    c18.419,0,33.397-14.978,33.397-33.391S497.022,422.957,478.603,422.957z" data-original="#000000" class="active-path" data-old_color="#a93226" fill="#a93226"/>
	</g>
</g><g>
	<g>
		<path d="M478.603,322.783H367.304v-42.712l13.053-4.351c7.059,21.235,26.625,28.547,42.881,23.067    c16.207-5.413,27.624-22.764,20.482-44.189c19.641-6.542,27.593-25.93,22.04-42.566c-5.711-17.153-24.309-27.117-42.239-21.103    l-100.174,33.391c-14.989,4.995-22.826,19.719-22.826,31.681v66.783H267.13V256c0-28.348,18.777-54.402,45.663-63.359    l81.533-27.178c-10.151-6.099-21.887-9.637-34.314-9.637H250.463c-36.826,0-66.783,29.956-66.783,66.783V256    c0,36.826,29.956,66.783,66.783,66.783h-83.506c-18.413,0-33.391,14.978-33.391,33.391c0,18.413,14.978,33.391,33.391,33.391    h311.647c18.419,0,33.397-14.978,33.397-33.391C512,337.761,497.022,322.783,478.603,322.783z" data-original="#000000" class="active-path" data-old_color="#a93226" fill="#a93226"/>
	</g>
</g></g> </svg>
