<?xml version="1.0" encoding="UTF-8"?>
<!DOCTYPE svg PUBLIC "-//W3C//DTD SVG 1.1//EN" "http://www.w3.org/Graphics/SVG/1.1/DTD/svg11.dtd">
<!-- Creator: CorelDRAW X7 -->
<svg xmlns="http://www.w3.org/2000/svg" xml:space="preserve" width="25mm" height="9mm" version="1.1" style="shape-rendering:geometricPrecision; text-rendering:geometricPrecision; image-rendering:optimizeQuality; fill-rule:evenodd; clip-rule:evenodd"
viewBox="0 0 2500 900"
 xmlns:xlink="http://www.w3.org/1999/xlink">
 <defs>
  <style type="text/css">
   <![CDATA[
    .fil0 {fill:#154360}
    .fil1 {fill:#154360}
    .fil2 {fill:#DB2526}
   ]]>
  </style>
 </defs>
 <g id="Capa_x0020_1">
  <metadata id="CorelCorpID_0Corel-Layer"/>
  <path class="fil0" d="M328 772c55,21 139,-63 166,-99l81 -101c58,-73 185,-233 250,-295 13,-14 33,-31 49,-42 23,-16 31,-18 44,-47 19,-38 48,-85 61,-121 -76,2 -258,169 -300,223l-235 289c-42,55 -113,154 -183,163l67 30z"/>
  <path class="fil1" d="M156 234c25,31 18,97 20,147 2,52 8,104 9,155 0,47 4,99 17,143 19,59 35,61 98,46 -8,-24 -14,-29 -18,-64 -8,-65 -9,-157 -11,-224 -4,-148 9,-136 -56,-185 -19,-14 -31,-22 -59,-18z"/>
  <path class="fil2" d="M385 794c36,26 57,14 93,-6 30,-17 47,-37 67,-60l145 -175c28,-35 91,-116 118,-137 12,-10 23,-19 29,-32 8,-17 34,-76 37,-92 -41,13 -93,92 -125,123 -11,11 -20,19 -30,32 -10,13 -17,22 -28,34l-168 204c-22,22 -33,46 -58,65 -56,43 -54,28 -80,44z"/>
  <path class="fil1" d="M450 823c58,16 59,18 131,-33 46,-34 116,-137 171,-197 29,-33 20,-3 33,-58 5,-23 16,-50 18,-71 -19,13 -66,72 -84,92l-122 147c-13,17 -27,31 -39,49 -37,55 -100,66 -108,71z"/>
  <path class="fil2" d="M328 700c44,-23 27,-56 24,-72 -18,-118 -3,-182 -8,-245 -2,-22 -2,-17 -22,-38 -9,-10 -7,-9 -18,-14 6,99 -4,288 24,369z"/>
  <path class="fil1" d="M375 404c2,39 -3,80 -1,121 1,38 5,75 10,112 10,-5 31,-33 37,-44 20,-34 -2,-167 -46,-189z"/>
  <path class="fil1" d="M982 265l0 56 -4 0c-2,-11 -5,-19 -8,-26 -4,-6 -10,-11 -16,-15 -8,-4 -15,-6 -22,-6 -8,0 -15,3 -21,8 -5,5 -8,11 -8,17 0,5 2,10 5,14 5,6 17,14 36,24 15,8 26,15 31,19 6,4 10,9 13,15 3,6 5,12 5,19 0,13 -5,23 -15,32 -9,9 -22,14 -37,14 -5,0 -9,-1 -13,-2 -3,0 -8,-1 -16,-4 -8,-3 -12,-4 -15,-4 -2,0 -3,1 -5,2 -1,1 -1,3 -2,8l-4 0 0 -57 4 0c2,12 5,21 8,27 4,6 9,10 17,15 7,3 15,5 24,5 10,0 18,-2 24,-8 5,-5 8,-11 8,-19 0,-4 -1,-8 -3,-12 -2,-4 -6,-8 -10,-11 -4,-3 -12,-8 -26,-16 -14,-8 -24,-14 -30,-19 -6,-4 -11,-9 -14,-15 -3,-6 -4,-12 -4,-18 0,-12 4,-22 13,-31 9,-8 21,-12 35,-12 8,0 17,1 28,6 4,2 7,3 9,3 2,0 4,0 5,-2 1,-1 2,-4 4,-7l4 0zm94 151c-11,9 -19,14 -22,15 -4,2 -9,3 -13,3 -8,0 -14,-3 -19,-8 -5,-5 -8,-12 -8,-20 0,-6 1,-11 4,-14 3,-6 9,-11 17,-16 8,-5 22,-11 41,-17l0 -5c0,-11 -2,-18 -5,-22 -4,-4 -9,-7 -15,-7 -6,0 -10,2 -12,4 -4,3 -5,6 -5,10l0 7c0,4 -1,7 -3,9 -2,1 -4,3 -7,3 -3,0 -6,-2 -8,-3 -1,-3 -3,-6 -3,-9 0,-7 4,-14 11,-19 7,-6 17,-9 30,-9 10,0 18,2 24,5 5,2 9,6 10,12 2,3 3,10 3,21l0 37c0,11 0,17 0,20 1,2 2,3 2,4 1,1 3,1 4,1 1,0 2,0 3,0 2,-2 5,-5 10,-9l0 7c-10,12 -18,18 -26,18 -4,0 -7,-1 -9,-4 -3,-3 -4,-8 -4,-14zm0 -8l0 -42c-13,5 -20,8 -24,10 -6,4 -11,7 -14,11 -2,4 -3,8 -3,13 0,6 1,10 4,14 4,4 8,6 12,6 6,0 15,-4 25,-12zm79 -67c13,-15 25,-23 37,-23 6,0 11,2 15,5 5,3 8,8 11,14 1,6 3,13 3,22l0 48c0,7 0,12 1,14 1,2 3,4 5,4 1,2 5,2 10,2l0 5 -54 0 0 -5 2 0c5,0 9,0 11,-2 2,-1 3,-4 4,-7 0,-1 1,-5 1,-11l0 -46c0,-9 -2,-17 -4,-21 -3,-5 -8,-8 -14,-8 -9,0 -18,6 -28,17l0 58c0,8 1,12 1,14 2,2 3,4 5,5 2,1 6,1 12,1l0 5 -54 0 0 -5 2 0c5,0 9,-1 11,-4 2,-3 3,-8 3,-16l0 -41c0,-13 0,-22 -1,-24 0,-3 -1,-5 -2,-6 -2,-1 -3,-2 -6,-2 -2,0 -4,1 -7,2l-2 -4 33 -14 5 0 0 23zm154 75c-12,9 -19,14 -22,15 -4,2 -9,3 -14,3 -7,0 -13,-3 -18,-8 -6,-5 -8,-12 -8,-20 0,-6 1,-11 4,-14 3,-6 9,-11 17,-16 8,-5 22,-11 41,-17l0 -5c0,-11 -2,-18 -6,-22 -3,-4 -8,-7 -15,-7 -5,0 -9,2 -12,4 -3,3 -4,6 -4,10l0 7c0,4 -1,7 -3,9 -2,1 -5,3 -8,3 -3,0 -5,-2 -7,-3 -2,-3 -3,-6 -3,-9 0,-7 4,-14 11,-19 7,-6 17,-9 30,-9 10,0 17,2 24,5 5,2 8,6 10,12 2,3 3,10 3,21l0 37c0,11 0,17 0,20 1,2 1,3 2,4 1,1 2,1 4,1 1,0 2,0 3,0 1,-2 5,-5 10,-9l0 7c-9,12 -18,18 -27,18 -3,0 -6,-1 -9,-4 -2,-3 -3,-8 -3,-14zm0 -8l0 -42c-13,5 -21,8 -24,10 -6,4 -11,7 -14,11 -2,4 -4,8 -4,13 0,6 2,10 5,14 4,4 8,6 12,6 6,0 15,-4 25,-12zm79 -123l0 36 26 0 0 8 -26 0 0 72c0,8 1,12 3,15 2,2 5,3 8,3 3,0 5,0 8,-2 2,-2 4,-4 6,-7l4 0c-3,8 -7,14 -12,18 -5,3 -10,6 -16,6 -3,0 -7,-1 -11,-4 -3,-2 -6,-5 -7,-8 -2,-4 -3,-10 -3,-18l0 -75 -18 0 0 -3c5,-2 9,-5 14,-9 5,-4 9,-9 13,-15 1,-3 4,-9 7,-17l4 0zm91 33c16,0 30,7 40,19 8,11 13,24 13,37 0,11 -2,20 -7,30 -5,11 -12,18 -20,23 -8,6 -17,8 -28,8 -16,0 -30,-7 -39,-20 -9,-11 -13,-24 -13,-38 0,-10 3,-19 7,-30 6,-10 12,-17 21,-22 8,-5 17,-7 26,-7zm-4 8c-4,0 -8,1 -13,4 -4,2 -8,7 -10,13 -3,6 -5,15 -5,24 0,16 4,30 10,42 7,12 15,18 25,18 8,0 15,-4 19,-10 6,-7 8,-17 8,-34 0,-19 -4,-34 -12,-45 -6,-8 -14,-12 -22,-12zm105 -8l0 25c9,-17 19,-25 28,-25 4,0 8,1 11,4 3,3 4,6 4,9 0,4 0,6 -3,9 -2,1 -4,3 -7,3 -3,0 -6,-2 -10,-5 -3,-2 -6,-4 -7,-4 -2,0 -3,1 -5,3 -3,3 -7,9 -11,16l0 53c0,6 1,10 2,14 2,2 3,4 6,5 3,2 6,2 11,2l0 5 -56 0 0 -5c5,0 9,0 12,-2 2,-1 4,-4 5,-6 0,-2 0,-6 0,-12l0 -43c0,-12 0,-20 0,-23 -1,-2 -2,-4 -3,-5 -2,-1 -4,-2 -6,-2 -2,0 -5,1 -8,2l-1 -4 33 -14 5 0zm78 -58c4,0 6,2 8,4 3,2 4,5 4,8 0,4 -1,7 -4,9 -2,3 -4,4 -8,4 -4,0 -7,-1 -8,-4 -3,-2 -5,-5 -5,-9 0,-3 2,-6 4,-8 2,-2 5,-4 9,-4zm10 58l0 89c0,7 0,11 1,14 2,2 3,4 5,4 2,2 6,2 10,2l0 5 -53 0 0 -5c5,0 9,0 11,-1 2,-1 3,-3 5,-5 0,-3 1,-8 1,-14l0 -43c0,-12 0,-20 -1,-23 -1,-3 -2,-4 -3,-5 -1,-1 -3,-2 -5,-2 -2,0 -4,1 -8,2l-2 -4 34 -14 5 0zm85 0c17,0 30,7 40,19 8,11 13,24 13,37 0,11 -3,20 -8,30 -4,11 -10,18 -19,23 -8,6 -18,8 -28,8 -16,0 -29,-7 -40,-20 -7,-11 -12,-24 -12,-38 0,-10 3,-19 8,-30 5,-10 12,-17 19,-22 9,-5 17,-7 27,-7zm-4 8c-5,0 -9,1 -13,4 -4,2 -8,7 -10,13 -3,6 -4,15 -4,24 0,16 3,30 9,42 7,12 15,18 25,18 8,0 15,-4 20,-10 5,-7 7,-17 7,-34 0,-19 -4,-34 -12,-45 -6,-8 -13,-12 -22,-12z"/>
  <path class="fil2" d="M1032 625c19,4 33,10 42,19 13,12 19,27 19,45 0,14 -4,26 -12,38 -9,13 -21,22 -35,27 -15,6 -37,9 -68,9l-126 0 0 -8 9 0c12,0 19,-3 24,-10 3,-5 5,-15 5,-30l0 -174c0,-17 -2,-27 -6,-32 -5,-6 -13,-9 -23,-9l-9 0 0 -7 115 0c22,0 39,2 53,5 19,5 34,13 45,25 10,12 16,27 16,42 0,13 -4,26 -13,36 -8,11 -20,19 -36,24zm-104 -11c5,1 11,2 17,2 6,1 13,1 21,1 19,0 34,-2 43,-6 10,-4 17,-11 23,-19 4,-9 7,-18 7,-29 0,-15 -6,-28 -19,-40 -13,-11 -32,-16 -56,-16 -13,0 -25,1 -36,4l0 103zm0 129c15,4 31,6 46,6 24,0 42,-6 55,-16 12,-11 19,-25 19,-41 0,-10 -3,-20 -9,-30 -6,-9 -15,-17 -28,-22 -13,-6 -29,-9 -48,-9 -8,0 -15,0 -21,0 -6,1 -10,1 -14,2l0 110zm254 -168l0 41c15,-27 30,-41 46,-41 8,0 14,3 18,7 5,5 8,10 8,16 0,4 -2,9 -6,13 -3,3 -7,5 -12,5 -5,0 -9,-2 -15,-7 -6,-4 -11,-7 -13,-7 -2,0 -5,2 -8,4 -6,5 -12,14 -18,27l0 87c0,10 1,18 4,23 2,3 5,6 9,9 4,2 11,3 18,3l0 8 -93 0 0 -8c9,0 17,-1 21,-4 3,-2 6,-5 7,-10 1,-2 1,-9 1,-19l0 -70c0,-22 0,-34 -2,-38 0,-4 -2,-7 -4,-9 -2,-2 -5,-3 -9,-3 -4,0 -8,1 -14,3l-1 -7 54 -23 9 0zm128 -95c5,0 10,2 14,6 4,4 6,9 6,14 0,6 -2,11 -6,15 -4,3 -9,6 -14,6 -5,0 -10,-3 -14,-6 -4,-4 -6,-9 -6,-15 0,-5 2,-10 6,-14 4,-4 9,-6 14,-6zm17 95l0 147c0,11 0,18 2,22 1,4 4,7 7,8 3,3 9,3 18,3l0 8 -88 0 0 -8c9,0 15,0 18,-2 3,-2 5,-5 7,-8 2,-5 3,-12 3,-23l0 -70c0,-20 -1,-33 -2,-39 -1,-4 -2,-7 -5,-8 -2,-2 -4,-3 -8,-3 -3,0 -8,1 -13,3l-3 -7 55 -23 9 0zm102 -54l0 60 43 0 0 13 -43 1 0 117c0,12 2,20 6,24 3,4 8,6 13,6 4,0 8,-1 13,-3 4,-3 7,-8 9,-13l7 0c-4,13 -10,23 -19,30 -9,6 -17,10 -26,10 -6,0 -12,-2 -18,-5 -6,-4 -10,-9 -13,-15 -3,-6 -4,-16 -4,-29l0 -123 -29 0 0 -6c7,-3 15,-8 22,-15 8,-7 15,-15 21,-25 3,-4 7,-14 12,-27l6 0zm163 215c-19,15 -30,23 -35,25 -7,4 -15,5 -23,5 -12,0 -22,-4 -31,-12 -8,-9 -12,-20 -12,-35 0,-9 2,-16 6,-22 6,-9 15,-18 28,-26 14,-8 36,-18 67,-29l0 -7c0,-18 -2,-31 -8,-37 -6,-7 -14,-11 -26,-11 -8,0 -15,3 -19,8 -5,4 -8,9 -8,15l0 12c0,6 -1,10 -4,13 -3,4 -7,5 -12,5 -5,0 -9,-1 -12,-5 -3,-3 -5,-8 -5,-14 0,-11 6,-22 17,-31 12,-10 28,-15 49,-15 17,0 30,3 40,9 8,3 14,10 17,19 3,5 4,17 4,35l0 61c0,17 1,28 1,32 1,4 2,6 3,8 2,1 4,2 6,2 2,0 4,-1 6,-2 2,-1 7,-6 15,-14l0 11c-14,20 -29,30 -42,30 -7,0 -12,-2 -16,-6 -4,-5 -5,-13 -6,-24zm0 -12l0 -70c-20,8 -33,14 -39,17 -10,6 -18,12 -22,18 -5,7 -7,14 -7,21 0,9 3,18 9,24 5,6 12,9 19,9 11,0 24,-6 40,-19zm22 -237l-59 69 -7 0 21 -69 45 0zm109 127c21,-26 42,-39 61,-39 10,0 18,3 25,8 7,5 13,13 18,24 3,9 4,21 4,37l0 78c0,11 0,19 3,23 1,3 3,6 6,7 4,3 10,3 18,3l0 8 -90 0 0 -8 5 0c8,0 13,-1 17,-3 4,-3 6,-7 7,-12 1,-1 1,-8 1,-18l0 -75c0,-17 -3,-29 -7,-36 -4,-8 -11,-12 -21,-12 -16,0 -32,9 -47,26l0 97c0,12 1,20 2,23 2,3 4,6 8,8 3,2 10,2 20,2l0 8 -91 0 0 -8 4 0c10,0 16,-2 19,-7 4,-4 5,-13 5,-26l0 -68c0,-22 0,-35 -1,-40 -2,-4 -3,-7 -5,-9 -2,-2 -5,-3 -8,-3 -4,0 -8,1 -13,3l-3 -7 54 -23 9 0 0 39zm197 -134c5,0 10,2 14,6 4,4 5,9 5,14 0,6 -1,11 -5,15 -4,3 -9,6 -14,6 -6,0 -11,-3 -15,-6 -3,-4 -6,-9 -6,-15 0,-5 3,-10 6,-14 4,-4 9,-6 15,-6zm16 95l0 147c0,11 1,18 3,22 1,4 3,7 7,8 3,3 9,3 17,3l0 8 -88 0 0 -8c9,0 15,0 18,-2 3,-2 6,-5 7,-8 2,-5 3,-12 3,-23l0 -70c0,-20 -1,-33 -1,-39 -2,-4 -3,-7 -5,-8 -2,-2 -5,-3 -8,-3 -4,0 -8,1 -14,3l-2 -7 54 -23 9 0zm205 119c-5,24 -15,42 -29,55 -14,12 -30,19 -47,19 -21,0 -39,-8 -54,-26 -16,-17 -24,-41 -24,-70 0,-29 9,-52 26,-70 17,-18 37,-27 61,-27 18,0 33,5 44,15 12,9 18,19 18,29 0,5 -2,9 -5,12 -4,3 -8,5 -14,5 -8,0 -14,-2 -17,-8 -3,-2 -5,-8 -5,-15 -1,-8 -3,-15 -8,-18 -5,-5 -11,-6 -19,-6 -13,0 -24,4 -32,14 -11,13 -16,30 -16,52 0,21 5,40 15,57 11,17 26,25 44,25 13,0 25,-4 35,-13 7,-6 14,-17 21,-33l6 3zm115 -119c28,0 49,11 66,32 15,18 22,38 22,61 0,17 -4,33 -12,50 -8,16 -19,29 -33,37 -13,9 -28,13 -45,13 -28,0 -49,-11 -66,-32 -13,-19 -20,-39 -20,-63 0,-16 4,-33 13,-50 7,-16 19,-28 32,-36 14,-7 28,-12 43,-12zm-6 14c-7,0 -14,1 -21,6 -8,4 -13,11 -17,22 -5,10 -7,23 -7,40 0,26 5,49 16,68 10,19 24,29 41,29 13,0 24,-5 32,-16 8,-11 13,-29 13,-55 0,-32 -8,-57 -21,-76 -9,-12 -21,-18 -36,-18z"/>
 </g>
</svg>
