<?xml version="1.0" encoding="UTF-8"?>
<!DOCTYPE svg PUBLIC "-//W3C//DTD SVG 1.1//EN" "http://www.w3.org/Graphics/SVG/1.1/DTD/svg11.dtd">
<!-- Creator: CorelDRAW X7 -->
<svg xmlns="http://www.w3.org/2000/svg" xml:space="preserve" width="40mm" height="15mm" version="1.1" style="shape-rendering:geometricPrecision; text-rendering:geometricPrecision; image-rendering:optimizeQuality; fill-rule:evenodd; clip-rule:evenodd"
viewBox="0 0 4000 1500"
 xmlns:xlink="http://www.w3.org/1999/xlink">
 <defs>
  <style type="text/css">
   <![CDATA[
    .fil1 {fill:#DB2526}
    .fil2 {fill:#DB2526}
    .fil0 {fill:#433384}
   ]]>
  </style>
 </defs>
 <g id="Capa_x0020_1">
  <metadata id="CorelCorpID_0Corel-Layer"/>
  <g id="_916174087568">
   <path class="fil0" d="M463 1287c92,34 232,-106 277,-165l135 -168c97,-123 309,-389 416,-493 22,-22 55,-51 82,-70 38,-26 52,-30 74,-77 31,-64 79,-143 101,-202 -127,3 -429,281 -500,372l-392 481c-69,92 -187,257 -304,272l111 50z"/>
   <path class="fil0" d="M177 390c42,52 30,162 33,245 3,86 13,174 15,258 0,79 7,166 29,238 31,99 57,103 162,78 -12,-40 -23,-49 -29,-107 -13,-108 -16,-262 -19,-373 -6,-248 16,-227 -93,-309 -31,-23 -52,-37 -98,-30z"/>
   <path class="fil1" d="M559 1323c59,43 95,23 154,-10 50,-28 79,-61 112,-100l241 -292c47,-57 153,-193 197,-228 21,-17 39,-32 49,-53 13,-28 56,-126 61,-154 -68,22 -154,154 -208,206 -19,18 -33,32 -50,53 -17,21 -29,36 -46,57l-280 339c-37,38 -56,78 -97,109 -94,71 -90,46 -133,73z"/>
   <path class="fil0" d="M667 1372c97,26 98,30 218,-56 77,-56 193,-227 285,-328 48,-54 34,-4 55,-97 9,-37 26,-82 30,-117 -32,21 -110,119 -140,153l-204 245c-21,28 -44,52 -64,81 -62,92 -167,110 -180,119z"/>
   <path class="fil1" d="M463 1166c74,-37 46,-92 41,-120 -31,-196 -5,-303 -14,-408 -3,-36 -3,-28 -36,-63 -16,-16 -12,-15 -31,-24 11,166 -7,481 40,615z"/>
   <path class="fil0" d="M542 674c3,65 -5,133 -2,201 2,63 9,125 16,187 18,-8 52,-55 63,-74 33,-56 -4,-278 -77,-314z"/>
   <path class="fil0" d="M1553 441l0 94 -7 0c-3,-18 -7,-32 -13,-43 -7,-11 -16,-19 -27,-26 -12,-6 -24,-9 -36,-9 -14,0 -25,4 -35,13 -9,8 -13,18 -13,29 0,8 3,16 8,22 9,10 28,24 60,41 25,13 43,24 52,31 9,7 16,16 21,26 5,10 8,20 8,31 0,21 -8,38 -24,53 -16,15 -37,23 -62,23 -8,0 -15,-1 -22,-2 -4,-1 -13,-3 -26,-7 -13,-5 -21,-7 -25,-7 -3,0 -6,1 -8,3 -2,2 -3,6 -4,13l-7 0 0 -94 7 0c3,20 8,35 14,44 6,10 15,18 27,25 12,6 26,9 40,9 17,0 30,-4 40,-13 9,-9 14,-19 14,-32 0,-6 -2,-13 -5,-20 -4,-7 -10,-13 -17,-19 -6,-4 -20,-13 -43,-26 -24,-13 -40,-23 -50,-31 -10,-8 -18,-16 -23,-25 -5,-10 -7,-20 -7,-31 0,-20 7,-37 22,-51 15,-14 34,-21 58,-21 14,0 29,3 46,11 7,3 13,5 16,5 3,0 6,-1 8,-4 2,-2 4,-6 6,-12l7 0zm157 252c-19,15 -31,23 -36,25 -7,4 -15,5 -23,5 -13,0 -23,-4 -31,-13 -9,-8 -13,-20 -13,-34 0,-9 2,-17 6,-23 6,-9 15,-18 29,-26 13,-8 36,-18 68,-29l0 -8c0,-18 -3,-30 -9,-37 -6,-7 -14,-11 -25,-11 -9,0 -16,3 -20,7 -6,5 -8,10 -8,16l0 12c0,6 -1,11 -4,14 -4,3 -8,5 -13,5 -5,0 -9,-2 -12,-5 -3,-4 -5,-9 -5,-15 0,-11 6,-22 18,-31 12,-10 28,-15 50,-15 16,0 29,3 40,8 8,4 14,11 17,20 3,5 4,17 4,35l0 62c0,18 0,29 1,33 1,3 2,6 3,7 2,2 4,2 6,2 2,0 4,0 5,-1 3,-2 8,-7 17,-15l0 12c-16,20 -30,30 -44,30 -6,0 -11,-2 -15,-7 -4,-4 -6,-12 -6,-23zm0 -13l0 -70c-21,8 -34,14 -40,17 -10,6 -18,12 -23,18 -4,7 -6,14 -6,21 0,10 2,18 8,24 6,7 13,10 20,10 10,0 24,-7 41,-20zm132 -111c21,-26 42,-39 61,-39 10,0 19,3 26,8 7,5 13,13 17,24 3,9 5,21 5,37l0 79c0,12 1,20 3,24 1,3 4,6 7,7 3,2 9,3 18,3l0 8 -91 0 0 -8 4 0c8,0 14,-1 18,-4 3,-2 5,-6 7,-11 0,-2 1,-8 1,-19l0 -76c0,-16 -3,-29 -7,-36 -4,-8 -12,-12 -22,-12 -16,0 -31,9 -47,27l0 97c0,13 1,20 2,23 2,4 5,7 8,9 3,1 10,2 20,2l0 8 -91 0 0 -8 4 0c9,0 15,-2 19,-7 3,-5 5,-14 5,-27l0 -68c0,-22 -1,-36 -2,-40 -1,-5 -2,-9 -4,-10 -3,-2 -5,-3 -9,-3 -4,0 -8,1 -13,3l-3 -7 55 -23 9 0 0 39zm256 124c-19,15 -31,23 -36,25 -7,4 -15,5 -23,5 -13,0 -23,-4 -31,-13 -9,-8 -13,-20 -13,-34 0,-9 2,-17 6,-23 6,-9 15,-18 29,-26 14,-8 36,-18 68,-29l0 -8c0,-18 -3,-30 -9,-37 -6,-7 -14,-11 -25,-11 -9,0 -15,3 -20,7 -5,5 -8,10 -8,16l0 12c0,6 -1,11 -4,14 -4,3 -8,5 -13,5 -5,0 -9,-2 -12,-5 -3,-4 -5,-9 -5,-15 0,-11 6,-22 18,-31 12,-10 28,-15 50,-15 16,0 29,3 40,8 8,4 14,11 17,20 3,5 4,17 4,35l0 62c0,18 0,29 1,33 1,3 2,6 3,7 2,2 4,2 6,2 2,0 4,0 5,-1 3,-2 9,-7 17,-15l0 12c-15,20 -30,30 -44,30 -6,0 -11,-2 -15,-7 -4,-4 -6,-12 -6,-23zm0 -13l0 -70c-21,8 -34,14 -40,17 -10,6 -18,12 -23,18 -4,7 -6,14 -6,21 0,10 2,18 8,24 6,7 13,10 20,10 10,0 24,-7 41,-20zm132 -205l0 60 43 0 0 14 -43 0 0 120c0,12 2,20 5,24 3,4 8,6 13,6 5,0 9,-1 13,-4 4,-3 7,-7 10,-12l7 0c-4,13 -11,23 -19,30 -9,6 -18,10 -27,10 -6,0 -12,-2 -18,-6 -6,-3 -10,-8 -13,-14 -3,-7 -4,-17 -4,-30l0 -124 -30 0 0 -6c8,-3 15,-8 23,-15 8,-7 15,-15 21,-25 3,-5 7,-14 13,-28l6 0zm151 55c28,0 50,11 67,32 14,18 22,39 22,62 0,17 -4,33 -12,50 -8,17 -19,30 -33,38 -14,9 -29,13 -46,13 -28,0 -50,-11 -66,-33 -14,-19 -21,-40 -21,-63 0,-17 4,-33 12,-50 9,-17 20,-29 34,-37 13,-8 28,-12 43,-12zm-6 13c-7,0 -14,2 -22,7 -7,4 -13,11 -17,22 -4,10 -7,24 -7,40 0,27 6,50 16,70 11,19 25,29 42,29 13,0 24,-6 32,-16 9,-11 13,-29 13,-56 0,-32 -7,-58 -21,-76 -9,-13 -22,-20 -36,-20zm175 -13l0 42c15,-28 31,-42 47,-42 7,0 13,2 18,7 5,4 7,10 7,15 0,6 -1,10 -5,14 -3,3 -7,5 -12,5 -5,0 -10,-2 -16,-7 -5,-4 -10,-7 -12,-7 -3,0 -5,2 -8,4 -6,6 -12,15 -19,27l0 88c0,11 1,18 4,24 2,3 5,6 9,9 5,2 11,3 19,3l0 8 -94 0 0 -8c9,0 16,-1 21,-4 3,-2 6,-6 7,-10 0,-3 1,-9 1,-20l0 -71c0,-21 -1,-34 -1,-38 -1,-4 -3,-7 -5,-9 -3,-2 -6,-3 -9,-3 -4,0 -9,1 -14,3l-2 -7 56 -23 8 0zm130 -96c6,0 10,2 14,6 4,4 6,9 6,14 0,6 -2,11 -6,15 -4,4 -8,6 -14,6 -6,0 -11,-2 -14,-6 -5,-4 -7,-9 -7,-15 0,-5 2,-10 6,-14 4,-4 9,-6 15,-6zm16 96l0 148c0,12 1,19 3,23 2,4 4,7 7,8 4,2 10,3 18,3l0 8 -89 0 0 -8c9,0 15,-1 18,-2 3,-2 6,-5 8,-9 1,-4 2,-12 2,-23l0 -71c0,-20 0,-33 -2,-39 -1,-4 -2,-7 -4,-8 -2,-2 -5,-3 -8,-3 -4,0 -8,1 -14,3l-3 -7 56 -23 8 0zm142 0c28,0 50,11 67,32 14,18 21,39 21,62 0,17 -4,33 -12,50 -8,17 -18,30 -32,38 -14,9 -30,13 -47,13 -27,0 -49,-11 -66,-33 -13,-19 -20,-40 -20,-63 0,-17 4,-33 12,-50 9,-17 20,-29 33,-37 14,-8 28,-12 44,-12zm-7 13c-7,0 -14,2 -21,7 -7,4 -13,11 -17,22 -5,10 -7,24 -7,40 0,27 5,50 16,70 11,19 25,29 42,29 13,0 24,-6 32,-16 9,-11 13,-29 13,-56 0,-32 -7,-58 -21,-76 -10,-13 -22,-20 -37,-20z"/>
   <path class="fil2" d="M1637 1042c31,7 54,17 70,32 21,20 32,45 32,74 0,23 -7,44 -21,64 -15,21 -34,36 -58,45 -25,10 -62,14 -113,14l-211 0 0 -12 16 0c19,0 32,-6 40,-18 5,-7 8,-24 8,-49l0 -291c0,-27 -3,-45 -10,-52 -8,-10 -21,-15 -38,-15l-16 0 0 -12 193 0c36,0 65,3 87,8 33,8 58,22 76,42 17,20 26,44 26,70 0,22 -7,43 -21,60 -13,18 -33,31 -60,40zm-173 -19c8,2 17,3 28,4 10,1 22,1 34,1 32,0 57,-3 73,-10 16,-7 28,-18 37,-32 8,-14 13,-30 13,-47 0,-26 -11,-48 -32,-67 -22,-18 -53,-27 -94,-27 -22,0 -42,2 -59,7l0 171zm0 216c25,6 51,9 76,9 40,0 70,-9 91,-27 21,-18 32,-41 32,-67 0,-17 -5,-34 -15,-50 -10,-16 -25,-29 -46,-38 -22,-10 -48,-14 -80,-14 -14,0 -25,0 -35,0 -10,1 -17,2 -23,3l0 184zm422 -280l0 68c26,-45 51,-68 78,-68 12,0 22,4 30,11 8,8 12,16 12,26 0,8 -3,16 -9,22 -6,6 -12,9 -20,9 -8,0 -16,-4 -26,-12 -10,-7 -17,-11 -21,-11 -4,0 -8,2 -13,6 -10,9 -20,24 -31,45l0 145c0,17 3,30 7,38 3,6 8,11 15,15 7,4 18,6 31,6l0 12 -155 0 0 -12c15,0 27,-2 34,-7 6,-4 10,-9 12,-17 1,-4 2,-15 2,-32l0 -117c0,-36 -1,-56 -3,-63 -1,-7 -4,-12 -8,-15 -3,-3 -8,-5 -14,-5 -7,0 -14,2 -23,5l-3 -12 91 -37 14 0zm214 -159c9,0 17,4 24,10 6,7 10,15 10,24 0,9 -4,17 -10,24 -7,6 -15,10 -24,10 -9,0 -17,-4 -23,-10 -7,-7 -10,-15 -10,-24 0,-9 3,-17 9,-24 7,-6 15,-10 24,-10zm28 159l0 244c0,19 1,31 4,37 2,7 6,11 12,14 5,4 15,5 30,5l0 12 -147 0 0 -12c14,0 24,-1 29,-4 5,-3 9,-8 12,-14 3,-7 5,-20 5,-38l0 -117c0,-33 -1,-54 -3,-64 -2,-7 -4,-12 -8,-14 -3,-3 -7,-5 -13,-5 -6,0 -14,2 -23,5l-4 -12 91 -37 15 0zm171 -91l0 100 71 0 0 22 -71 1 0 196c0,20 3,33 9,40 5,7 13,10 22,10 7,0 14,-2 21,-6 7,-5 12,-12 16,-21l12 0c-7,22 -18,38 -32,50 -15,10 -29,16 -44,16 -10,0 -20,-3 -30,-8 -10,-6 -17,-14 -21,-25 -5,-10 -7,-26 -7,-48l0 -205 -48 0 0 -10c12,-5 24,-13 37,-25 13,-11 24,-25 34,-41 5,-8 12,-24 21,-46l10 0zm271 359c-31,24 -50,38 -58,42 -12,6 -25,8 -38,8 -21,0 -38,-7 -52,-21 -14,-15 -20,-33 -20,-57 0,-15 3,-27 10,-38 9,-15 24,-29 47,-43 22,-13 59,-29 111,-48l0 -12c0,-30 -4,-51 -14,-62 -10,-11 -23,-17 -42,-17 -14,0 -25,4 -33,12 -8,7 -12,16 -12,25l0 20c0,10 -2,18 -7,23 -6,6 -12,8 -21,8 -8,0 -15,-2 -20,-8 -5,-6 -8,-14 -8,-24 0,-19 10,-36 29,-52 20,-16 47,-24 82,-24 27,0 49,5 66,14 13,6 23,17 29,32 4,9 6,28 6,58l0 102c0,29 1,47 2,53 1,7 3,11 5,13 3,3 6,4 9,4 4,0 7,-1 10,-3 4,-2 13,-11 26,-24l0 19c-24,33 -48,50 -71,50 -11,0 -19,-4 -26,-11 -6,-8 -9,-21 -10,-39zm0 -21l0 -116c-33,14 -55,23 -65,29 -17,9 -30,19 -37,30 -8,11 -11,22 -11,35 0,15 4,29 14,39 9,11 20,16 33,16 17,0 39,-11 66,-33zm36 -394l-98 114 -11 0 35 -114 74 0zm182 211c36,-43 70,-64 102,-64 16,0 30,4 42,12 12,9 22,22 29,41 5,14 7,34 7,61l0 130c0,19 1,32 5,39 2,5 6,9 11,12 6,4 16,5 30,5l0 12 -150 0 0 -12 7 0c14,0 23,-2 29,-6 6,-5 10,-11 12,-19 1,-3 1,-14 1,-31l0 -125c0,-28 -4,-48 -11,-60 -7,-13 -19,-19 -36,-19 -26,0 -52,14 -78,43l0 161c0,20 2,33 4,38 3,6 7,11 13,14 5,3 16,4 33,4l0 12 -151 0 0 -12 7 0c16,0 26,-4 31,-12 6,-7 8,-22 8,-44l0 -113c0,-36 0,-58 -2,-66 -2,-8 -4,-13 -8,-16 -3,-3 -8,-5 -13,-5 -6,0 -14,2 -22,5l-5 -12 91 -37 14 0 0 64zm328 -223c9,0 17,4 24,10 6,7 9,15 9,24 0,9 -3,17 -9,24 -7,6 -15,10 -24,10 -9,0 -17,-4 -24,-10 -6,-7 -10,-15 -10,-24 0,-9 4,-17 10,-24 7,-6 15,-10 24,-10zm27 159l0 244c0,19 2,31 5,37 2,7 6,11 12,14 5,4 15,5 29,5l0 12 -147 0 0 -12c15,0 25,-1 30,-4 5,-3 9,-8 12,-14 3,-7 4,-20 4,-38l0 -117c0,-33 -1,-54 -2,-64 -2,-7 -4,-12 -8,-14 -3,-3 -8,-5 -13,-5 -6,0 -14,2 -23,5l-4 -12 91 -37 14 0zm342 197c-8,40 -25,71 -48,92 -24,21 -50,32 -79,32 -35,0 -65,-14 -90,-43 -26,-29 -39,-68 -39,-117 0,-48 14,-87 43,-116 28,-30 62,-45 102,-45 29,0 54,8 73,24 19,15 29,32 29,49 0,8 -3,15 -8,20 -6,5 -13,8 -23,8 -13,0 -23,-4 -29,-13 -4,-4 -7,-13 -8,-26 -1,-13 -5,-24 -13,-30 -8,-7 -19,-10 -32,-10 -22,0 -40,8 -53,24 -18,22 -27,50 -27,86 0,36 9,68 26,96 18,28 42,42 72,42 22,0 42,-8 59,-22 12,-10 24,-29 35,-56l10 5zm192 -197c46,0 82,17 110,52 24,30 36,64 36,103 0,27 -7,54 -20,82 -13,28 -31,49 -54,63 -23,14 -48,21 -76,21 -46,0 -82,-18 -109,-54 -23,-31 -34,-65 -34,-104 0,-27 7,-55 21,-83 13,-27 32,-47 54,-60 23,-13 46,-20 72,-20zm-11 22c-11,0 -23,3 -35,10 -12,7 -21,19 -28,37 -8,17 -11,39 -11,67 0,44 8,82 26,114 17,31 41,47 69,47 22,0 39,-8 53,-26 14,-18 21,-48 21,-91 0,-54 -12,-96 -35,-127 -15,-21 -35,-31 -60,-31z"/>
  </g>
 </g>
</svg>
