<?xml version="1.0" encoding="UTF-8"?>
<!DOCTYPE svg PUBLIC "-//W3C//DTD SVG 1.1//EN" "http://www.w3.org/Graphics/SVG/1.1/DTD/svg11.dtd">
<!-- Creator: CorelDRAW X7 -->
<svg xmlns="http://www.w3.org/2000/svg" xml:space="preserve" width="60mm" height="20mm" version="1.1" style="shape-rendering:geometricPrecision; text-rendering:geometricPrecision; image-rendering:optimizeQuality; fill-rule:evenodd; clip-rule:evenodd"
viewBox="0 0 6000 2000"
 xmlns:xlink="http://www.w3.org/1999/xlink">
 <defs>
  <style type="text/css">
   <![CDATA[
    .fil0 {fill:#FEFEFE}
   ]]>
  </style>
    <clipPath id="id0">
     <path d="M384 614l813 10 0 771 -813 -11 0 -770z"/>
    </clipPath>
 </defs>
 <g id="Capa_x0020_1">
  <metadata id="CorelCorpID_0Corel-Layer"/>
  <g id="_879997432416">
   <g style="clip-path:url(#id0)">
    <image x="384" y="614" width="813" height="780" xlink:href="logo_simple_sombre_Images\logo_simple_sombre_ImgID1.png"/>
   </g>
  </g>
  <g id="_845436077376">
   <path class="fil0" d="M583 1282c49,17 122,-56 146,-87l71 -88c50,-64 162,-204 218,-259 12,-11 29,-26 43,-36 20,-14 27,-16 39,-41 16,-33 41,-75 53,-106 -67,2 -225,148 -263,196l-205 252c-37,48 -98,134 -160,142l58 27z"/>
   <path class="fil0" d="M434 811c21,27 15,85 17,129 1,45 7,91 7,135 1,41 4,87 16,125 16,52 30,54 85,41 -6,-21 -12,-26 -16,-56 -6,-57 -8,-138 -9,-196 -4,-130 8,-119 -49,-162 -16,-12 -27,-19 -51,-16z"/>
   <path class="fil0" d="M634 1301c31,22 50,12 80,-6 27,-15 42,-32 59,-52l127 -153c25,-30 80,-101 103,-120 11,-9 21,-17 26,-28 7,-14 29,-66 32,-80 -36,11 -81,80 -109,108 -10,9 -18,16 -27,27 -8,11 -15,19 -24,30l-147 178c-19,20 -29,41 -50,57 -50,38 -48,24 -70,39z"/>
   <path class="fil0" d="M691 1326c50,14 51,16 114,-29 41,-29 101,-119 149,-172 25,-28 18,-2 29,-51 5,-19 14,-43 16,-62 -17,12 -58,63 -73,81l-107 128c-12,15 -24,28 -34,43 -32,48 -88,58 -94,62z"/>
   <path class="fil0" d="M584 1218c38,-19 23,-48 21,-63 -16,-103 -3,-159 -7,-214 -2,-19 -2,-15 -19,-33 -8,-8 -6,-7 -16,-12 5,86 -4,252 21,322z"/>
   <path class="fil0" d="M625 960c1,34 -3,70 -1,105 1,33 4,66 8,99 10,-5 27,-29 33,-39 18,-30 -2,-146 -40,-165z"/>
  </g>
 </g>
</svg>
