<?xml version="1.0" encoding="iso-8859-1"?>
<!-- Generator: Adobe Illustrator 19.0.0, SVG Export Plug-In . SVG Version: 6.00 Build 0)  -->
<svg version="1.1" id="Capa_1" xmlns="http://www.w3.org/2000/svg" xmlns:xlink="http://www.w3.org/1999/xlink" x="0px" y="0px"
	 viewBox="0 0 480.109 480.109" style="enable-background:new 0 0 480.109 480.109;" xml:space="preserve">
<path id="SVGCleanerId_0" style="fill:#E6EAFC;" d="M16.051,428.033V159.32c0-10.656,10.872-19.288,24.288-19.288h279.712v32h75.712
	c18.111-0.001,35.481,7.194,48.288,20c12.806,12.807,20.001,30.177,20,48.288v187.712H16.051z"/>
<path id="SVGCleanerId_1" style="fill:#A5A9B7;" d="M16.051,412.033h448v16h-448V412.033z"/>
<path id="SVGCleanerId_2" style="fill:#FF1515;" d="M352.051,172.033v-22.056c-0.001-6.367,2.529-12.474,7.032-16.976
	c9.372-9.369,24.564-9.369,33.936,0c4.503,4.502,7.033,10.609,7.032,16.976v22.056H352.051z"/>
<path id="SVGCleanerId_3" style="fill:#D6D8E8;" d="M352.051,148.033h48v24h-48V148.033z"/>
<path id="SVGCleanerId_4" style="fill:#9EA1AF;" d="M352.051,148.033h16v24h-16V148.033z"/>
<g>
	<circle style="fill:#545459;" cx="104.051" cy="428.033" r="32"/>
	<circle style="fill:#545459;" cx="384.051" cy="428.033" r="32"/>
</g>
<path id="SVGCleanerId_5" style="fill:#FFF89B;" d="M432.051,372.033c-4.418,0-8-3.582-8-8v-16c0-4.418,3.582-8,8-8s8,3.582,8,8v16
	C440.051,368.451,436.47,372.033,432.051,372.033z"/>
<g>
	<path style="fill:#C63846;" d="M104.051,268.033c-4.418,0-8-3.582-8-8v-64c0-4.418,3.582-8,8-8s8,3.582,8,8v64
		C112.051,264.451,108.47,268.033,104.051,268.033z"/>
	<path style="fill:#C63846;" d="M136.051,236.033h-64c-4.418,0-8-3.582-8-8s3.582-8,8-8h64c4.418,0,8,3.582,8,8
		S140.47,236.033,136.051,236.033z"/>
	<path style="fill:#C63846;" d="M16.051,308.033h304v48h-304V308.033z"/>
</g>
<path id="SVGCleanerId_6" style="fill:#A5A9B7;" d="M288.051,404.033h-96c-4.418,0-8-3.582-8-8v-184c0-4.418,3.582-8,8-8h96
	c4.418,0,8,3.582,8,8v184C296.051,400.451,292.47,404.033,288.051,404.033z M200.051,388.033h80v-168h-80V388.033z"/>
<path id="SVGCleanerId_7" style="fill:#95CEDB;" d="M224.051,244.033h32v32h-32V244.033z"/>
<path id="SVGCleanerId_8" style="fill:#95CEDB;" d="M352.051,204.033h48.584c4.877-0.001,9.687,1.136,14.048,3.32
	c6.079,3.039,11.009,7.969,14.048,14.048c2.184,4.361,3.321,9.171,3.32,14.048v32.584h-80V204.033z"/>
<path id="SVGCleanerId_9" style="fill:#D14343;" d="M404.899,108.033c-1.453,0-2.878-0.398-4.12-1.152
	c-15.265-8.972-34.191-8.972-49.456,0c-3.731,2.366-8.674,1.259-11.04-2.473s-1.259-8.674,2.473-11.04
	c0.1-0.063,0.201-0.124,0.304-0.183c20.364-11.977,45.62-11.977,65.984,0c3.782,2.284,4.996,7.202,2.712,10.984
	C410.306,106.569,407.704,108.035,404.899,108.033z"/>
<path id="SVGCleanerId_10" style="fill:#D14343;" d="M429.123,84.033c-1.572,0.001-3.108-0.464-4.416-1.336
	c-29.601-19.184-67.711-19.184-97.312,0c-3.68,2.446-8.646,1.444-11.092-2.236c-2.446-3.68-1.444-8.646,2.236-11.092
	c34.857-23.115,80.167-23.115,115.024,0c3.68,2.445,4.682,7.41,2.238,11.09C434.316,82.695,431.808,84.037,429.123,84.033
	L429.123,84.033z"/>
<path id="SVGCleanerId_11" style="fill:#D14343;" d="M460.715,60.033c-1.95,0.001-3.833-0.71-5.296-2
	c-45.354-39.995-113.382-39.995-158.736,0c-3.314,2.925-8.371,2.61-11.296-0.704c-2.925-3.314-2.61-8.371,0.704-11.296
	c51.405-45.339,128.515-45.339,179.92,0c3.314,2.922,3.631,7.978,0.708,11.292C465.2,59.047,463.013,60.034,460.715,60.033
	L460.715,60.033z"/>
<path id="SVGCleanerId_12" style="fill:#B9D2ED;" d="M13.387,396.033h26.664v32H13.387c-8.068-0.798-14.004-7.92-13.336-16
	C-0.617,403.953,5.319,396.831,13.387,396.033z"/>
<path id="SVGCleanerId_13" style="fill:#A5A9B7;" d="M320.051,428.033v-256h16v256H320.051z"/>
<g>
	<path id="SVGCleanerId_0_1_" style="fill:#E6EAFC;" d="M16.051,428.033V159.32c0-10.656,10.872-19.288,24.288-19.288h279.712v32
		h75.712c18.111-0.001,35.481,7.194,48.288,20c12.806,12.807,20.001,30.177,20,48.288v187.712H16.051z"/>
</g>
<g>
	<path id="SVGCleanerId_1_1_" style="fill:#A5A9B7;" d="M16.051,412.033h448v16h-448V412.033z"/>
</g>
<g>
	<path id="SVGCleanerId_2_1_" style="fill:#FF1515;" d="M352.051,172.033v-22.056c-0.001-6.367,2.529-12.474,7.032-16.976
		c9.372-9.369,24.564-9.369,33.936,0c4.503,4.502,7.033,10.609,7.032,16.976v22.056H352.051z"/>
</g>
<g>
	<path id="SVGCleanerId_3_1_" style="fill:#D6D8E8;" d="M352.051,148.033h48v24h-48V148.033z"/>
</g>
<g>
	<path id="SVGCleanerId_4_1_" style="fill:#9EA1AF;" d="M352.051,148.033h16v24h-16V148.033z"/>
</g>
<g>
	<circle style="fill:#545459;" cx="104.051" cy="428.033" r="32"/>
	<circle style="fill:#545459;" cx="384.051" cy="428.033" r="32"/>
</g>
<g>
	<path id="SVGCleanerId_5_1_" style="fill:#FFF89B;" d="M432.051,372.033c-4.418,0-8-3.582-8-8v-16c0-4.418,3.582-8,8-8s8,3.582,8,8
		v16C440.051,368.451,436.47,372.033,432.051,372.033z"/>
</g>
<g>
	<path style="fill:#C63846;" d="M104.051,268.033c-4.418,0-8-3.582-8-8v-64c0-4.418,3.582-8,8-8s8,3.582,8,8v64
		C112.051,264.451,108.47,268.033,104.051,268.033z"/>
	<path style="fill:#C63846;" d="M136.051,236.033h-64c-4.418,0-8-3.582-8-8s3.582-8,8-8h64c4.418,0,8,3.582,8,8
		S140.47,236.033,136.051,236.033z"/>
	<path style="fill:#C63846;" d="M16.051,308.033h304v48h-304V308.033z"/>
</g>
<g>
	<path id="SVGCleanerId_6_1_" style="fill:#A5A9B7;" d="M288.051,404.033h-96c-4.418,0-8-3.582-8-8v-184c0-4.418,3.582-8,8-8h96
		c4.418,0,8,3.582,8,8v184C296.051,400.451,292.47,404.033,288.051,404.033z M200.051,388.033h80v-168h-80V388.033z"/>
</g>
<g>
	<path id="SVGCleanerId_7_1_" style="fill:#95CEDB;" d="M224.051,244.033h32v32h-32V244.033z"/>
</g>
<g>
	<path id="SVGCleanerId_8_1_" style="fill:#95CEDB;" d="M352.051,204.033h48.584c4.877-0.001,9.687,1.136,14.048,3.32
		c6.079,3.039,11.009,7.969,14.048,14.048c2.184,4.361,3.321,9.171,3.32,14.048v32.584h-80V204.033z"/>
</g>
<g>
	<path id="SVGCleanerId_9_1_" style="fill:#D14343;" d="M404.899,108.033c-1.453,0-2.878-0.398-4.12-1.152
		c-15.265-8.972-34.191-8.972-49.456,0c-3.731,2.366-8.674,1.259-11.04-2.473s-1.259-8.674,2.473-11.04
		c0.1-0.063,0.201-0.124,0.304-0.183c20.364-11.977,45.62-11.977,65.984,0c3.782,2.284,4.996,7.202,2.712,10.984
		C410.306,106.569,407.704,108.035,404.899,108.033z"/>
</g>
<g>
	<path id="SVGCleanerId_10_1_" style="fill:#D14343;" d="M429.123,84.033c-1.572,0.001-3.108-0.464-4.416-1.336
		c-29.601-19.184-67.711-19.184-97.312,0c-3.68,2.446-8.646,1.444-11.092-2.236c-2.446-3.68-1.444-8.646,2.236-11.092
		c34.857-23.115,80.167-23.115,115.024,0c3.68,2.445,4.682,7.41,2.238,11.09C434.316,82.695,431.808,84.037,429.123,84.033
		L429.123,84.033z"/>
</g>
<g>
	<path id="SVGCleanerId_11_1_" style="fill:#D14343;" d="M460.715,60.033c-1.95,0.001-3.833-0.71-5.296-2
		c-45.354-39.995-113.382-39.995-158.736,0c-3.314,2.925-8.371,2.61-11.296-0.704c-2.925-3.314-2.61-8.371,0.704-11.296
		c51.405-45.339,128.515-45.339,179.92,0c3.314,2.922,3.631,7.978,0.708,11.292C465.2,59.047,463.013,60.034,460.715,60.033
		L460.715,60.033z"/>
</g>
<g>
	<path id="SVGCleanerId_12_1_" style="fill:#B9D2ED;" d="M13.387,396.033h26.664v32H13.387c-8.068-0.798-14.004-7.92-13.336-16
		C-0.617,403.953,5.319,396.831,13.387,396.033z"/>
</g>
<path style="fill:#B9D2ED;" d="M461.387,396.033h-21.336v32h21.336c5.864,0,10.664-7.16,10.664-16
	C472.051,403.233,467.251,396.033,461.387,396.033z"/>
<g>
	<path id="SVGCleanerId_13_1_" style="fill:#A5A9B7;" d="M320.051,428.033v-256h16v256H320.051z"/>
</g>
<path id="SVGCleanerId_14" d="M432.051,340.033c-4.418,0-8,3.582-8,8v16c0,4.418,3.582,8,8,8s8-3.582,8-8v-16
	C440.051,343.614,436.47,340.033,432.051,340.033z"/>
<path id="SVGCleanerId_15" d="M72.051,236.033h24v24c0,4.418,3.582,8,8,8s8-3.582,8-8v-24h24c4.418,0,8-3.582,8-8s-3.582-8-8-8h-24
	v-24c0-4.418-3.582-8-8-8s-8,3.582-8,8v24h-24c-4.418,0-8,3.582-8,8S67.633,236.033,72.051,236.033z"/>
<path id="SVGCleanerId_16" d="M224.051,284.033h32c4.418,0,8-3.582,8-8v-32c0-4.418-3.582-8-8-8h-32c-4.418,0-8,3.582-8,8v32
	C216.051,280.451,219.633,284.033,224.051,284.033z M232.051,252.033h16v16h-16V252.033z"/>
<path id="SVGCleanerId_17" d="M352.051,276.033h80c4.418,0,8-3.582,8-8v-32.584c-0.004-21.755-17.629-39.394-39.384-39.416h-48.616
	c-4.418,0-8,3.582-8,8v64C344.051,272.451,347.633,276.033,352.051,276.033z M360.051,212.033h40.584
	c12.932,0,23.416,10.484,23.416,23.416v0v24.584h-64V212.033z"/>
<path id="SVGCleanerId_18" d="M343.091,93.185c-3.833,2.198-5.158,7.087-2.959,10.92c2.198,3.833,7.087,5.158,10.92,2.959
	c0.102-0.059,0.204-0.12,0.303-0.183c15.265-8.972,34.191-8.972,49.456,0c1.242,0.754,2.667,1.152,4.12,1.152
	c4.418,0.005,8.004-3.574,8.008-7.992c0.003-2.805-1.463-5.406-3.864-6.856C388.711,81.208,363.456,81.208,343.091,93.185z"/>
<path id="SVGCleanerId_19" d="M429.155,84.033c4.418,0.008,8.006-3.568,8.014-7.986c0.005-2.685-1.338-5.193-3.574-6.678
	c-34.857-23.115-80.167-23.115-115.024,0c-3.68,2.446-4.682,7.412-2.236,11.092c2.445,3.68,7.412,4.682,11.092,2.236
	c29.601-19.184,67.711-19.184,97.312,0C426.047,83.568,427.584,84.033,429.155,84.033L429.155,84.033z"/>
<path id="SVGCleanerId_20" d="M460.739,60.033c4.418,0.007,8.006-3.569,8.012-7.987c0.004-2.3-0.983-4.491-2.708-6.013
	c-51.405-45.339-128.515-45.339-179.92,0c-3.314,2.925-3.629,7.982-0.704,11.296c2.925,3.314,7.982,3.629,11.296,0.704
	c45.354-39.995,113.382-39.995,158.736,0C456.912,59.321,458.792,60.032,460.739,60.033L460.739,60.033z"/>
<g>
	<path id="SVGCleanerId_14_1_" d="M432.051,340.033c-4.418,0-8,3.582-8,8v16c0,4.418,3.582,8,8,8s8-3.582,8-8v-16
		C440.051,343.614,436.47,340.033,432.051,340.033z"/>
</g>
<g>
	<path id="SVGCleanerId_15_1_" d="M72.051,236.033h24v24c0,4.418,3.582,8,8,8s8-3.582,8-8v-24h24c4.418,0,8-3.582,8-8s-3.582-8-8-8
		h-24v-24c0-4.418-3.582-8-8-8s-8,3.582-8,8v24h-24c-4.418,0-8,3.582-8,8S67.633,236.033,72.051,236.033z"/>
</g>
<g>
	<path id="SVGCleanerId_16_1_" d="M224.051,284.033h32c4.418,0,8-3.582,8-8v-32c0-4.418-3.582-8-8-8h-32c-4.418,0-8,3.582-8,8v32
		C216.051,280.451,219.633,284.033,224.051,284.033z M232.051,252.033h16v16h-16V252.033z"/>
</g>
<g>
	<path id="SVGCleanerId_17_1_" d="M352.051,276.033h80c4.418,0,8-3.582,8-8v-32.584c-0.004-21.755-17.629-39.394-39.384-39.416
		h-48.616c-4.418,0-8,3.582-8,8v64C344.051,272.451,347.633,276.033,352.051,276.033z M360.051,212.033h40.584
		c12.932,0,23.416,10.484,23.416,23.416v0v24.584h-64V212.033z"/>
</g>
<g>
	<path id="SVGCleanerId_18_1_" d="M343.091,93.185c-3.833,2.198-5.158,7.087-2.959,10.92c2.198,3.833,7.087,5.158,10.92,2.959
		c0.102-0.059,0.204-0.12,0.303-0.183c15.265-8.972,34.191-8.972,49.456,0c1.242,0.754,2.667,1.152,4.12,1.152
		c4.418,0.005,8.004-3.574,8.008-7.992c0.003-2.805-1.463-5.406-3.864-6.856C388.711,81.208,363.456,81.208,343.091,93.185z"/>
</g>
<g>
	<path id="SVGCleanerId_19_1_" d="M429.155,84.033c4.418,0.008,8.006-3.568,8.014-7.986c0.005-2.685-1.338-5.193-3.574-6.678
		c-34.857-23.115-80.167-23.115-115.024,0c-3.68,2.446-4.682,7.412-2.236,11.092c2.445,3.68,7.412,4.682,11.092,2.236
		c29.601-19.184,67.711-19.184,97.312,0C426.047,83.568,427.584,84.033,429.155,84.033L429.155,84.033z"/>
</g>
<g>
	<path id="SVGCleanerId_20_1_" d="M460.739,60.033c4.418,0.007,8.006-3.569,8.012-7.987c0.004-2.3-0.983-4.491-2.708-6.013
		c-51.405-45.339-128.515-45.339-179.92,0c-3.314,2.925-3.629,7.982-0.704,11.296c2.925,3.314,7.982,3.629,11.296,0.704
		c45.354-39.995,113.382-39.995,158.736,0C456.912,59.321,458.792,60.032,460.739,60.033L460.739,60.033z"/>
</g>
<path d="M64.891,436.033c4.396,21.65,25.51,35.636,47.16,31.24c15.741-3.196,28.044-15.499,31.24-31.24h201.6
	c4.396,21.65,25.51,35.636,47.16,31.24c15.741-3.196,28.044-15.499,31.24-31.24h43.104c2.835,0,5.459-1.5,6.896-3.944l2.4-4.144
	c6.942-11.84,5.606-26.781-3.328-37.2c-0.088-0.096-0.208-0.128-0.296-0.216V240.312c0.022-37.38-27.098-69.245-64-75.2v-15.144
	c0-17.673-14.327-32-32-32s-32,14.327-32,32v14.064h-16.016v-24c0-4.418-3.582-8-8-8H40.371c-17.8,0-32.32,12.24-32.32,27.28v231.2
	c-0.104,0.104-0.248,0.144-0.344,0.256c-8.874,10.434-10.201,25.33-3.312,37.168l2.4,4.144c1.447,2.467,4.1,3.973,6.96,3.952H64.891
	z M104.051,452.033c-13.255,0-24-10.745-24-24s10.745-24,24-24s24,10.745,24,24S117.306,452.033,104.051,452.033z M296.051,316.033
	h16v32h-16V316.033z M384.051,452.033c-13.255,0-24-10.745-24-24s10.745-24,24-24s24,10.745,24,24S397.306,452.033,384.051,452.033z
	 M461.875,419.84l-13.824,0.192v-16h14.152c2.562,4.985,2.451,10.923-0.296,15.808H461.875z M360.051,149.968
	c0-8.837,7.163-16,16-16s16,7.163,16,16v14.064h-32V149.968z M395.795,180.032c33.282,0.013,60.256,26.998,60.256,60.28v147.72h-16
	c-4.418,0-8,3.582-8,8v24h-8.8c-4.396-21.65-25.51-35.636-47.16-31.24c-15.741,3.196-28.044,15.499-31.24,31.24h-16.8v-240H395.795z
	 M40.371,148.032h271.68v152h-16v-88c0-4.418-3.582-8-8-8h-96c-4.418,0-8,3.582-8,8v88h-160v-140.72
	C24.051,153.2,31.539,148.032,40.371,148.032z M280.051,220.032v168h-80v-168H280.051z M184.051,348.032h-160v-32h160V348.032z
	 M40.051,420.032H18.347l-0.104-0.176c-2.743-4.89-2.866-10.825-0.328-15.824h22.136V420.032z M24.051,388.032v-24h160v32
	c0,4.418,3.582,8,8,8h96c4.418,0,8-3.582,8-8v-32h16v56h-168.8c-4.396-21.65-25.51-35.636-47.16-31.24
	c-15.741,3.196-28.044,15.499-31.24,31.24h-8.8v-24c0-4.418-3.582-8-8-8H24.051z"/>
<g>
</g>
<g>
</g>
<g>
</g>
<g>
</g>
<g>
</g>
<g>
</g>
<g>
</g>
<g>
</g>
<g>
</g>
<g>
</g>
<g>
</g>
<g>
</g>
<g>
</g>
<g>
</g>
<g>
</g>
</svg>
