<?xml version="1.0" encoding="UTF-8"?>
<!DOCTYPE svg PUBLIC "-//W3C//DTD SVG 1.1//EN" "http://www.w3.org/Graphics/SVG/1.1/DTD/svg11.dtd">
<!-- Creator: CorelDRAW X7 -->
<svg xmlns="http://www.w3.org/2000/svg" xml:space="preserve" width="98.86mm" height="29mm" version="1.1" style="shape-rendering:geometricPrecision; text-rendering:geometricPrecision; image-rendering:optimizeQuality; fill-rule:evenodd; clip-rule:evenodd"
viewBox="0 0 9886 2900"
 xmlns:xlink="http://www.w3.org/1999/xlink">
 <defs>
  <style type="text/css">
   <![CDATA[
    .str0 {stroke:#A9ABAE;stroke-width:20}
    .fil28 {fill:#FEFEFE}
    .fil32 {fill:#D2D3D5}
    .fil30 {fill:#A9ABAE}
    .fil29 {fill:#EE3539}
    .fil31 {fill:#BF353E}
    .fil37 {fill:#883035}
    .fil38 {fill:#154360}
    .fil33 {fill:#5C546A}
    .fil36 {fill:#FF4F19}
    .fil35 {fill:#FF9600}
    .fil34 {fill:#FFD200}
    .fil39 {fill:white}
    .fil1 {fill:#FEFEFE;fill-rule:nonzero}
    .fil2 {fill:#BF353E;fill-rule:nonzero}
    .fil11 {fill:#883035;fill-rule:nonzero}
    .fil8 {fill:#B4B4B4;fill-rule:nonzero}
    .fil26 {fill:#959697;fill-rule:nonzero}
    .fil25 {fill:#373443;fill-rule:nonzero}
    .fil5 {fill:#403C53;fill-rule:nonzero}
    .fil27 {fill:#154360;fill-rule:nonzero}
    .fil3 {fill:#154360;fill-rule:nonzero}
    .fil0 {fill:url(#id0)}
    .fil6 {fill:url(#id1)}
    .fil4 {fill:url(#id2)}
    .fil10 {fill:url(#id3)}
    .fil15 {fill:url(#id4)}
    .fil9 {fill:url(#id5)}
    .fil14 {fill:url(#id6)}
    .fil22 {fill:url(#id7)}
    .fil12 {fill:url(#id8)}
    .fil7 {fill:url(#id9)}
    .fil23 {fill:url(#id10)}
    .fil24 {fill:url(#id11)}
    .fil18 {fill:url(#id12)}
    .fil19 {fill:url(#id13)}
    .fil20 {fill:url(#id14)}
    .fil21 {fill:url(#id15)}
    .fil13 {fill:url(#id16)}
    .fil17 {fill:url(#id17)}
    .fil16 {fill:url(#id18)}
   ]]>
  </style>
  <linearGradient id="id0" gradientUnits="userSpaceOnUse" x1="2.68" y1="1450" x2="9906" y2="1450">
   <stop offset="0" style="stop-opacity:1; stop-color:#B0B0B0"/>
   <stop offset="0.14902" style="stop-opacity:1; stop-color:#D7D7D7"/>
   <stop offset="1" style="stop-opacity:1; stop-color:#FEFEFE"/>
  </linearGradient>
  <linearGradient id="id1" gradientUnits="userSpaceOnUse" x1="7356.69" y1="499.66" x2="9890.96" y2="499.66">
   <stop offset="0" style="stop-opacity:1; stop-color:#52515E"/>
   <stop offset="1" style="stop-opacity:1; stop-color:#35353C"/>
  </linearGradient>
  <linearGradient id="id2" gradientUnits="userSpaceOnUse" xlink:href="#id1" x1="7646.71" y1="1423.73" x2="9890.96" y2="1423.73">
  </linearGradient>
  <linearGradient id="id3" gradientUnits="userSpaceOnUse" x1="7602.34" y1="576.56" x2="9890.96" y2="576.56">
   <stop offset="0" style="stop-opacity:1; stop-color:#41414A"/>
   <stop offset="1" style="stop-opacity:1; stop-color:#303034"/>
  </linearGradient>
  <linearGradient id="id4" gradientUnits="userSpaceOnUse" xlink:href="#id3" x1="9882.79" y1="2400.39" x2="9883.66" y2="2400.39">
  </linearGradient>
  <linearGradient id="id5" gradientUnits="userSpaceOnUse" xlink:href="#id3" x1="7646.65" y1="830.78" x2="7816.52" y2="830.78">
  </linearGradient>
  <linearGradient id="id6" gradientUnits="userSpaceOnUse" xlink:href="#id3" x1="9884.63" y1="2401.1" x2="9885.48" y2="2401.1">
  </linearGradient>
  <linearGradient id="id7" gradientUnits="userSpaceOnUse" xlink:href="#id3" x1="9869.77" y1="2395.44" x2="9871.06" y2="2395.44">
  </linearGradient>
  <linearGradient id="id8" gradientUnits="userSpaceOnUse" xlink:href="#id3" x1="9888.59" y1="2402.58" x2="9889.13" y2="2402.58">
  </linearGradient>
  <linearGradient id="id9" gradientUnits="userSpaceOnUse" xlink:href="#id3" x1="7816.59" y1="832.12" x2="7817.57" y2="832.12">
  </linearGradient>
  <linearGradient id="id10" gradientUnits="userSpaceOnUse" xlink:href="#id3" x1="9867.94" y1="2394.75" x2="9869.34" y2="2394.75">
  </linearGradient>
  <linearGradient id="id11" gradientUnits="userSpaceOnUse" xlink:href="#id3" x1="7941.87" y1="2205.5" x2="9867.63" y2="2205.5">
  </linearGradient>
  <linearGradient id="id12" gradientUnits="userSpaceOnUse" xlink:href="#id3" x1="9877.16" y1="2398.24" x2="9878.21" y2="2398.24">
  </linearGradient>
  <linearGradient id="id13" gradientUnits="userSpaceOnUse" xlink:href="#id3" x1="9875.34" y1="2397.55" x2="9876.42" y2="2397.55">
  </linearGradient>
  <linearGradient id="id14" gradientUnits="userSpaceOnUse" xlink:href="#id3" x1="9873.48" y1="2396.83" x2="9874.6" y2="2396.83">
  </linearGradient>
  <linearGradient id="id15" gradientUnits="userSpaceOnUse" xlink:href="#id3" x1="9871.64" y1="2396.14" x2="9872.84" y2="2396.14">
  </linearGradient>
  <linearGradient id="id16" gradientUnits="userSpaceOnUse" xlink:href="#id3" x1="9886.58" y1="2401.83" x2="9887.3" y2="2401.83">
  </linearGradient>
  <linearGradient id="id17" gradientUnits="userSpaceOnUse" xlink:href="#id3" x1="9879.03" y1="2398.96" x2="9880.04" y2="2398.96">
  </linearGradient>
  <linearGradient id="id18" gradientUnits="userSpaceOnUse" xlink:href="#id3" x1="9880.88" y1="2399.67" x2="9881.83" y2="2399.67">
  </linearGradient>
 </defs>
 <g id="Capa_x0020_1">
  <metadata id="CorelCorpID_0Corel-Layer"/>
  <rect class="fil0" x="3" width="9903" height="2900"/>
  <path class="fil1" d="M9891 2905l0 -502c-642,-250 -1341,-388 -2072,-388 -731,0 -1429,138 -2071,388l0 502 4143 0z"/>
  <path class="fil2" d="M9891 2688c-491,-191 -1014,-316 -1560,-364 -280,-25 -548,-20 -813,22 -470,76 -920,275 -1301,559l3674 0 0 -217z"/>
  <path class="fil1" d="M7819 2015c-731,0 -1429,138 -2071,388l0 185c642,-251 1340,-388 2071,-388 731,0 1430,137 2072,388l0 -185c-642,-250 -1341,-388 -2072,-388z"/>
  <path class="fil3" d="M9790 2l-286 0c-184,109 -386,215 -600,313 323,-87 627,-195 886,-313z"/>
  <path class="fil4" d="M9891 2403l0 0c-1,0 -1,0 -2,0 0,0 0,0 0,-1 -1,0 -1,0 -2,0 0,0 0,0 0,0 -1,0 -1,-1 -2,-1 0,0 0,0 0,0 -1,0 -1,0 -1,0 -1,-1 -1,-1 -1,-1 -1,0 -1,0 -1,0 0,0 -1,0 -1,-1 0,0 -1,0 -1,0 0,0 -1,0 -1,0 0,0 0,0 -1,-1 0,0 0,0 -1,0 0,0 0,0 -1,0 0,0 0,-1 -1,-1 0,0 0,0 0,0 -1,0 -1,0 -2,0 0,0 0,-1 0,-1 -1,0 -1,0 -1,0 -1,0 -1,0 -1,0 0,0 -1,-1 -1,-1 0,0 -1,0 -1,0 0,0 -1,0 -1,-1 0,0 0,0 0,0 -600,-231 -1249,-363 -1926,-377 12,-52 18,-113 18,-180 0,-167 -37,-374 -113,-589 -56,-160 -126,-302 -200,-418 56,1 113,2 170,2 0,0 0,0 0,0 0,0 0,0 1,0 0,0 1,0 1,0l0 0c731,0 1430,-137 2072,-388l0 1959z"/>
  <path class="fil5" d="M7819 2200l0 0c731,0 1430,137 2072,388l0 -185c-606,-236 -1263,-372 -1949,-386 -22,93 -63,159 -123,183z"/>
  <path class="fil6" d="M7819 832l0 0 0 0 0 0 0 0 0 0 0 0 0 0 0 0 0 0 0 0 0 0 0 0 0 0 0 0 0 0 0 0 0 0 0 0 0 0 0 0 0 0 0 0 0 0 0 0 0 0 0 0 0 0 0 0 0 0 0 0 0 0 0 0 0 0 0 0 0 0 0 0 0 0 0 0 0 0 0 0 0 0 0 0 0 0 0 0 0 0 0 0 0 0 0 0 0 0 0 0 0 0 0 0 0 0 0 0 -1 0 0 0 0 0 0 0 0 0 0 0 0 0 0 0 0 0 0 0 0 0 0 0 0 0 0 0 0 0 0 0 0 0 0 0 0 0 0 0 0 0 0 0 0 0 0 0 0 0 0 0 0 0 0 0 0 0 0 0 0 0 0 0 0 0 0 0 0 0 0 0 0 0 0 0 0 0 0 0 0 0 0 0 0 0 0 0 0 0 0 0 0 0 0 0 0 0 0 0 0 0 0 0 0 0 0 0 0 0 0 0 0 0 0 0 0 0 0 0 0 0 0 0 0 0 0 0 0 0 0 0 0 0 0 0 0 0 0 0 0 0 0 0 0 0 0 0 0 0 0 0 0 0 0 0 0 0 0 0 0 0 0 0 0 0 0 0 0 0 0 0 0 0 0 0 0 0 0 0 0 0 0 0 0 0 0 0 0 0 0 0 0 0 0 0 0 0 0 0 0 0 0 0 0 0 0 0 0 0 0 0 0 0 0 0 0 0 0 0 0 0 0 0 0 0 0 0 0 0 0 0 0 0 0 0 0 0 0 0 0 0 0 0 0 0 0 0 0 0 0 0 0 0 0 0 0 0 1 0 0 0 0 0 0 0 0 0 0 0 0 0 0 0 0 0 0 0 0 0 0 0 0 0 0 0 0 0 0 0 0 0 0 0 0 0 0 0 0 0 0 0 0 0 0 0 0 0 0 0 0 0 0 0 0 0 0 0 0 0 0 0 0 0 0 0 0 0 0 0 0 0 0 0 0 0 0 0 0 0 0 0 0 0 0 0 0 0 0 0 0 0 0 0 0 0 0 0 0 0 0 0 0 0 0 0 0 0zm-2 0l0 0 0 0 0 0 0 0zm2 -57c-72,0 -144,-3 -217,-10 -81,-113 -167,-193 -245,-228 152,12 307,18 462,18 731,0 1430,-137 2072,-388l0 154c-642,251 -1341,454 -2072,454z"/>
  <path class="fil2" d="M7602 764c-81,-112 -167,-192 -245,-227 -21,-2 -41,1 -60,7 -54,19 -94,70 -118,145 -10,31 -18,66 -22,105 161,19 324,31 490,35 -15,-22 -30,-44 -45,-65z"/>
  <path class="fil7" d="M7818 832c-1,0 -1,0 -1,0 0,0 0,0 1,0z"/>
  <path class="fil8" d="M7647 830l0 0c0,0 0,-1 0,-1 -81,-2 -162,-6 -242,-12 80,6 161,10 242,12 -15,-22 -30,-44 -45,-64l0 0c15,20 30,42 45,64l0 0c0,0 0,1 0,1z"/>
  <path class="fil9" d="M7817 832c-57,0 -114,-1 -170,-2l0 0c0,0 0,-1 0,-1 56,2 113,3 170,3z"/>
  <path class="fil8" d="M7157 794c-463,-54 -908,-162 -1329,-319 0,0 0,0 -1,0 0,-1 0,-1 -1,-1 0,0 0,0 0,0 -1,0 -1,0 -2,-1 0,0 0,0 0,0 -1,0 -1,0 -1,0 -1,0 -1,0 -1,-1 0,0 -1,0 -1,0 0,0 -1,0 -1,0 0,0 -1,0 -1,-1 0,0 -1,0 -1,0 0,0 -1,0 -1,0 0,0 -1,-1 -1,-1 0,0 0,0 -1,0 -2,-1 -5,-2 -7,-3l0 0c-16,-6 -33,-12 -49,-19 0,0 0,0 0,0 -1,0 -1,0 -2,0 0,0 0,0 0,0 -1,-1 -1,-1 -2,-1 0,0 0,0 0,0 -1,0 -1,0 -2,-1 0,0 0,0 0,0 0,0 -1,0 -1,0 -1,0 -1,0 -1,0 0,-1 -1,-1 -1,-1 0,0 0,0 -1,0 0,0 -1,-1 -1,-1l-1053 -444 994 0 59 36c397,254 907,520 1431,653 -10,31 -18,66 -22,105z"/>
  <path class="fil10" d="M7819 832l0 0c0,0 -1,0 -1,0 -1,0 -1,0 -1,0 0,0 0,0 0,0 -57,0 -114,-1 -170,-3l0 0c-15,-22 -30,-44 -45,-64 73,7 145,10 217,10 731,0 1430,-203 2072,-454l0 123c-642,251 -1341,388 -2072,388z"/>
  <path class="fil11" d="M7647 829c-81,-2 -162,-6 -242,-12 -83,-6 -166,-14 -248,-23 4,-39 12,-74 22,-105 141,36 282,62 423,76 15,20 30,42 45,64z"/>
  <path class="fil2" d="M7819 2015c-97,0 -193,3 -288,8 20,23 40,45 60,64 1,1 3,3 4,4 79,75 157,114 224,109 47,-19 81,-62 105,-124 7,-18 13,-38 18,-59 -41,-1 -82,-2 -123,-2z"/>
  <path class="fil8" d="M5841 2905l-93 0 -627 3 627 -320c354,-138 726,-242 1111,-308 -436,175 -794,429 -1018,625z"/>
  <path class="fil8" d="M5748 2588l-627 320 -383 0c310,-213 647,-380 1010,-505 641,-250 1339,-387 2069,-388 -96,0 -192,3 -286,8 20,23 40,45 60,64 1,1 3,3 4,4 -261,29 -509,99 -736,189 -385,66 -757,170 -1111,308z"/>
  <path class="fil12" d="M9889 2403c0,0 0,0 0,-1 0,1 0,1 0,1z"/>
  <path class="fil13" d="M9887 2402c0,0 0,0 0,0 0,0 0,0 0,0z"/>
  <path class="fil14" d="M9885 2401c0,0 0,0 0,0 0,0 0,0 0,0z"/>
  <path class="fil15" d="M9884 2401c-1,-1 -1,-1 -1,-1 0,0 0,0 1,1z"/>
  <path class="fil16" d="M9882 2400c0,0 -1,0 -1,-1 0,1 1,1 1,1z"/>
  <path class="fil17" d="M9880 2399c0,0 -1,0 -1,0 0,0 1,0 1,0z"/>
  <path class="fil18" d="M9878 2398c0,0 0,0 -1,0 1,0 1,0 1,0z"/>
  <path class="fil19" d="M9876 2398c0,0 0,-1 -1,-1 1,0 1,1 1,1z"/>
  <path class="fil20" d="M9875 2397c-1,0 -1,0 -2,0 1,0 1,0 2,0z"/>
  <path class="fil21" d="M9873 2396c-1,0 -1,0 -1,0 0,0 0,0 1,0z"/>
  <path class="fil22" d="M9871 2396c0,0 -1,-1 -1,-1 0,0 1,1 1,1z"/>
  <path class="fil23" d="M9869 2395c0,0 -1,0 -1,-1 0,1 1,1 1,1z"/>
  <path class="fil24" d="M9868 2394c-600,-231 -1249,-363 -1926,-377l0 0 0 0c0,0 0,0 0,0 0,0 0,0 0,0 677,14 1326,146 1926,377z"/>
  <path class="fil8" d="M7924 2076c0,0 0,0 0,0 7,-18 13,-38 18,-59 -5,21 -11,41 -18,59zm18 -59c-1,0 -2,0 -3,0 1,0 2,0 3,0l0 0 0 0z"/>
  <path class="fil25" d="M9891 2465c-611,-239 -1274,-386 -1967,-389 7,-18 13,-38 18,-59l0 0c677,14 1326,146 1926,377 0,0 0,0 0,0 0,1 1,1 1,1 1,0 1,0 1,0 0,0 1,1 1,1 0,0 0,0 1,0 0,0 0,0 1,0 0,0 0,1 0,1 1,0 1,0 2,0 0,0 0,0 0,0 1,0 1,1 1,1 1,0 1,0 1,0 1,0 1,0 1,0 0,1 1,1 1,1 0,0 1,0 1,0 0,0 1,0 1,0 0,1 1,1 1,1 0,0 0,0 1,0 0,0 0,0 1,1 0,0 0,0 1,0 0,0 0,0 0,0 1,0 1,1 2,1 0,0 0,0 0,0 1,0 1,0 2,0 0,1 0,1 0,1 1,0 1,0 2,0l0 62z"/>
  <path class="fil26" d="M7942 2017l0 0 0 0c0,0 0,0 0,0zm0 0l0 0c-1,0 -2,0 -3,0 -40,-1 -80,-2 -120,-2 41,0 82,1 123,2 0,0 0,0 0,0z"/>
  <path class="fil8" d="M7817 2015c1,0 2,0 2,0 0,0 -1,0 -2,0z"/>
  <path class="fil11" d="M7595 2091c-1,-1 -3,-3 -4,-4 -20,-19 -40,-41 -60,-64 94,-5 190,-8 286,-8 0,0 0,0 0,0 1,0 2,0 2,0l0 0c40,0 80,1 120,2 1,0 2,0 3,0l0 0c-5,21 -11,41 -18,59 -8,0 -15,0 -23,0 -27,0 -54,0 -82,1 -75,1 -150,6 -224,14z"/>
  <path class="fil27" d="M7819 555c-155,0 -310,-6 -462,-18 93,41 195,146 290,292 74,117 144,259 200,419 106,301 137,588 95,769 -22,93 -63,159 -123,183l0 0c731,0 1430,137 2072,388l0 -2421c-642,251 -1341,388 -2072,388z"/>
  <path class="fil28" d="M8022 1095l0 288 -54 0 0 -288 -89 0 0 -46 232 0 0 46 -89 0zm129 -46l54 0 0 203c0,30 7,53 21,68 13,15 34,23 62,23 28,0 48,-8 62,-23 14,-15 21,-38 21,-68l0 -203 54 0 0 208c0,45 -11,79 -34,102 -23,22 -57,33 -103,33 -46,0 -80,-11 -103,-33 -23,-23 -34,-57 -34,-102l0 -208zm403 143l10 0c29,0 48,-4 58,-10 9,-7 14,-19 14,-36 0,-18 -5,-31 -15,-39 -10,-7 -29,-11 -57,-11l-10 0 0 96zm-3 42l0 149 -51 0 0 -334 76 0c22,0 39,2 52,4 12,3 22,8 31,15 10,8 18,18 24,31 6,13 9,27 9,42 0,27 -7,48 -20,63 -13,15 -32,24 -57,27l115 152 -61 0 -112 -149 -6 0zm211 149l0 -347 213 204c5,6 11,12 17,19 6,6 12,14 19,22l0 -232 50 0 0 348 -217 -209c-5,-5 -11,-11 -16,-17 -6,-7 -11,-13 -16,-20l0 232 -50 0zm662 -166c0,-17 -3,-33 -9,-48 -7,-15 -15,-29 -27,-41 -11,-12 -24,-21 -39,-27 -15,-6 -31,-9 -47,-9 -16,0 -32,3 -47,9 -15,6 -28,15 -40,27 -11,12 -20,25 -26,41 -6,15 -9,31 -9,48 0,17 3,33 9,48 6,15 15,28 26,40 12,12 25,21 40,27 15,7 30,10 47,10 16,0 32,-3 46,-10 15,-6 28,-15 40,-27 12,-12 20,-25 27,-40 6,-15 9,-31 9,-48zm56 0c0,24 -4,46 -13,67 -9,21 -22,40 -39,57 -17,17 -36,29 -58,38 -22,9 -44,13 -68,13 -24,0 -47,-4 -69,-13 -22,-9 -41,-22 -58,-38 -17,-17 -30,-35 -39,-56 -8,-21 -13,-44 -13,-68 0,-24 5,-47 13,-68 9,-21 22,-40 39,-57 17,-16 37,-29 58,-37 22,-9 45,-13 69,-13 24,0 47,4 68,13 22,8 41,21 58,37 17,17 30,36 39,58 9,21 13,43 13,67zm44 99l43 -20c4,15 12,27 23,34 10,8 24,12 42,12 16,0 29,-4 38,-13 10,-9 14,-21 14,-36 0,-20 -16,-37 -49,-53 -4,-2 -8,-4 -10,-5 -37,-18 -61,-34 -74,-49 -12,-14 -18,-32 -18,-53 0,-27 9,-49 28,-66 18,-17 42,-25 72,-25 25,0 46,4 62,14 17,9 28,23 35,41l-43 22c-6,-11 -14,-18 -22,-23 -8,-5 -17,-8 -27,-8 -15,0 -27,4 -35,12 -9,7 -13,18 -13,30 0,20 19,39 57,57 3,1 5,2 7,3 33,15 55,30 68,44 12,15 18,33 18,55 0,32 -10,57 -30,75 -20,19 -47,28 -81,28 -28,0 -52,-6 -70,-19 -18,-13 -30,-32 -35,-57z"/>
  <path class="fil29" d="M8288 1666c0,-27 -8,-49 -25,-66 -17,-16 -39,-25 -66,-25 -13,0 -26,3 -38,8 -13,5 -23,12 -32,22 -11,10 -19,22 -24,36 -6,14 -8,28 -8,43 0,27 8,49 24,66 17,17 38,25 64,25 30,0 55,-10 75,-31 20,-21 30,-47 30,-78zm-89 -127c40,0 71,11 95,34 23,23 35,54 35,93 0,20 -4,40 -12,58 -7,18 -18,34 -32,48 -14,13 -30,22 -47,29 -18,7 -37,10 -58,10 -37,0 -68,-11 -91,-34 -23,-24 -35,-54 -35,-92 0,-21 4,-41 12,-59 7,-18 18,-34 32,-48 13,-12 28,-22 46,-29 18,-7 36,-10 55,-10zm160 266l35 -270 141 162c6,6 10,12 14,17 4,6 8,11 12,16 0,-5 0,-11 1,-17 0,-6 1,-14 2,-23l20 -145 38 0 -35 270 -142 -162c-7,-8 -12,-14 -16,-19 -4,-5 -7,-10 -10,-14 0,8 -1,20 -3,36 -1,2 -1,3 -1,4l-18 145 -38 0zm288 0l34 -260 41 0 -29 220 97 0 -6 40 -137 0zm171 0l34 -260 42 0 -35 260 -41 0zm101 0l35 -270 142 162c5,6 9,12 13,17 5,6 8,11 12,16 0,-5 0,-11 1,-17 0,-6 1,-14 2,-23l20 -145 38 0 -35 270 -142 -162c-7,-8 -12,-14 -16,-19 -4,-5 -7,-10 -10,-14 0,8 -1,20 -3,36 -1,2 -1,3 -1,4l-18 145 -38 0zm288 0l34 -260 146 0 -5 37 -105 0 -9 65 105 0 -4 36 -106 0 -11 84 106 0 -5 38 -146 0z"/>
  <path class="fil2" d="M7797 786c729,54 1436,-31 2095,-233l-1 -232 -132 52c-524,214 -1259,376 -1962,413z"/>
  <g id="_2237567849488">
   <path class="fil28" d="M9771 1534l-245 0c-13,0 -24,11 -24,25l0 185 0 10c0,13 11,24 24,24l93 0 0 20 -24 0c-14,0 -25,11 -25,24 0,3 3,5 5,5l147 0c2,0 5,-2 5,-5 0,-13 -11,-24 -25,-24l-24 0 0 -20 93 0c13,0 24,-11 24,-24l0 -10 0 -185c0,-14 -11,-25 -24,-25zm-259 25c0,-8 6,-15 14,-15l245 0c8,0 14,7 14,15l0 180 -273 0 0 -180zm204 258l-135 0c2,-5 7,-9 14,-9l29 0 49 0 29 0c7,0 12,4 14,9zm-48 -19l-39 0 0 -20 39 0 0 20zm117 -44c0,8 -6,15 -14,15l-98 0 -49 0 -98 0c-8,0 -14,-7 -14,-15l0 -5 273 0 0 5z"/>
   <path class="fil28" d="M9687 1611l-77 0c-13,0 -24,10 -24,23l0 15c0,13 11,24 24,24l77 0c13,0 24,-11 24,-24l0 -15c0,-13 -11,-23 -24,-23zm8 38c0,5 -3,8 -8,8l-77 0c-5,0 -8,-3 -8,-8l0 -15c0,-4 3,-8 8,-8l77 0c5,0 8,4 8,8l0 15z"/>
   <path class="fil28" d="M9745 1694c1,-1 1,-3 1,-5 0,-2 -2,-3 -4,-3l-39 -10c-1,-1 -3,0 -4,1 -1,1 -2,3 -2,5l10 39c1,2 2,3 4,3 0,1 1,1 1,1 1,0 3,-1 3,-2l12 -11 21 21 6 -7 -20 -21 11 -11zm-30 16l-6 -23 23 6 -17 17z"/>
   <rect class="fil28" x="9644" y="1593" width="9.76329" height="9.76329"/>
   <path class="fil28" d="M9666 1579c-7,-5 -14,-6 -17,-6 -9,0 -15,4 -18,6l6 8c2,-2 6,-4 12,-4 2,0 7,1 11,4l6 -8z"/>
   <path class="fil28" d="M9649 1563c3,0 13,1 21,9l6 -7c-10,-10 -23,-11 -27,-11 -15,0 -25,7 -28,11l6 7c3,-3 11,-9 22,-9z"/>
   <rect class="fil28" x="9746" y="1627" width="9.76329" height="9.76329"/>
   <rect class="fil28" x="9746" y="1598" width="9.76329" height="19.5266"/>
   <rect class="fil28" x="9746" y="1563" width="9.76329" height="24.4082"/>
   <rect class="fil28" x="9541" y="1627" width="9.76329" height="9.76329"/>
   <rect class="fil28" x="9541" y="1598" width="9.76329" height="19.5266"/>
   <rect class="fil28" x="9541" y="1563" width="9.76329" height="24.4082"/>
  </g>
  <g id="_2237567848784">
  </g>
  <g id="_2237567848336">
  </g>
  <g id="_2237567848560">
  </g>
  <g id="_2237567848176">
  </g>
  <g id="_2237567846000">
  </g>
  <g id="_2237567846672">
  </g>
  <polygon class="fil30 str0" points="1928,1212 4398,1212 4328,1668 1858,1668 "/>
  <g id="_2237567845936">
  </g>
  <g id="_2237567847088">
  </g>
  <g id="_2237567860240">
  </g>
  <g id="_2237567861776">
  </g>
  <g id="_2237567860848">
  </g>
  <g id="_2237567861008">
  </g>
  <g id="_2237567861392">
  </g>
  <g id="_2237567858064">
  </g>
  <g id="_2237567857936">
  </g>
  <g id="_2237567858448">
   <path class="fil28" d="M563 804l0 750c0,50 41,91 92,91l987 0c51,0 92,-41 92,-91l0 -750 -1171 0z"/>
  </g>
  <g id="_2237567859888">
   <path class="fil31" d="M1642 548l-987 0c-51,0 -92,41 -92,91l0 165 1171 0 0 -165c0,-50 -41,-91 -92,-91zm-932 183c-31,0 -55,-25 -55,-55 0,-30 24,-55 55,-55 30,0 55,25 55,55 0,30 -25,55 -55,55zm877 0c-30,0 -55,-25 -55,-55 0,-30 25,-55 55,-55 31,0 55,25 55,55 0,30 -24,55 -55,55z"/>
  </g>
  <g id="_2235704647648">
   <g>
    <path class="fil32" d="M1148 969c-40,0 -73,32 -73,73 0,40 33,73 73,73 41,0 74,-33 74,-73 0,-41 -33,-73 -74,-73z"/>
   </g>
   <g>
    <path class="fil32" d="M966 969c-41,0 -74,32 -74,73 0,40 33,73 74,73 40,0 73,-33 73,-73 0,-41 -33,-73 -73,-73z"/>
   </g>
   <g>
    <path class="fil32" d="M783 969c-41,0 -73,32 -73,73 0,40 32,73 73,73 40,0 73,-33 73,-73 0,-41 -33,-73 -73,-73z"/>
   </g>
   <g>
    <path class="fil32" d="M1331 969c-40,0 -73,32 -73,73 0,40 33,73 73,73 41,0 73,-33 73,-73 0,-41 -32,-73 -73,-73z"/>
   </g>
   <g>
    <path class="fil32" d="M1514 1115c40,0 73,-33 73,-73 0,-41 -33,-73 -73,-73 -40,0 -73,32 -73,73 0,40 33,73 73,73z"/>
   </g>
   <g>
    <path class="fil32" d="M1148 1151c-40,0 -73,33 -73,74 0,40 33,73 73,73 41,0 74,-33 74,-73 0,-41 -33,-74 -74,-74z"/>
   </g>
   <g>
    <path class="fil32" d="M966 1151c-41,0 -74,33 -74,74 0,40 33,73 74,73 40,0 73,-33 73,-73 0,-41 -33,-74 -73,-74z"/>
   </g>
   <g>
    <path class="fil32" d="M783 1151c-41,0 -73,33 -73,74 0,40 32,73 73,73 40,0 73,-33 73,-73 0,-41 -33,-74 -73,-74z"/>
   </g>
   <g>
    <path class="fil32" d="M1331 1151c-40,0 -73,33 -73,74 0,40 33,73 73,73 41,0 73,-33 73,-73 0,-41 -32,-74 -73,-74z"/>
   </g>
   <g>
    <path class="fil32" d="M1514 1151c-40,0 -73,33 -73,74 0,40 33,73 73,73 40,0 73,-33 73,-73 0,-41 -33,-74 -73,-74z"/>
   </g>
   <g>
    <path class="fil32" d="M1148 1334c-40,0 -73,33 -73,73 0,41 33,74 73,74 41,0 74,-33 74,-74 0,-40 -33,-73 -74,-73z"/>
   </g>
   <g>
    <path class="fil32" d="M966 1334c-41,0 -74,33 -74,73 0,41 33,74 74,74 40,0 73,-33 73,-74 0,-40 -33,-73 -73,-73z"/>
   </g>
   <g>
    <path class="fil32" d="M783 1334c-41,0 -73,33 -73,73 0,41 32,74 73,74 40,0 73,-33 73,-74 0,-40 -33,-73 -73,-73z"/>
   </g>
   <g>
    <path class="fil32" d="M1331 1334c-40,0 -73,33 -73,73 0,41 33,74 73,74 41,0 73,-33 73,-74 0,-40 -32,-73 -73,-73z"/>
   </g>
   <g>
    <path class="fil32" d="M1514 1334c-40,0 -73,33 -73,73 0,41 33,74 73,74 40,0 73,-33 73,-74 0,-40 -33,-73 -73,-73z"/>
   </g>
  </g>
  <g id="_2235704646624">
   <g>
    <path class="fil33" d="M710 703c-15,0 -28,-12 -28,-27l0 -128c0,-15 13,-27 28,-27 15,0 27,12 27,27l0 128c0,15 -12,27 -27,27z"/>
   </g>
  </g>
  <g id="_2235704646976">
   <g>
    <path class="fil33" d="M1587 703c-15,0 -27,-12 -27,-27l0 -128c0,-15 12,-27 27,-27 15,0 28,12 28,27l0 128c0,15 -13,27 -28,27z"/>
   </g>
  </g>
  <g id="_2235704646176">
   <circle class="fil34" cx="783" cy="1042" r="73"/>
  </g>
  <g id="_2235704637728">
   <circle class="fil35" cx="1148" cy="1407" r="73"/>
  </g>
  <g id="_2235704635744">
   <circle class="fil36" cx="1331" cy="1225" r="73"/>
  </g>
  <path class="fil37" d="M1957 807l14 0c41,0 68,-5 81,-14 14,-10 20,-26 20,-50 0,-26 -7,-45 -21,-56 -15,-10 -41,-15 -80,-15l-14 0 0 135zm-5 60l0 212 -72 0 0 -474 108 0c31,0 55,2 73,6 17,5 32,11 44,21 15,11 26,26 34,44 8,18 12,38 12,60 0,37 -9,67 -27,89 -19,21 -46,34 -82,38l163 216 -86 0 -158 -212 -9 0zm299 212l0 -474 264 0 0 66 -187 0 0 118 187 0 0 68 -187 0 0 153 187 0 0 69 -264 0zm325 -95l61 -29c6,22 17,38 33,49 15,11 35,16 59,16 23,0 41,-6 55,-19 13,-12 20,-29 20,-51 0,-27 -23,-52 -69,-74 -7,-3 -12,-6 -15,-7 -53,-26 -87,-49 -105,-69 -17,-21 -26,-46 -26,-76 0,-38 13,-69 40,-93 26,-24 60,-36 103,-36 35,0 64,6 87,20 24,13 40,33 49,58l-60 31c-9,-15 -20,-26 -31,-33 -12,-7 -25,-10 -39,-10 -21,0 -37,5 -50,16 -12,11 -18,25 -18,43 0,29 27,55 80,80 5,2 8,3 10,4 47,22 79,43 96,64 18,20 27,46 27,77 0,45 -14,80 -43,107 -28,26 -66,39 -114,39 -41,0 -74,-9 -99,-28 -26,-18 -43,-45 -51,-79zm391 95l0 -474 264 0 0 66 -188 0 0 118 188 0 0 68 -188 0 0 153 188 0 0 69 -264 0zm429 -272l14 0c40,0 67,-5 81,-14 13,-10 20,-26 20,-50 0,-26 -7,-45 -22,-56 -14,-10 -41,-15 -79,-15l-14 0 0 135zm-5 60l0 212 -72 0 0 -474 107 0c32,0 56,2 73,6 18,5 32,11 45,21 14,11 26,26 34,44 8,18 12,38 12,60 0,37 -10,67 -28,89 -18,21 -45,34 -81,38l163 216 -87 0 -157 -212 -9 0zm449 230l-211 -492 80 0 106 253c6,14 11,28 15,40 4,12 8,24 10,35 3,-11 6,-24 11,-36 4,-13 9,-26 15,-39l105 -253 80 0 -211 492zm259 -18l0 -474 264 0 0 66 -187 0 0 118 187 0 0 68 -187 0 0 153 187 0 0 69 -264 0z"/>
  <path class="fil28" d="M1927 1569l32 -27c10,23 21,39 33,49 12,10 26,15 43,15 22,0 39,-7 52,-19 14,-13 20,-30 20,-51 0,-13 -3,-24 -9,-32 -7,-9 -22,-20 -47,-34 -32,-17 -54,-33 -65,-47 -11,-14 -16,-32 -16,-52 0,-31 10,-56 29,-75 20,-20 46,-30 77,-30 21,0 39,5 55,14 16,9 30,23 42,42l-32 27c-8,-16 -17,-27 -27,-34 -11,-8 -23,-11 -37,-11 -19,0 -34,5 -46,17 -12,11 -18,26 -18,44 0,24 19,45 55,65 7,3 12,6 15,8 26,14 43,29 53,43 10,15 14,33 14,54 0,34 -10,60 -30,80 -21,19 -49,29 -84,29 -26,0 -48,-6 -66,-19 -18,-13 -33,-32 -43,-56zm320 -294l44 0 -29 219c-1,7 -2,14 -2,19 -1,5 -1,10 -1,13 0,26 7,45 20,59 14,13 33,20 59,20 18,0 34,-3 48,-9 14,-6 26,-16 35,-28 12,-16 21,-47 26,-91 1,-4 1,-7 2,-9l26 -193 43 0 -27 202 0 0c-7,57 -20,96 -37,117 -13,17 -30,29 -50,38 -20,9 -44,13 -69,13 -37,0 -66,-9 -87,-28 -22,-18 -33,-43 -33,-74 0,-12 1,-27 3,-43 1,-17 4,-37 7,-61l22 -164zm507 359l42 -320 -90 0 4 -39 227 0 -5 39 -91 0 -43 320 -44 0zm234 -359l43 0 -28 219c-1,7 -2,14 -3,19 0,5 0,10 0,13 0,26 6,45 20,59 13,13 33,20 59,20 18,0 34,-3 48,-9 14,-6 25,-16 34,-28 12,-16 21,-47 27,-91 1,-4 1,-7 1,-9l26 -193 43 0 -26 202 0 0c-8,57 -20,96 -37,117 -13,17 -30,29 -50,38 -21,9 -44,13 -69,13 -37,0 -66,-9 -88,-28 -21,-18 -32,-43 -32,-74 0,-12 1,-27 2,-43 2,-17 4,-37 7,-61l23 -164zm373 160l29 0c18,0 32,-1 41,-2 9,-1 16,-3 23,-6 11,-5 19,-13 25,-23 6,-10 9,-22 9,-35 0,-20 -6,-35 -19,-43 -12,-9 -37,-13 -73,-13l-19 0 -16 122zm-68 199l47 -359 58 0c31,0 53,1 66,4 13,4 25,9 35,17 11,9 19,19 25,32 5,12 8,26 8,41 0,30 -10,54 -30,72 -20,17 -47,26 -80,27l110 166 -52 0 -105 -166 -19 0 -21 166 -42 0zm274 0l48 -374 215 282 36 -268 43 0 -50 375 -213 -279 -36 264 -43 0zm723 -192c0,-41 -13,-74 -38,-99 -25,-26 -59,-38 -100,-38 -21,0 -40,4 -59,11 -18,8 -34,18 -48,33 -16,16 -28,34 -37,55 -8,20 -12,42 -12,64 0,41 12,74 37,99 25,25 58,38 99,38 21,0 41,-4 60,-12 19,-7 36,-18 50,-33 15,-15 27,-33 36,-53 8,-21 12,-43 12,-65zm-136 -176c54,0 98,16 130,48 33,32 49,75 49,128 0,28 -5,55 -16,80 -10,26 -25,48 -45,67 -19,17 -40,31 -65,41 -25,9 -51,14 -79,14 -53,0 -95,-16 -127,-49 -32,-32 -48,-74 -48,-126 0,-29 5,-57 15,-82 11,-26 26,-48 45,-67 18,-17 39,-30 63,-40 25,-9 51,-14 78,-14z"/>
  <path class="fil38" d="M615 2271l0 -456 157 0c35,0 62,2 81,7 26,6 48,17 67,32 24,21 42,47 54,78 12,32 17,68 17,109 0,34 -4,65 -12,92 -8,27 -18,49 -31,66 -12,18 -26,32 -41,41 -15,11 -33,18 -55,23 -21,6 -45,8 -73,8l-164 0zm60 -53l97 0c30,0 54,-3 71,-9 17,-5 31,-13 41,-23 14,-15 25,-34 33,-58 8,-24 12,-54 12,-88 0,-48 -8,-85 -23,-110 -16,-26 -35,-43 -57,-52 -16,-6 -42,-9 -78,-9l-96 0 0 349zm401 53l0 -456 329 0 0 54 -269 0 0 140 252 0 0 53 -252 0 0 156 280 0 0 53 -340 0zm403 -146l57 -5c3,23 9,41 19,56 10,15 25,27 46,36 20,9 44,13 69,13 23,0 44,-3 61,-10 18,-7 31,-16 40,-28 8,-12 13,-25 13,-39 0,-15 -5,-27 -13,-38 -8,-10 -22,-19 -41,-27 -12,-4 -39,-12 -81,-22 -42,-10 -71,-19 -88,-28 -22,-12 -38,-26 -49,-43 -10,-17 -16,-36 -16,-56 0,-24 7,-45 20,-65 13,-20 32,-35 57,-46 25,-10 53,-15 84,-15 34,0 63,5 89,16 26,11 46,27 60,48 14,21 21,45 22,72l-58 4c-3,-28 -13,-50 -31,-65 -18,-15 -45,-22 -80,-22 -36,0 -63,7 -80,20 -16,14 -25,30 -25,49 0,16 6,29 18,40 12,11 42,21 91,32 49,12 83,21 101,30 26,12 46,27 59,46 12,19 18,40 18,65 0,24 -6,47 -20,68 -14,21 -34,38 -60,50 -26,12 -55,18 -88,18 -41,0 -75,-6 -103,-18 -28,-12 -50,-30 -66,-54 -16,-25 -24,-52 -25,-82zm445 146l0 -456 157 0c35,0 62,2 81,7 26,6 48,17 67,32 24,21 42,47 54,78 12,32 17,68 17,109 0,34 -4,65 -12,92 -8,27 -18,49 -31,66 -12,18 -26,32 -41,41 -15,11 -33,18 -55,23 -21,6 -45,8 -73,8l-164 0zm60 -53l97 0c30,0 54,-3 71,-9 17,-5 31,-13 41,-23 14,-15 25,-34 33,-58 8,-24 12,-54 12,-88 0,-48 -8,-85 -23,-110 -16,-26 -35,-43 -57,-52 -16,-6 -42,-9 -78,-9l-96 0 0 349zm401 53l0 -456 329 0 0 54 -269 0 0 140 252 0 0 53 -252 0 0 156 280 0 0 53 -340 0zm515 0l175 -456 66 0 186 456 -69 0 -53 -138 -192 0 -49 138 -64 0zm131 -187l155 0 -47 -126c-15,-39 -25,-71 -33,-96 -6,30 -15,59 -25,88l-50 134zm688 138c28,20 54,34 78,42l-18 42c-33,-11 -65,-30 -98,-55 -34,18 -71,28 -112,28 -41,0 -78,-10 -112,-30 -33,-20 -59,-48 -77,-84 -18,-36 -27,-76 -27,-122 0,-45 9,-85 27,-122 18,-37 44,-65 78,-84 34,-20 71,-29 113,-29 42,0 80,10 113,30 34,20 60,48 78,84 17,35 26,76 26,121 0,38 -6,71 -17,101 -11,30 -29,56 -52,78zm-132 -77c35,10 63,24 86,44 35,-33 53,-81 53,-146 0,-37 -6,-69 -19,-96 -13,-28 -31,-49 -55,-64 -24,-15 -51,-23 -81,-23 -45,0 -82,15 -112,46 -29,31 -44,77 -44,138 0,59 15,104 44,136 29,31 67,47 112,47 22,0 42,-4 61,-12 -19,-12 -39,-21 -60,-26l15 -44zm581 -330l61 0 0 264c0,45 -6,82 -16,109 -10,27 -29,49 -56,65 -27,17 -62,26 -106,26 -43,0 -78,-8 -105,-22 -27,-15 -46,-36 -58,-64 -11,-28 -17,-66 -17,-114l0 -264 60 0 0 263c0,40 4,69 11,88 8,19 20,33 38,43 18,11 40,16 66,16 44,0 75,-10 94,-30 19,-21 28,-59 28,-117l0 -263zm171 456l0 -456 61 0 0 456 -61 0zm-18 -484l41 -87 74 0 -68 87 -47 0z"/>
  <circle class="fil31" transform="matrix(1.32423E-015 -0.05 0.05 1.32423E-015 5023.29 2148.9)" r="10500"/>
  <path class="fil37" d="M5200 1654l-177 167 -75 194 -168 146 243 316 508 -462c-44,-168 -169,-303 -331,-361z"/>
  <polygon class="fil39" points="5023,2477 4780,2161 4892,2161 5023,1821 5155,2161 5267,2161 "/>
  <g id="_2235704626752">
  </g>
  <g id="_2235704628576">
  </g>
  <g id="_2235704692672">
  </g>
  <g id="_2235704691584">
  </g>
  <g id="_2235704691168">
  </g>
  <g id="_2235704688736">
  </g>
  <g id="_2235704688192">
  </g>
  <g id="_2235704689440">
  </g>
  <g id="_2235704689056">
  </g>
  <g id="_2235704689696">
  </g>
  <g id="_2235704688640">
  </g>
  <g id="_2235704687424">
  </g>
  <g id="_2235704686432">
  </g>
  <g id="_2235704686720">
  </g>
  <g id="_2235704685472">
  </g>
 </g>
</svg>
