<svg id="Capa_1" data-name="Capa 1" xmlns="http://www.w3.org/2000/svg" xmlns:xlink="http://www.w3.org/1999/xlink" viewBox="0 0 137.54 82.2"><defs><style>.cls-1{fill:url(#Degradado_sin_nombre);}.cls-2{fill:#a9abae;stroke:#a9abae;stroke-width:0.57px;}.cls-14,.cls-2{stroke-miterlimit:10;}.cls-10,.cls-11,.cls-12,.cls-13,.cls-14,.cls-15,.cls-2,.cls-3,.cls-4,.cls-5,.cls-6{fill-rule:evenodd;}.cls-3{fill:#fefefe;}.cls-4{fill:#bf353e;}.cls-5{fill:#d2d3d5;}.cls-6{fill:#5c546a;}.cls-7{fill:#ffd200;}.cls-8{fill:#ff9600;}.cls-9{fill:#ff4f19;}.cls-10{fill:#883035;}.cls-11,.cls-12{fill:#154360;}.cls-12,.cls-13{fill-opacity:0.2;}.cls-13{fill:#db2526;}.cls-14,.cls-15,.cls-16{fill:#4b4b4d;}.cls-14{stroke:#4b4b4d;stroke-width:0.22px;}</style><linearGradient id="Degradado_sin_nombre" x1="28069.84" y1="-18432.67" x2="32921.91" y2="-18432.67" gradientTransform="matrix(0.03, 0, 0, -0.03, -795.68, -481.4)" gradientUnits="userSpaceOnUse"><stop offset="0" stop-color="#b0b0b0"/><stop offset="0.15" stop-color="#d7d7d7"/><stop offset="1" stop-color="#fefefe"/></linearGradient></defs><rect class="cls-1" width="137.54" height="82.2"/><polygon class="cls-2" points="51.39 28.5 110.43 28.5 108.76 39.4 49.72 39.4 51.39 28.5"/><g id="_2235705578400" data-name=" 2235705578400"><path class="cls-3" d="M18.77,18.75V36.68A2.19,2.19,0,0,0,21,38.85H44.56a2.19,2.19,0,0,0,2.2-2.17V18.75Z"/></g><g id="_2235705577888" data-name=" 2235705577888"><path class="cls-4" d="M44.56,12.63H21a2.19,2.19,0,0,0-2.2,2.18v3.94h28V14.81A2.19,2.19,0,0,0,44.56,12.63ZM22.28,17a1.32,1.32,0,1,1,1.32-1.32A1.33,1.33,0,0,1,22.28,17Zm21,0a1.32,1.32,0,0,1,0-2.63,1.32,1.32,0,1,1,0,2.63Z"/></g><g id="_2235843064400" data-name=" 2235843064400"><path class="cls-5" d="M32.75,22.69a1.75,1.75,0,1,0,1.77,1.75A1.74,1.74,0,0,0,32.75,22.69Z"/><path class="cls-5" d="M28.4,22.69a1.75,1.75,0,1,0,1.75,1.75A1.75,1.75,0,0,0,28.4,22.69Z"/><path class="cls-5" d="M24,22.69a1.75,1.75,0,1,0,1.74,1.75A1.73,1.73,0,0,0,24,22.69Z"/><path class="cls-5" d="M37.13,22.69a1.75,1.75,0,1,0,1.74,1.75A1.72,1.72,0,0,0,37.13,22.69Z"/><path class="cls-5" d="M41.5,26.18a1.75,1.75,0,1,0-1.75-1.74A1.74,1.74,0,0,0,41.5,26.18Z"/><path class="cls-5" d="M32.75,27a1.76,1.76,0,1,0,1.77,1.77A1.76,1.76,0,0,0,32.75,27Z"/><path class="cls-5" d="M28.4,27a1.76,1.76,0,1,0,1.75,1.77A1.77,1.77,0,0,0,28.4,27Z"/><path class="cls-5" d="M24,27a1.76,1.76,0,1,0,1.74,1.77A1.75,1.75,0,0,0,24,27Z"/><path class="cls-5" d="M37.13,27a1.76,1.76,0,0,0,0,3.52,1.76,1.76,0,0,0,0-3.52Z"/><path class="cls-5" d="M41.5,27a1.76,1.76,0,1,0,1.74,1.77A1.76,1.76,0,0,0,41.5,27Z"/><path class="cls-5" d="M32.75,31.42a1.76,1.76,0,1,0,1.77,1.74A1.75,1.75,0,0,0,32.75,31.42Z"/><path class="cls-5" d="M28.4,31.42a1.76,1.76,0,1,0,1.75,1.74A1.76,1.76,0,0,0,28.4,31.42Z"/><path class="cls-5" d="M24,31.42a1.76,1.76,0,1,0,1.74,1.74A1.74,1.74,0,0,0,24,31.42Z"/><path class="cls-5" d="M37.13,31.42a1.76,1.76,0,1,0,1.74,1.74A1.73,1.73,0,0,0,37.13,31.42Z"/><path class="cls-5" d="M41.5,31.42a1.76,1.76,0,1,0,1.74,1.74A1.76,1.76,0,0,0,41.5,31.42Z"/></g><g id="_2235843065936" data-name=" 2235843065936"><path class="cls-6" d="M22.28,16.34a.67.67,0,0,1-.67-.65V12.63a.66.66,0,0,1,.67-.64.64.64,0,0,1,.65.64v3.06A.65.65,0,0,1,22.28,16.34Z"/></g><g id="_2235843053168" data-name=" 2235843053168"><path class="cls-6" d="M43.24,16.34a.65.65,0,0,1-.64-.65V12.63a.64.64,0,0,1,.64-.64.66.66,0,0,1,.67.64v3.06A.67.67,0,0,1,43.24,16.34Z"/></g><g id="_2235843052912" data-name=" 2235843052912"><circle class="cls-7" cx="24.03" cy="24.44" r="1.74"/></g><g id="_2235843038384" data-name=" 2235843038384"><circle class="cls-8" cx="32.75" cy="33.16" r="1.74"/></g><g id="_2235843038576" data-name=" 2235843038576"><circle class="cls-9" cx="37.13" cy="28.81" r="1.74"/></g><path class="cls-10" d="M52.09,18.82h.33a3.88,3.88,0,0,0,1.94-.33,1.35,1.35,0,0,0,.48-1.2A1.62,1.62,0,0,0,54.33,16a3.71,3.71,0,0,0-1.91-.35h-.33ZM52,20.26v5.06H50.25V14h2.58a7.94,7.94,0,0,1,1.74.15,2.77,2.77,0,0,1,1,.5,2.52,2.52,0,0,1,.82,1,3.52,3.52,0,0,1,.28,1.44,3.25,3.25,0,0,1-.64,2.12,3,3,0,0,1-2,.91L58,25.32H56l-3.78-5.06Zm7.14,5.06V14h6.31v1.58H61v2.82h4.47V20H61v3.65h4.47v1.65Zm7.77-2.27,1.46-.69a2,2,0,0,0,.79,1.17,2.37,2.37,0,0,0,1.41.38,1.82,1.82,0,0,0,1.31-.45,1.59,1.59,0,0,0,.48-1.22c0-.64-.55-1.24-1.65-1.77l-.36-.17a8.85,8.85,0,0,1-2.51-1.64,2.84,2.84,0,0,1-.62-1.82,2.8,2.8,0,0,1,1-2.22,3.43,3.43,0,0,1,2.46-.86,4,4,0,0,1,2.08.47,2.47,2.47,0,0,1,1.17,1.39l-1.43.74a2.47,2.47,0,0,0-.74-.79,1.8,1.8,0,0,0-.94-.24,1.71,1.71,0,0,0-1.19.39,1.29,1.29,0,0,0-.43,1c0,.7.64,1.32,1.91,1.92l.24.09a6.63,6.63,0,0,1,2.29,1.53,2.67,2.67,0,0,1,.65,1.84,3.28,3.28,0,0,1-1,2.56,3.85,3.85,0,0,1-2.72.93,3.79,3.79,0,0,1-2.37-.67A3,3,0,0,1,66.88,23.05Zm9.35,2.27V14h6.31v1.58H78v2.82h4.5V20H78v3.65h4.5v1.65Zm10.25-6.5h.34a4,4,0,0,0,1.93-.33,1.41,1.41,0,0,0,.48-1.2A1.57,1.57,0,0,0,88.7,16a3.6,3.6,0,0,0-1.88-.35h-.34Zm-.12,1.44v5.06H84.64V14H87.2a7.64,7.64,0,0,1,1.74.15,3,3,0,0,1,1.08.5,2.77,2.77,0,0,1,.81,1,3.53,3.53,0,0,1,.29,1.44,3.26,3.26,0,0,1-.67,2.12,2.85,2.85,0,0,1-1.94.91l3.9,5.16H90.33l-3.75-5.06Zm10.73,5.49L92.05,14H94l2.54,6c.14.34.26.67.35,1a4.78,4.78,0,0,1,.24.83,7,7,0,0,1,.27-.86,7,7,0,0,1,.35-.93l2.51-6h1.92Zm6.19-.43V14h6.31v1.58h-4.47v2.82h4.47V20h-4.47v3.65h4.47v1.65Z"/><path class="cls-3" d="M51.37,37l.77-.65a3.08,3.08,0,0,0,.78,1.17,1.56,1.56,0,0,0,1,.36,1.77,1.77,0,0,0,1.24-.45,1.57,1.57,0,0,0,.48-1.22,1.3,1.3,0,0,0-.21-.77,4,4,0,0,0-1.13-.81,5.22,5.22,0,0,1-1.55-1.12,2,2,0,0,1-.38-1.25,2.43,2.43,0,0,1,.69-1.79,2.5,2.5,0,0,1,1.84-.72,2.62,2.62,0,0,1,1.32.34,2.89,2.89,0,0,1,1,1l-.76.65a2.18,2.18,0,0,0-.65-.82,1.65,1.65,0,0,0-2,.15,1.35,1.35,0,0,0-.43,1c0,.57.45,1.07,1.31,1.55a2.65,2.65,0,0,1,.36.19,3.82,3.82,0,0,1,1.27,1,2.34,2.34,0,0,1,.33,1.29A2.53,2.53,0,0,1,56,38.13a2.85,2.85,0,0,1-2,.7,2.61,2.61,0,0,1-1.58-.46A3.1,3.1,0,0,1,51.37,37ZM59,30h1l-.69,5.23a2.91,2.91,0,0,0-.05.46,1.9,1.9,0,0,0,0,.31,1.67,1.67,0,0,0,1.88,1.89,3,3,0,0,0,1.15-.22,2,2,0,0,0,.84-.67,4.89,4.89,0,0,0,.62-2.17.8.8,0,0,1,.05-.22L64.47,30h1l-.65,4.83h0A5.84,5.84,0,0,1,64,37.63a2.93,2.93,0,0,1-1.2.91,4,4,0,0,1-1.65.31A3,3,0,0,1,59,38.18a2.19,2.19,0,0,1-.79-1.77,8.26,8.26,0,0,1,.08-1c0-.41.09-.89.16-1.46Zm12.12,8.58,1-7.65H70l.09-.93h5.43l-.12.93H73.22l-1,7.65ZM76.73,30h1l-.67,5.23c0,.17,0,.34-.07.46V36a1.9,1.9,0,0,0,.47,1.41,1.94,1.94,0,0,0,1.41.48,3,3,0,0,0,1.15-.22,1.89,1.89,0,0,0,.81-.67,5,5,0,0,0,.65-2.17,1,1,0,0,0,0-.22L82.15,30h1l-.62,4.83h0a6.07,6.07,0,0,1-.88,2.79,2.93,2.93,0,0,1-1.2.91,4,4,0,0,1-1.65.31,3.06,3.06,0,0,1-2.1-.67A2.24,2.24,0,0,1,76,36.41c0-.28,0-.64.05-1s.1-.89.17-1.46Zm8.91,3.82h.7a7.7,7.7,0,0,0,1,0,1.85,1.85,0,0,0,.55-.14,1.31,1.31,0,0,0,.59-.55,1.55,1.55,0,0,0,.22-.84,1.11,1.11,0,0,0-.45-1,3.23,3.23,0,0,0-1.75-.31H86ZM84,38.59,85.14,30h1.39a8.51,8.51,0,0,1,1.58.09,2.58,2.58,0,0,1,.83.41,2,2,0,0,1,.6.77,2.5,2.5,0,0,1,.19,1A2.21,2.21,0,0,1,89,34a3,3,0,0,1-1.91.64l2.63,4H88.49l-2.51-4h-.46l-.5,4Zm6.55,0,1.15-8.94,5.13,6.74L97.71,30h1l-1.19,9-5.09-6.67-.86,6.31ZM107.85,34a3.21,3.21,0,0,0-.91-2.37,3.17,3.17,0,0,0-2.39-.9,3.92,3.92,0,0,0-1.41.26,3.43,3.43,0,0,0-1.15.79,4,4,0,0,0-.88,1.31,4.2,4.2,0,0,0-.29,1.53,3.09,3.09,0,0,0,3.25,3.28,3.74,3.74,0,0,0,1.44-.29,3.07,3.07,0,0,0,1.19-.79,4.13,4.13,0,0,0,.86-1.27A4.35,4.35,0,0,0,107.85,34Zm-3.25-4.21a4.22,4.22,0,0,1,3.1,1.15A4.08,4.08,0,0,1,108.88,34a4.6,4.6,0,0,1-.39,1.91,4.26,4.26,0,0,1-1.07,1.6,5.22,5.22,0,0,1-1.56,1,5.32,5.32,0,0,1-1.88.34,4,4,0,0,1-3-1.17,4.1,4.1,0,0,1-1.15-3,5.22,5.22,0,0,1,.36-2,4.5,4.5,0,0,1,2.58-2.56A5.38,5.38,0,0,1,104.6,29.79Z"/><path class="cls-11" d="M20,53.81V42.91h3.75a8.09,8.09,0,0,1,1.94.17,4,4,0,0,1,1.6.77,4.53,4.53,0,0,1,1.29,1.86A7.34,7.34,0,0,1,29,48.32a7.87,7.87,0,0,1-.29,2.2A4.78,4.78,0,0,1,28,52.09a3.15,3.15,0,0,1-1,1,3.39,3.39,0,0,1-1.31.55,6.22,6.22,0,0,1-1.75.19Zm1.44-1.26h2.31a5.11,5.11,0,0,0,1.7-.22,2.27,2.27,0,0,0,1-.55,3.63,3.63,0,0,0,.79-1.38,6.85,6.85,0,0,0,.29-2.11A5.2,5.2,0,0,0,27,45.66a3,3,0,0,0-1.36-1.24,6,6,0,0,0-1.87-.21H21.45ZM31,53.81V42.91h7.86v1.3H32.46v3.34h6v1.27h-6v3.73h6.7v1.26Zm9.63-3.49L42,50.2a3,3,0,0,0,.45,1.34,2.38,2.38,0,0,0,1.1.86,4,4,0,0,0,1.65.31,4.07,4.07,0,0,0,1.46-.23,2.11,2.11,0,0,0,1-.67,1.7,1.7,0,0,0,.31-.94,1.48,1.48,0,0,0-.31-.9,2.41,2.41,0,0,0-1-.65c-.28-.1-.93-.29-1.93-.53a9.82,9.82,0,0,1-2.11-.66,3.22,3.22,0,0,1-1.17-1,2.63,2.63,0,0,1-.38-1.34,2.76,2.76,0,0,1,.48-1.55,3,3,0,0,1,1.36-1.1,5.95,5.95,0,0,1,4.13,0,3.14,3.14,0,0,1,1.44,1.15A3.23,3.23,0,0,1,49,46l-1.38.09a2.23,2.23,0,0,0-.74-1.55A3,3,0,0,0,45,44a3.17,3.17,0,0,0-1.91.48,1.54,1.54,0,0,0-.59,1.17,1.22,1.22,0,0,0,.43,1,5.6,5.6,0,0,0,2.17.76,14.89,14.89,0,0,1,2.41.72,3.35,3.35,0,0,1,1.41,1.1,2.78,2.78,0,0,1,.43,1.55,2.89,2.89,0,0,1-.47,1.63,3.41,3.41,0,0,1-1.44,1.19,4.87,4.87,0,0,1-2.1.43,6.16,6.16,0,0,1-2.46-.43,3.41,3.41,0,0,1-1.58-1.29A3.83,3.83,0,0,1,40.66,50.32ZM51.3,53.81V42.91h3.75a8.14,8.14,0,0,1,1.94.17,4.11,4.11,0,0,1,1.6.77,4.72,4.72,0,0,1,1.29,1.86,7.34,7.34,0,0,1,.41,2.61,7.87,7.87,0,0,1-.29,2.2,4.78,4.78,0,0,1-.74,1.57,3.15,3.15,0,0,1-1,1,3.37,3.37,0,0,1-1.32.55,6.1,6.1,0,0,1-1.74.19Zm1.43-1.26h2.32a5.15,5.15,0,0,0,1.7-.22,2.33,2.33,0,0,0,1-.55,3.76,3.76,0,0,0,.79-1.38,6.87,6.87,0,0,0,.28-2.11,5.2,5.2,0,0,0-.55-2.63,2.91,2.91,0,0,0-1.36-1.24A5.88,5.88,0,0,0,55,44.21h-2.3Zm9.59,1.26V42.91h7.86v1.3H63.75v3.34h6v1.27h-6v3.73h6.69v1.26Zm12.31,0,4.18-10.9h1.58l4.44,10.9H83.18l-1.26-3.29H77.33l-1.17,3.29Zm3.13-4.47h3.7l-1.12-3c-.36-.93-.6-1.69-.79-2.29a15.25,15.25,0,0,1-.6,2.1Zm16.44,3.3a7.09,7.09,0,0,0,1.87,1l-.44,1a8.5,8.5,0,0,1-2.34-1.31,5.59,5.59,0,0,1-2.67.66,5.14,5.14,0,0,1-2.68-.71,4.84,4.84,0,0,1-1.84-2,6.4,6.4,0,0,1-.65-2.92,6.51,6.51,0,0,1,.65-2.91,4.43,4.43,0,0,1,1.86-2,5.56,5.56,0,0,1,5.4,0,4.72,4.72,0,0,1,1.87,2,6.7,6.7,0,0,1,.62,2.89,6.78,6.78,0,0,1-.41,2.42A4.8,4.8,0,0,1,94.2,52.64ZM91.05,50.8a5.37,5.37,0,0,1,2,1.05,4.52,4.52,0,0,0,1.27-3.49,5.26,5.26,0,0,0-.46-2.29,3.46,3.46,0,0,0-1.31-1.53,3.75,3.75,0,0,0-4.61.55,4.64,4.64,0,0,0-1.06,3.3A4.64,4.64,0,0,0,88,51.64a3.52,3.52,0,0,0,2.67,1.12,3.69,3.69,0,0,0,1.46-.28,4.66,4.66,0,0,0-1.43-.63Zm13.88-7.89h1.46v6.31a7.71,7.71,0,0,1-.38,2.61,3,3,0,0,1-1.34,1.55,4.65,4.65,0,0,1-2.53.62,5.48,5.48,0,0,1-2.51-.52A3.09,3.09,0,0,1,98.24,52a7.69,7.69,0,0,1-.41-2.73V42.91h1.44V49.2a6.31,6.31,0,0,0,.26,2.1,2,2,0,0,0,.91,1,3,3,0,0,0,1.58.38,3,3,0,0,0,2.24-.71,4.19,4.19,0,0,0,.67-2.8ZM109,53.81V42.91h1.46v10.9Zm-.43-11.56,1-2.08h1.77l-1.63,2.08Z"/><g id="_2235843073744" data-name=" 2235843073744"><path class="cls-12" d="M103.56,68.79c1.29.48,3.25-1.48,3.88-2.31l1.9-2.36c1.36-1.72,4.33-5.45,5.83-6.92a11,11,0,0,1,1.14-1c.54-.36.73-.41,1-1.08.44-.89,1.11-2,1.42-2.83-1.78,0-6,3.94-7,5.22l-5.49,6.75c-1,1.29-2.63,3.6-4.27,3.81Z"/><path class="cls-12" d="M99.54,56.21c.59.73.43,2.27.47,3.44s.18,2.44.21,3.62a11.86,11.86,0,0,0,.41,3.34c.43,1.39.79,1.45,2.27,1.09a5.49,5.49,0,0,1-.41-1.5c-.18-1.51-.23-3.68-.26-5.24-.09-3.47.22-3.18-1.31-4.33A1.57,1.57,0,0,0,99.54,56.21Z"/><path class="cls-13" d="M104.91,69.3c.82.6,1.32.32,2.15-.14a5.21,5.21,0,0,0,1.57-1.4l3.38-4.1a36.11,36.11,0,0,1,2.76-3.2,2.19,2.19,0,0,0,.69-.74,16.1,16.1,0,0,0,.85-2.16c-1,.31-2.15,2.16-2.91,2.89a5.47,5.47,0,0,0-.7.74c-.24.29-.41.51-.64.8l-3.94,4.76a13.29,13.29,0,0,1-1.35,1.53A7.15,7.15,0,0,1,104.91,69.3Z"/><path class="cls-12" d="M106.42,70c1.36.36,1.37.42,3-.79,1.09-.79,2.71-3.18,4-4.6.68-.75.48,0,.77-1.36a13.64,13.64,0,0,0,.42-1.64,20.51,20.51,0,0,0-2,2.14l-2.86,3.44c-.3.39-.62.73-.9,1.14A4.86,4.86,0,0,1,106.42,70Z"/><path class="cls-13" d="M103.56,67.1c1-.52.64-1.29.57-1.68a39.86,39.86,0,0,1-.19-5.73c0-.5,0-.39-.51-.88a1,1,0,0,0-.44-.34C103.15,60.8,102.9,65.22,103.56,67.1Z"/><path class="cls-12" d="M104.66,60.19c0,.92-.07,1.87,0,2.83s.12,1.75.22,2.62a3.65,3.65,0,0,0,.89-1C106.21,63.81,105.69,60.7,104.66,60.19Z"/></g><path class="cls-14" d="M99.59,58.15v3.1H99v-3.1h-1v-.5h2.49v.5Zm1.38-.5h.58v2.19a1,1,0,0,0,.23.73.86.86,0,0,0,.67.25.89.89,0,0,0,.67-.25,1,1,0,0,0,.22-.73V57.65h.58v2.24a1.5,1.5,0,0,1-.36,1.1,1.53,1.53,0,0,1-1.11.36,1.51,1.51,0,0,1-1.11-.36,1.49,1.49,0,0,1-.37-1.1Zm4.35,1.54h.11a1.09,1.09,0,0,0,.61-.11.42.42,0,0,0,.15-.38.5.5,0,0,0-.16-.42,1.1,1.1,0,0,0-.6-.12h-.11Zm0,.45v1.61h-.55v-3.6h.82a2,2,0,0,1,.55.06.88.88,0,0,1,.34.15.85.85,0,0,1,.26.33,1.14,1.14,0,0,1,.09.46,1,1,0,0,1-.21.67.88.88,0,0,1-.62.3l1.24,1.63h-.66l-1.19-1.61Zm2.27,1.61V57.51l2.29,2.2c0,.07.12.13.18.2s.14.16.21.24v-2.5h.54v3.74l-2.34-2.23-.18-.2a1.92,1.92,0,0,1-.16-.21v2.5Zm7.12-1.79a1.55,1.55,0,0,0-.1-.52,1.21,1.21,0,0,0-.29-.43,1.1,1.1,0,0,0-.42-.29,1.21,1.21,0,0,0-.5-.1,1.25,1.25,0,0,0-.51.1,1.1,1.1,0,0,0-.42.29,1.36,1.36,0,0,0-.29.43,1.4,1.4,0,0,0,0,1,1.36,1.36,0,0,0,.29.43,1.25,1.25,0,0,0,.42.3,1.33,1.33,0,0,0,1,0,1.25,1.25,0,0,0,.42-.3,1.21,1.21,0,0,0,.29-.43A1.5,1.5,0,0,0,114.67,59.46Zm.6,0a1.79,1.79,0,0,1-.14.73,1.77,1.77,0,0,1-.41.61,2.14,2.14,0,0,1-.63.41,2,2,0,0,1-.73.14,2.12,2.12,0,0,1-.75-.14,2.09,2.09,0,0,1-.62-.41,2,2,0,0,1-.42-.61,1.95,1.95,0,0,1,0-1.45,2,2,0,0,1,.42-.62,2,2,0,0,1,2.73,0,1.91,1.91,0,0,1,.41.62A1.78,1.78,0,0,1,115.27,59.46Zm.47,1.07.46-.21a.66.66,0,0,0,.25.37.79.79,0,0,0,.45.12.56.56,0,0,0,.42-.14.51.51,0,0,0,.15-.39c0-.21-.18-.4-.52-.57l-.12-.05a2.65,2.65,0,0,1-.79-.52.89.89,0,0,1-.2-.58.91.91,0,0,1,.3-.71,1.12,1.12,0,0,1,.78-.27,1.36,1.36,0,0,1,.67.15.8.8,0,0,1,.37.44l-.45.23a1.09,1.09,0,0,0-.24-.24.52.52,0,0,0-.3-.08.49.49,0,0,0-.37.13.37.37,0,0,0-.15.32c0,.22.21.42.61.61l.08,0a2.22,2.22,0,0,1,.73.48.85.85,0,0,1,.2.59,1.07,1.07,0,0,1-.32.81,1.43,1.43,0,0,1-1.62.09A1,1,0,0,1,115.74,60.53Z"/><path class="cls-10" d="M102.45,64.3a.93.93,0,0,0-1-1,1.15,1.15,0,0,0-.41.08,1,1,0,0,0-.35.24,1,1,0,0,0-.25.39,1.18,1.18,0,0,0-.09.46,1,1,0,0,0,.27.71.9.9,0,0,0,.68.27,1.06,1.06,0,0,0,.8-.33A1.15,1.15,0,0,0,102.45,64.3Zm-1-1.37a1.38,1.38,0,0,1,1,.37,1.35,1.35,0,0,1,.38,1,1.47,1.47,0,0,1-.13.62,1.43,1.43,0,0,1-.86.83,1.54,1.54,0,0,1-.61.11,1.27,1.27,0,0,1-1.35-1.35,1.49,1.49,0,0,1,.12-.64,1.27,1.27,0,0,1,.34-.51,1.47,1.47,0,0,1,.5-.32A1.71,1.71,0,0,1,101.49,62.93Zm1.72,2.86.37-2.91,1.53,1.76.15.17.13.18V64.8c0-.06,0-.15,0-.25l.21-1.55H106l-.38,2.91-1.52-1.76A1.4,1.4,0,0,1,104,64a.72.72,0,0,1-.11-.15,2.61,2.61,0,0,1,0,.4v0l-.2,1.55Zm3.1,0,.37-2.79h.43l-.31,2.36h1l-.06.43Zm1.84,0,.37-2.79H109l-.37,2.79Zm1.08,0,.38-2.91,1.53,1.76.15.17.12.18a1.28,1.28,0,0,1,0-.19c0-.06,0-.15,0-.25l.21-1.55h.41l-.38,2.91-1.53-1.76A2.61,2.61,0,0,1,110,64a.65.65,0,0,1-.1-.15c0,.08,0,.22,0,.4,0,0,0,0,0,0l-.2,1.55Zm3.1,0L112.7,63h1.57l0,.39h-1.14l-.09.71h1.14l0,.39h-1.14l-.11.9H114l0,.4Z"/><g id="_2235843067312" data-name=" 2235843067312"><path class="cls-15" d="M118.4,62.88h-2.63a.26.26,0,0,0-.26.26v2.1a.27.27,0,0,0,.26.27h1v.21h-.26a.27.27,0,0,0-.27.26.06.06,0,0,0,.06,0h1.57a.06.06,0,0,0,.06,0,.26.26,0,0,0-.26-.26h-.27v-.21h1a.27.27,0,0,0,.26-.27v-2.1A.26.26,0,0,0,118.4,62.88Zm-2.79.26a.16.16,0,0,1,.16-.15h2.63a.16.16,0,0,1,.16.15v1.94h-3Zm2.2,2.78h-1.45a.17.17,0,0,1,.15-.1h1.16A.17.17,0,0,1,117.81,65.92Zm-.52-.2h-.41v-.21h.41Zm1.27-.48a.17.17,0,0,1-.16.17h-2.63a.17.17,0,0,1-.16-.17v0h3Z"/><path class="cls-15" d="M117.51,63.7h-.84a.25.25,0,0,0-.25.25v.17a.25.25,0,0,0,.25.25h.84a.25.25,0,0,0,.25-.25V64A.25.25,0,0,0,117.51,63.7Zm.08.42a.09.09,0,0,1-.08.09h-.84a.09.09,0,0,1-.09-.09V64a.08.08,0,0,1,.09-.08h.84a.08.08,0,0,1,.08.08Z"/><path class="cls-15" d="M118.12,64.6s0,0,0,0,0,0,0,0l-.42-.11s0,0-.05,0a0,0,0,0,0,0,0l.1.42s0,0,0,0h0l0,0,.12-.11.22.22.07-.08-.22-.22Zm-.33.18-.05-.25.24.06Z"/><rect class="cls-16" x="117.03" y="63.51" width="0.11" height="0.11"/><path class="cls-15" d="M117.28,63.36a.37.37,0,0,0-.2-.06.31.31,0,0,0-.18.06l.06.09a.19.19,0,0,1,.12-.05.2.2,0,0,1,.13.05Z"/><path class="cls-15" d="M117.08,63.2a.29.29,0,0,1,.23.09l.07-.08a.42.42,0,0,0-.59,0l.07.08A.32.32,0,0,1,117.08,63.2Z"/><rect class="cls-16" x="118.13" y="63.88" width="0.11" height="0.11"/><rect class="cls-16" x="118.13" y="63.56" width="0.11" height="0.21"/><rect class="cls-16" x="118.13" y="63.2" width="0.11" height="0.26"/><rect class="cls-16" x="115.93" y="63.88" width="0.11" height="0.11"/><rect class="cls-16" x="115.93" y="63.56" width="0.11" height="0.21"/><rect class="cls-16" x="115.93" y="63.2" width="0.11" height="0.26"/></g></svg>