<?xml version="1.0" encoding="UTF-8"?>
<!DOCTYPE svg PUBLIC "-//W3C//DTD SVG 1.1//EN" "http://www.w3.org/Graphics/SVG/1.1/DTD/svg11.dtd">
<!-- Creator: CorelDRAW X7 -->
<svg xmlns="http://www.w3.org/2000/svg" xml:space="preserve" width="98.86mm" height="29mm" version="1.1" style="shape-rendering:geometricPrecision; text-rendering:geometricPrecision; image-rendering:optimizeQuality; fill-rule:evenodd; clip-rule:evenodd"
viewBox="0 0 9886 2900"
 xmlns:xlink="http://www.w3.org/1999/xlink">
 <defs>
  <style type="text/css">
   <![CDATA[
    .str0 {stroke:#A9ABAE;stroke-width:20}
    .str1 {stroke:#4B4B4D;stroke-width:7.62}
    .fil2 {fill:#FEFEFE}
    .fil4 {fill:#D2D3D5}
    .fil1 {fill:#A9ABAE}
    .fil14 {fill:#4B4B4D}
    .fil3 {fill:#BF353E}
    .fil9 {fill:#883035}
    .fil10 {fill:#154360}
    .fil5 {fill:#5C546A}
    .fil8 {fill:#FF4F19}
    .fil7 {fill:#FF9600}
    .fil6 {fill:#FFD200}
    .fil11 {fill:white}
    .fil12 {fill:#154360;fill-opacity:0.200000}
    .fil13 {fill:#DB2526;fill-opacity:0.200000}
    .fil0 {fill:url(#id0)}
   ]]>
  </style>
  <linearGradient id="id0" gradientUnits="userSpaceOnUse" x1="2.68" y1="1450" x2="9906" y2="1450">
   <stop offset="0" style="stop-opacity:1; stop-color:#B0B0B0"/>
   <stop offset="0.14902" style="stop-opacity:1; stop-color:#D7D7D7"/>
   <stop offset="1" style="stop-opacity:1; stop-color:#FEFEFE"/>
  </linearGradient>
 </defs>
 <g id="Capa_x0020_1">
  <metadata id="CorelCorpID_0Corel-Layer"/>
  <rect class="fil0" x="3" width="9903" height="2900"/>
  <g id="_2235705554336">
  </g>
  <g id="_2235705545152">
  </g>
  <g id="_2235705591584">
  </g>
  <g id="_2235705591776">
  </g>
  <g id="_2235705588448">
  </g>
  <g id="_2235705589920">
  </g>
  <polygon class="fil1 str0" points="1928,1212 4398,1212 4328,1668 1858,1668 "/>
  <g id="_2235705586496">
  </g>
  <g id="_2235705587904">
  </g>
  <g id="_2235705586112">
  </g>
  <g id="_2235705587808">
  </g>
  <g id="_2235705587040">
  </g>
  <g id="_2235705585568">
  </g>
  <g id="_2235705582432">
  </g>
  <g id="_2235705581888">
  </g>
  <g id="_2235705580256">
  </g>
  <g id="_2235705578400">
   <path class="fil2" d="M563 804l0 750c0,50 41,91 92,91l987 0c51,0 92,-41 92,-91l0 -750 -1171 0z"/>
  </g>
  <g id="_2235705577888">
   <path class="fil3" d="M1642 548l-987 0c-51,0 -92,41 -92,91l0 165 1171 0 0 -165c0,-50 -41,-91 -92,-91zm-932 183c-31,0 -55,-25 -55,-55 0,-30 24,-55 55,-55 30,0 55,25 55,55 0,30 -25,55 -55,55zm877 0c-30,0 -55,-25 -55,-55 0,-30 25,-55 55,-55 31,0 55,25 55,55 0,30 -24,55 -55,55z"/>
  </g>
  <g id="_2235843064400">
   <g>
    <path class="fil4" d="M1148 969c-40,0 -73,32 -73,73 0,40 33,73 73,73 41,0 74,-33 74,-73 0,-41 -33,-73 -74,-73z"/>
   </g>
   <g>
    <path class="fil4" d="M966 969c-41,0 -74,32 -74,73 0,40 33,73 74,73 40,0 73,-33 73,-73 0,-41 -33,-73 -73,-73z"/>
   </g>
   <g>
    <path class="fil4" d="M783 969c-41,0 -73,32 -73,73 0,40 32,73 73,73 40,0 73,-33 73,-73 0,-41 -33,-73 -73,-73z"/>
   </g>
   <g>
    <path class="fil4" d="M1331 969c-40,0 -73,32 -73,73 0,40 33,73 73,73 41,0 73,-33 73,-73 0,-41 -32,-73 -73,-73z"/>
   </g>
   <g>
    <path class="fil4" d="M1514 1115c40,0 73,-33 73,-73 0,-41 -33,-73 -73,-73 -40,0 -73,32 -73,73 0,40 33,73 73,73z"/>
   </g>
   <g>
    <path class="fil4" d="M1148 1151c-40,0 -73,33 -73,74 0,40 33,73 73,73 41,0 74,-33 74,-73 0,-41 -33,-74 -74,-74z"/>
   </g>
   <g>
    <path class="fil4" d="M966 1151c-41,0 -74,33 -74,74 0,40 33,73 74,73 40,0 73,-33 73,-73 0,-41 -33,-74 -73,-74z"/>
   </g>
   <g>
    <path class="fil4" d="M783 1151c-41,0 -73,33 -73,74 0,40 32,73 73,73 40,0 73,-33 73,-73 0,-41 -33,-74 -73,-74z"/>
   </g>
   <g>
    <path class="fil4" d="M1331 1151c-40,0 -73,33 -73,74 0,40 33,73 73,73 41,0 73,-33 73,-73 0,-41 -32,-74 -73,-74z"/>
   </g>
   <g>
    <path class="fil4" d="M1514 1151c-40,0 -73,33 -73,74 0,40 33,73 73,73 40,0 73,-33 73,-73 0,-41 -33,-74 -73,-74z"/>
   </g>
   <g>
    <path class="fil4" d="M1148 1334c-40,0 -73,33 -73,73 0,41 33,74 73,74 41,0 74,-33 74,-74 0,-40 -33,-73 -74,-73z"/>
   </g>
   <g>
    <path class="fil4" d="M966 1334c-41,0 -74,33 -74,73 0,41 33,74 74,74 40,0 73,-33 73,-74 0,-40 -33,-73 -73,-73z"/>
   </g>
   <g>
    <path class="fil4" d="M783 1334c-41,0 -73,33 -73,73 0,41 32,74 73,74 40,0 73,-33 73,-74 0,-40 -33,-73 -73,-73z"/>
   </g>
   <g>
    <path class="fil4" d="M1331 1334c-40,0 -73,33 -73,73 0,41 33,74 73,74 41,0 73,-33 73,-74 0,-40 -32,-73 -73,-73z"/>
   </g>
   <g>
    <path class="fil4" d="M1514 1334c-40,0 -73,33 -73,73 0,41 33,74 73,74 40,0 73,-33 73,-74 0,-40 -33,-73 -73,-73z"/>
   </g>
  </g>
  <g id="_2235843065936">
   <g>
    <path class="fil5" d="M710 703c-15,0 -28,-12 -28,-27l0 -128c0,-15 13,-27 28,-27 15,0 27,12 27,27l0 128c0,15 -12,27 -27,27z"/>
   </g>
  </g>
  <g id="_2235843053168">
   <g>
    <path class="fil5" d="M1587 703c-15,0 -27,-12 -27,-27l0 -128c0,-15 12,-27 27,-27 15,0 28,12 28,27l0 128c0,15 -13,27 -28,27z"/>
   </g>
  </g>
  <g id="_2235843052912">
   <circle class="fil6" cx="783" cy="1042" r="73"/>
  </g>
  <g id="_2235843038384">
   <circle class="fil7" cx="1148" cy="1407" r="73"/>
  </g>
  <g id="_2235843038576">
   <circle class="fil8" cx="1331" cy="1225" r="73"/>
  </g>
  <path class="fil9" d="M1957 807l14 0c41,0 68,-5 81,-14 14,-10 20,-26 20,-50 0,-26 -7,-45 -21,-56 -15,-10 -41,-15 -80,-15l-14 0 0 135zm-5 60l0 212 -72 0 0 -474 108 0c31,0 55,2 73,6 17,5 32,11 44,21 15,11 26,26 34,44 8,18 12,38 12,60 0,37 -9,67 -27,89 -19,21 -46,34 -82,38l163 216 -86 0 -158 -212 -9 0zm299 212l0 -474 264 0 0 66 -187 0 0 118 187 0 0 68 -187 0 0 153 187 0 0 69 -264 0zm325 -95l61 -29c6,22 17,38 33,49 15,11 35,16 59,16 23,0 41,-6 55,-19 13,-12 20,-29 20,-51 0,-27 -23,-52 -69,-74 -7,-3 -12,-6 -15,-7 -53,-26 -87,-49 -105,-69 -17,-21 -26,-46 -26,-76 0,-38 13,-69 40,-93 26,-24 60,-36 103,-36 35,0 64,6 87,20 24,13 40,33 49,58l-60 31c-9,-15 -20,-26 -31,-33 -12,-7 -25,-10 -39,-10 -21,0 -37,5 -50,16 -12,11 -18,25 -18,43 0,29 27,55 80,80 5,2 8,3 10,4 47,22 79,43 96,64 18,20 27,46 27,77 0,45 -14,80 -43,107 -28,26 -66,39 -114,39 -41,0 -74,-9 -99,-28 -26,-18 -43,-45 -51,-79zm391 95l0 -474 264 0 0 66 -188 0 0 118 188 0 0 68 -188 0 0 153 188 0 0 69 -264 0zm429 -272l14 0c40,0 67,-5 81,-14 13,-10 20,-26 20,-50 0,-26 -7,-45 -22,-56 -14,-10 -41,-15 -79,-15l-14 0 0 135zm-5 60l0 212 -72 0 0 -474 107 0c32,0 56,2 73,6 18,5 32,11 45,21 14,11 26,26 34,44 8,18 12,38 12,60 0,37 -10,67 -28,89 -18,21 -45,34 -81,38l163 216 -87 0 -157 -212 -9 0zm449 230l-211 -492 80 0 106 253c6,14 11,28 15,40 4,12 8,24 10,35 3,-11 6,-24 11,-36 4,-13 9,-26 15,-39l105 -253 80 0 -211 492zm259 -18l0 -474 264 0 0 66 -187 0 0 118 187 0 0 68 -187 0 0 153 187 0 0 69 -264 0z"/>
  <path class="fil2" d="M1927 1569l32 -27c10,23 21,39 33,49 12,10 26,15 43,15 22,0 39,-7 52,-19 14,-13 20,-30 20,-51 0,-13 -3,-24 -9,-32 -7,-9 -22,-20 -47,-34 -32,-17 -54,-33 -65,-47 -11,-14 -16,-32 -16,-52 0,-31 10,-56 29,-75 20,-20 46,-30 77,-30 21,0 39,5 55,14 16,9 30,23 42,42l-32 27c-8,-16 -17,-27 -27,-34 -11,-8 -23,-11 -37,-11 -19,0 -34,5 -46,17 -12,11 -18,26 -18,44 0,24 19,45 55,65 7,3 12,6 15,8 26,14 43,29 53,43 10,15 14,33 14,54 0,34 -10,60 -30,80 -21,19 -49,29 -84,29 -26,0 -48,-6 -66,-19 -18,-13 -33,-32 -43,-56zm320 -294l44 0 -29 219c-1,7 -2,14 -2,19 -1,5 -1,10 -1,13 0,26 7,45 20,59 14,13 33,20 59,20 18,0 34,-3 48,-9 14,-6 26,-16 35,-28 12,-16 21,-47 26,-91 1,-4 1,-7 2,-9l26 -193 43 0 -27 202 0 0c-7,57 -20,96 -37,117 -13,17 -30,29 -50,38 -20,9 -44,13 -69,13 -37,0 -66,-9 -87,-28 -22,-18 -33,-43 -33,-74 0,-12 1,-27 3,-43 1,-17 4,-37 7,-61l22 -164zm507 359l42 -320 -90 0 4 -39 227 0 -5 39 -91 0 -43 320 -44 0zm234 -359l43 0 -28 219c-1,7 -2,14 -3,19 0,5 0,10 0,13 0,26 6,45 20,59 13,13 33,20 59,20 18,0 34,-3 48,-9 14,-6 25,-16 34,-28 12,-16 21,-47 27,-91 1,-4 1,-7 1,-9l26 -193 43 0 -26 202 0 0c-8,57 -20,96 -37,117 -13,17 -30,29 -50,38 -21,9 -44,13 -69,13 -37,0 -66,-9 -88,-28 -21,-18 -32,-43 -32,-74 0,-12 1,-27 2,-43 2,-17 4,-37 7,-61l23 -164zm373 160l29 0c18,0 32,-1 41,-2 9,-1 16,-3 23,-6 11,-5 19,-13 25,-23 6,-10 9,-22 9,-35 0,-20 -6,-35 -19,-43 -12,-9 -37,-13 -73,-13l-19 0 -16 122zm-68 199l47 -359 58 0c31,0 53,1 66,4 13,4 25,9 35,17 11,9 19,19 25,32 5,12 8,26 8,41 0,30 -10,54 -30,72 -20,17 -47,26 -80,27l110 166 -52 0 -105 -166 -19 0 -21 166 -42 0zm274 0l48 -374 215 282 36 -268 43 0 -50 375 -213 -279 -36 264 -43 0zm723 -192c0,-41 -13,-74 -38,-99 -25,-26 -59,-38 -100,-38 -21,0 -40,4 -59,11 -18,8 -34,18 -48,33 -16,16 -28,34 -37,55 -8,20 -12,42 -12,64 0,41 12,74 37,99 25,25 58,38 99,38 21,0 41,-4 60,-12 19,-7 36,-18 50,-33 15,-15 27,-33 36,-53 8,-21 12,-43 12,-65zm-136 -176c54,0 98,16 130,48 33,32 49,75 49,128 0,28 -5,55 -16,80 -10,26 -25,48 -45,67 -19,17 -40,31 -65,41 -25,9 -51,14 -79,14 -53,0 -95,-16 -127,-49 -32,-32 -48,-74 -48,-126 0,-29 5,-57 15,-82 11,-26 26,-48 45,-67 18,-17 39,-30 63,-40 25,-9 51,-14 78,-14z"/>
  <path class="fil10" d="M615 2271l0 -456 157 0c35,0 62,2 81,7 26,6 48,17 67,32 24,21 42,47 54,78 12,32 17,68 17,109 0,34 -4,65 -12,92 -8,27 -18,49 -31,66 -12,18 -26,32 -41,41 -15,11 -33,18 -55,23 -21,6 -45,8 -73,8l-164 0zm60 -53l97 0c30,0 54,-3 71,-9 17,-5 31,-13 41,-23 14,-15 25,-34 33,-58 8,-24 12,-54 12,-88 0,-48 -8,-85 -23,-110 -16,-26 -35,-43 -57,-52 -16,-6 -42,-9 -78,-9l-96 0 0 349zm401 53l0 -456 329 0 0 54 -269 0 0 140 252 0 0 53 -252 0 0 156 280 0 0 53 -340 0zm403 -146l57 -5c3,23 9,41 19,56 10,15 25,27 46,36 20,9 44,13 69,13 23,0 44,-3 61,-10 18,-7 31,-16 40,-28 8,-12 13,-25 13,-39 0,-15 -5,-27 -13,-38 -8,-10 -22,-19 -41,-27 -12,-4 -39,-12 -81,-22 -42,-10 -71,-19 -88,-28 -22,-12 -38,-26 -49,-43 -10,-17 -16,-36 -16,-56 0,-24 7,-45 20,-65 13,-20 32,-35 57,-46 25,-10 53,-15 84,-15 34,0 63,5 89,16 26,11 46,27 60,48 14,21 21,45 22,72l-58 4c-3,-28 -13,-50 -31,-65 -18,-15 -45,-22 -80,-22 -36,0 -63,7 -80,20 -16,14 -25,30 -25,49 0,16 6,29 18,40 12,11 42,21 91,32 49,12 83,21 101,30 26,12 46,27 59,46 12,19 18,40 18,65 0,24 -6,47 -20,68 -14,21 -34,38 -60,50 -26,12 -55,18 -88,18 -41,0 -75,-6 -103,-18 -28,-12 -50,-30 -66,-54 -16,-25 -24,-52 -25,-82zm445 146l0 -456 157 0c35,0 62,2 81,7 26,6 48,17 67,32 24,21 42,47 54,78 12,32 17,68 17,109 0,34 -4,65 -12,92 -8,27 -18,49 -31,66 -12,18 -26,32 -41,41 -15,11 -33,18 -55,23 -21,6 -45,8 -73,8l-164 0zm60 -53l97 0c30,0 54,-3 71,-9 17,-5 31,-13 41,-23 14,-15 25,-34 33,-58 8,-24 12,-54 12,-88 0,-48 -8,-85 -23,-110 -16,-26 -35,-43 -57,-52 -16,-6 -42,-9 -78,-9l-96 0 0 349zm401 53l0 -456 329 0 0 54 -269 0 0 140 252 0 0 53 -252 0 0 156 280 0 0 53 -340 0zm515 0l175 -456 66 0 186 456 -69 0 -53 -138 -192 0 -49 138 -64 0zm131 -187l155 0 -47 -126c-15,-39 -25,-71 -33,-96 -6,30 -15,59 -25,88l-50 134zm688 138c28,20 54,34 78,42l-18 42c-33,-11 -65,-30 -98,-55 -34,18 -71,28 -112,28 -41,0 -78,-10 -112,-30 -33,-20 -59,-48 -77,-84 -18,-36 -27,-76 -27,-122 0,-45 9,-85 27,-122 18,-37 44,-65 78,-84 34,-20 71,-29 113,-29 42,0 80,10 113,30 34,20 60,48 78,84 17,35 26,76 26,121 0,38 -6,71 -17,101 -11,30 -29,56 -52,78zm-132 -77c35,10 63,24 86,44 35,-33 53,-81 53,-146 0,-37 -6,-69 -19,-96 -13,-28 -31,-49 -55,-64 -24,-15 -51,-23 -81,-23 -45,0 -82,15 -112,46 -29,31 -44,77 -44,138 0,59 15,104 44,136 29,31 67,47 112,47 22,0 42,-4 61,-12 -19,-12 -39,-21 -60,-26l15 -44zm581 -330l61 0 0 264c0,45 -6,82 -16,109 -10,27 -29,49 -56,65 -27,17 -62,26 -106,26 -43,0 -78,-8 -105,-22 -27,-15 -46,-36 -58,-64 -11,-28 -17,-66 -17,-114l0 -264 60 0 0 263c0,40 4,69 11,88 8,19 20,33 38,43 18,11 40,16 66,16 44,0 75,-10 94,-30 19,-21 28,-59 28,-117l0 -263zm171 456l0 -456 61 0 0 456 -61 0zm-18 -484l41 -87 74 0 -68 87 -47 0z"/>
  <circle class="fil3" transform="matrix(1.32423E-015 -0.05 0.05 1.32423E-015 5023.29 2148.9)" r="10500"/>
  <path class="fil9" d="M5200 1654l-177 167 -75 194 -168 146 243 316 508 -462c-44,-168 -169,-303 -331,-361z"/>
  <polygon class="fil11" points="5023,2477 4780,2161 4892,2161 5023,1821 5155,2161 5267,2161 "/>
  <g id="_2235843034416">
  </g>
  <g id="_2235843035120">
  </g>
  <g id="_2235843019760">
  </g>
  <g id="_2235843017744">
  </g>
  <g id="_2235843017488">
  </g>
  <g id="_2235843016464">
  </g>
  <g id="_2235843015184">
  </g>
  <g id="_2235843015600">
  </g>
  <g id="_2235843014096">
  </g>
  <g id="_2235843014416">
  </g>
  <g id="_2235843014224">
  </g>
  <g id="_2235843014000">
  </g>
  <g id="_2235843014480">
  </g>
  <g id="_2235843076688">
  </g>
  <g id="_2235843077840">
  </g>
  <g id="_2235843073744">
   <path class="fil12" d="M7294 2620c201,75 507,-231 605,-360l296 -368c212,-269 675,-850 909,-1078 48,-48 120,-111 179,-153 84,-57 114,-65 162,-168 68,-140 173,-313 221,-442 -278,7 -938,615 -1093,814l-857 1051c-151,202 -409,562 -665,595l243 109z"/>
   <path class="fil12" d="M6668 659c92,114 66,354 72,536 7,188 29,380 33,564 0,173 16,363 64,520 67,217 124,226 354,171 -26,-88 -50,-107 -64,-234 -28,-236 -35,-573 -41,-816 -13,-542 35,-496 -203,-675 -68,-51 -114,-81 -215,-66z"/>
   <path class="fil13" d="M7504 2699c129,94 207,50 336,-22 110,-61 173,-133 245,-218l527 -639c103,-124 335,-422 431,-498 46,-38 85,-70 107,-116 28,-61 123,-276 133,-337 -148,48 -336,337 -454,450 -42,40 -73,70 -110,116 -37,46 -63,79 -100,125l-613 741c-80,83 -122,171 -212,239 -205,155 -196,100 -290,159z"/>
   <path class="fil12" d="M7740 2806c212,57 214,66 476,-122 169,-123 422,-496 624,-717 105,-118 74,-9 120,-212 20,-81 57,-180 65,-256 -70,46 -240,260 -306,334l-446 536c-46,61 -96,114 -140,177 -135,201 -365,241 -393,260z"/>
   <path class="fil13" d="M7294 2356c161,-81 100,-201 89,-262 -67,-429 -11,-663 -30,-893 -7,-78 -7,-61 -79,-137 -35,-35 -26,-33 -68,-53 24,363 -15,1052 88,1345z"/>
   <path class="fil12" d="M7466 1280c7,142 -11,291 -4,440 4,137 20,273 35,408 39,-17 114,-120 138,-161 72,-123 -9,-608 -169,-687z"/>
  </g>
  <path class="fil14 str1" d="M6675 962l0 483 -91 0 0 -483 -149 0 0 -78 388 0 0 78 -148 0zm216 -78l90 0 0 341c0,51 12,89 35,114 23,25 58,38 105,38 46,0 81,-13 104,-38 24,-25 35,-63 35,-114l0 -341 91 0 0 349c0,76 -19,133 -57,171 -38,37 -96,56 -173,56 -78,0 -135,-19 -173,-56 -38,-38 -57,-94 -57,-171l0 -349zm677 240l17 0c48,0 80,-6 96,-17 15,-11 23,-31 23,-60 0,-31 -8,-52 -25,-65 -17,-13 -49,-19 -94,-19l-17 0 0 161zm-6 70l0 251 -85 0 0 -561 127 0c37,0 66,3 87,8 20,5 38,13 52,24 18,13 31,31 41,52 9,22 14,45 14,71 0,45 -11,80 -33,105 -21,26 -53,41 -96,46l193 255 -103 0 -186 -251 -11 0zm354 251l0 -583 357 343c9,10 19,20 29,31 10,11 21,24 32,37l0 -389 84 0 0 583 -364 -349c-9,-9 -19,-19 -28,-30 -9,-10 -18,-21 -26,-33l0 390 -84 0zm1111 -279c0,-28 -6,-55 -16,-81 -10,-25 -25,-48 -45,-68 -19,-20 -40,-35 -65,-45 -25,-11 -51,-16 -79,-16 -28,0 -54,5 -79,16 -25,10 -47,25 -66,45 -20,20 -34,42 -45,68 -10,25 -15,52 -15,81 0,28 5,55 15,81 11,25 25,47 45,67 19,20 41,35 66,46 25,10 51,16 79,16 27,0 53,-6 78,-16 25,-11 47,-26 66,-46 20,-20 35,-42 45,-68 10,-25 16,-52 16,-80zm94 0c0,40 -7,78 -22,113 -15,36 -37,67 -65,95 -29,28 -62,49 -98,64 -36,15 -74,22 -114,22 -40,0 -79,-7 -116,-22 -36,-15 -68,-36 -97,-64 -28,-28 -50,-59 -65,-95 -14,-35 -22,-72 -22,-113 0,-40 8,-78 22,-113 15,-36 37,-68 65,-96 29,-28 61,-49 98,-63 36,-15 74,-22 115,-22 40,0 79,7 115,22 36,14 68,35 97,63 28,29 50,61 65,96 15,36 22,74 22,113zm73 167l72 -34c7,25 20,45 39,58 18,13 41,19 70,19 27,0 49,-7 65,-22 16,-15 24,-35 24,-61 0,-33 -28,-62 -82,-88 -8,-4 -14,-6 -18,-8 -62,-30 -103,-58 -124,-82 -20,-24 -31,-54 -31,-89 0,-46 16,-83 47,-112 31,-28 72,-42 122,-42 41,0 76,8 104,24 28,16 47,39 58,68l-71 37c-12,-17 -24,-30 -37,-38 -14,-9 -29,-13 -47,-13 -24,0 -44,7 -58,20 -15,12 -22,29 -22,51 0,34 32,65 95,94 5,2 9,4 12,5 55,26 93,51 114,75 21,25 31,55 31,92 0,53 -17,95 -50,126 -34,32 -79,47 -136,47 -48,0 -87,-11 -117,-33 -31,-22 -51,-53 -60,-94z"/>
  <path class="fil9" d="M7121 1920c0,-46 -14,-83 -42,-111 -28,-28 -65,-42 -111,-42 -22,0 -44,4 -64,13 -21,8 -39,21 -54,37 -17,17 -31,38 -40,61 -9,22 -14,46 -14,71 0,46 14,83 42,111 27,28 63,42 107,42 50,0 92,-17 125,-52 34,-35 51,-78 51,-130zm-149 -214c66,0 119,19 158,58 40,39 59,90 59,155 0,35 -6,67 -19,98 -13,31 -31,57 -55,80 -23,22 -49,38 -79,49 -30,12 -62,17 -96,17 -63,0 -114,-19 -153,-58 -39,-39 -58,-90 -58,-153 0,-36 6,-69 19,-99 12,-31 30,-58 53,-80 23,-22 49,-38 78,-50 30,-11 61,-17 93,-17zm267 446l59 -453 238 273c9,10 16,19 23,28 7,9 14,18 20,27 0,-9 0,-19 1,-29 1,-10 2,-23 4,-39l33 -242 64 0 -59 453 -238 -273c-11,-12 -20,-23 -26,-31 -7,-8 -12,-17 -17,-24 0,13 -2,34 -6,62 0,2 -1,4 -1,6l-31 242 -64 0zm484 0l57 -435 68 0 -48 368 163 0 -9 67 -231 0zm287 0l57 -435 70 0 -58 435 -69 0zm169 0l59 -453 238 273c8,10 16,19 23,28 7,9 13,18 19,27 0,-9 1,-19 2,-29 1,-10 2,-23 4,-39l33 -242 64 0 -59 453 -239 -273c-11,-12 -19,-23 -26,-31 -6,-8 -12,-17 -16,-24 -1,13 -3,34 -6,62 -1,2 -1,4 -1,6l-31 242 -64 0zm483 0l57 -435 245 0 -8 61 -177 0 -14 110 177 0 -8 61 -177 0 -18 141 176 0 -8 62 -245 0z"/>
  <g id="_2235843067312">
   <path class="fil14" d="M9608 1698l-409 0c-23,0 -41,19 -41,41l0 312 0 16c0,23 18,41 41,41l155 0 0 33 -41 0c-22,0 -41,18 -41,41 0,4 4,8 9,8l245 0c5,0 9,-4 9,-8 0,-23 -19,-41 -41,-41l-41 0 0 -33 155 0c23,0 41,-18 41,-41l0 -16 0 -312c0,-22 -18,-41 -41,-41zm-434 41c0,-13 11,-24 25,-24l409 0c14,0 25,11 25,24l0 303 -459 0 0 -303zm343 434l-227 0c4,-9 13,-16 23,-16l50 0 81 0 50 0c10,0 19,7 23,16zm-81 -32l-65 0 0 -33 65 0 0 33zm197 -74c0,14 -11,25 -25,25l-164 0 -81 0 -164 0c-14,0 -25,-11 -25,-25l0 -8 459 0 0 8z"/>
   <path class="fil14" d="M9469 1826l-131 0c-21,0 -39,18 -39,40l0 26c0,21 18,39 39,39l131 0c21,0 39,-18 39,-39l0 -26c0,-22 -18,-40 -39,-40zm13 66c0,7 -6,13 -13,13l-131 0c-7,0 -13,-6 -13,-13l0 -26c0,-8 6,-13 13,-13l131 0c7,0 13,5 13,13l0 26z"/>
   <path class="fil14" d="M9565 1966c2,-2 3,-5 2,-8 -1,-3 -3,-5 -6,-5l-65 -17c-3,-1 -6,0 -8,2 -2,2 -3,5 -2,8l16 66c1,2 3,5 6,6 0,0 1,0 2,0 2,0 4,-1 6,-3l19 -18 35 35 11 -12 -35 -35 19 -19zm-51 28l-9 -39 38 10 -29 29z"/>
   <rect class="fil14" x="9395" y="1797" width="16.3807" height="16.3807"/>
   <path class="fil14" d="M9433 1774c-11,-9 -23,-10 -30,-10 -14,0 -24,6 -29,10l10 13c3,-3 10,-7 19,-7 5,0 13,1 20,7l10 -13z"/>
   <path class="fil14" d="M9403 1748c7,0 22,1 36,14l11 -12c-18,-17 -38,-19 -47,-19 -24,0 -40,13 -46,19l11 12c5,-5 17,-14 35,-14z"/>
   <rect class="fil14" x="9567" y="1854" width="16.3807" height="16.3807"/>
   <rect class="fil14" x="9567" y="1805" width="16.3807" height="32.7613"/>
   <rect class="fil14" x="9567" y="1748" width="16.3807" height="40.9516"/>
   <rect class="fil14" x="9223" y="1854" width="16.3807" height="16.3807"/>
   <rect class="fil14" x="9223" y="1805" width="16.3807" height="32.7613"/>
   <rect class="fil14" x="9223" y="1748" width="16.3807" height="40.9516"/>
  </g>
 </g>
</svg>
